<svg width="258" height="187" viewBox="0 0 258 187" fill="none" xmlns="http://www.w3.org/2000/svg">
<rect x="0.5" y="0.5" width="257" height="186" rx="4.5" stroke="#8A38F5" stroke-dasharray="10 5"/>
<rect width="176" height="42" transform="translate(20 20)" fill="#5F2900"/>
<path d="M50.242 46V45.384C50.55 45.3747 50.7693 45.314 50.9 45.202C51.04 45.0807 51.1287 44.9033 51.166 44.67C51.2033 44.4367 51.222 44.1427 51.222 43.788V38.076C51.222 37.824 51.2267 37.6 51.236 37.404C51.2453 37.1987 51.2547 37.0353 51.264 36.914C51.1053 36.9233 50.9327 36.9327 50.746 36.942C50.5593 36.9513 50.3913 36.9607 50.242 36.97V36.2C50.802 36.1907 51.362 36.186 51.922 36.186C52.482 36.1767 53.056 36.172 53.644 36.172C54.7453 36.172 55.6087 36.3727 56.234 36.774C56.8593 37.166 57.158 37.782 57.13 38.622C57.1207 38.9113 57.032 39.2007 56.864 39.49C56.7053 39.77 56.4627 40.022 56.136 40.246C55.8093 40.4607 55.4033 40.6193 54.918 40.722V40.75C55.9167 40.7967 56.6633 41.058 57.158 41.534C57.6527 42.0007 57.9 42.57 57.9 43.242C57.9 43.8207 57.7507 44.32 57.452 44.74C57.1627 45.1507 56.766 45.4633 56.262 45.678C55.7673 45.8927 55.198 46 54.554 46H50.242ZM52.664 45.3C52.8227 45.3 52.9953 45.3047 53.182 45.314C53.3687 45.314 53.546 45.314 53.714 45.314C53.8913 45.314 54.022 45.314 54.106 45.314C54.778 45.3047 55.3053 45.1227 55.688 44.768C56.0707 44.4133 56.262 43.9187 56.262 43.284C56.262 42.7613 56.1547 42.3553 55.94 42.066C55.7347 41.7673 55.464 41.5573 55.128 41.436C54.792 41.3147 54.4327 41.254 54.05 41.254C53.7887 41.254 53.5507 41.2587 53.336 41.268C53.1307 41.268 52.9207 41.2727 52.706 41.282V44.152C52.706 44.404 52.7013 44.628 52.692 44.824C52.692 45.02 52.6827 45.1787 52.664 45.3ZM52.706 40.596L53.63 40.568C54.1153 40.5587 54.498 40.456 54.778 40.26C55.0673 40.064 55.2727 39.812 55.394 39.504C55.5153 39.196 55.5713 38.874 55.562 38.538C55.562 38.0713 55.464 37.7167 55.268 37.474C55.072 37.2313 54.8293 37.0633 54.54 36.97C54.2507 36.8767 53.966 36.83 53.686 36.83C53.4247 36.83 53.224 36.8673 53.084 36.942C52.944 37.0167 52.846 37.1473 52.79 37.334C52.734 37.5113 52.706 37.7773 52.706 38.132V40.596ZM62.1667 46.224C61.5041 46.224 60.9067 46.0747 60.3747 45.776C59.8427 45.4773 59.4181 45.062 59.1007 44.53C58.7927 43.9887 58.6387 43.368 58.6387 42.668C58.6387 41.912 58.7927 41.2447 59.1007 40.666C59.4181 40.078 59.8427 39.616 60.3747 39.28C60.9067 38.944 61.4994 38.776 62.1527 38.776C62.8154 38.776 63.4127 38.93 63.9447 39.238C64.4767 39.5367 64.8967 39.9567 65.2047 40.498C65.5221 41.03 65.6807 41.646 65.6807 42.346C65.6807 43.0833 65.5267 43.746 65.2187 44.334C64.9107 44.922 64.4907 45.384 63.9587 45.72C63.4361 46.056 62.8387 46.224 62.1667 46.224ZM62.2647 45.524C62.7127 45.5147 63.0627 45.3747 63.3147 45.104C63.5761 44.8333 63.7627 44.488 63.8747 44.068C63.9867 43.6387 64.0427 43.1953 64.0427 42.738C64.0427 42.3367 64.0054 41.9447 63.9307 41.562C63.8654 41.17 63.7581 40.8153 63.6087 40.498C63.4594 40.1807 63.2634 39.9287 63.0207 39.742C62.7781 39.546 62.4841 39.4527 62.1387 39.462C61.7001 39.462 61.3407 39.5973 61.0607 39.868C60.7901 40.1387 60.5894 40.4887 60.4587 40.918C60.3374 41.338 60.2767 41.786 60.2767 42.262C60.2767 42.8127 60.3467 43.3353 60.4867 43.83C60.6267 44.3247 60.8414 44.7307 61.1307 45.048C61.4294 45.3653 61.8074 45.524 62.2647 45.524ZM69.9941 46.224C69.3315 46.224 68.7341 46.0747 68.2021 45.776C67.6701 45.4773 67.2455 45.062 66.9281 44.53C66.6201 43.9887 66.4661 43.368 66.4661 42.668C66.4661 41.912 66.6201 41.2447 66.9281 40.666C67.2455 40.078 67.6701 39.616 68.2021 39.28C68.7341 38.944 69.3268 38.776 69.9801 38.776C70.6428 38.776 71.2401 38.93 71.7721 39.238C72.3041 39.5367 72.7241 39.9567 73.0321 40.498C73.3495 41.03 73.5081 41.646 73.5081 42.346C73.5081 43.0833 73.3541 43.746 73.0461 44.334C72.7381 44.922 72.3181 45.384 71.7861 45.72C71.2635 46.056 70.6661 46.224 69.9941 46.224ZM70.0921 45.524C70.5401 45.5147 70.8901 45.3747 71.1421 45.104C71.4035 44.8333 71.5901 44.488 71.7021 44.068C71.8141 43.6387 71.8701 43.1953 71.8701 42.738C71.8701 42.3367 71.8328 41.9447 71.7581 41.562C71.6928 41.17 71.5855 40.8153 71.4361 40.498C71.2868 40.1807 71.0908 39.9287 70.8481 39.742C70.6055 39.546 70.3115 39.4527 69.9661 39.462C69.5275 39.462 69.1681 39.5973 68.8881 39.868C68.6175 40.1387 68.4168 40.4887 68.2861 40.918C68.1648 41.338 68.1041 41.786 68.1041 42.262C68.1041 42.8127 68.1741 43.3353 68.3141 43.83C68.4541 44.3247 68.6688 44.7307 68.9581 45.048C69.2568 45.3653 69.6348 45.524 70.0921 45.524ZM74.1959 46V45.412C74.4759 45.412 74.6672 45.3467 74.7699 45.216C74.8819 45.0853 74.9472 44.9033 74.9659 44.67C74.9939 44.4367 75.0079 44.166 75.0079 43.858L75.0219 37.53C75.0219 37.3713 75.0219 37.2127 75.0219 37.054C75.0312 36.886 75.0452 36.7087 75.0639 36.522C74.9052 36.5313 74.7372 36.5407 74.5599 36.55C74.3826 36.55 74.2239 36.5547 74.0839 36.564V35.822C74.4946 35.822 74.8212 35.8033 75.0639 35.766C75.3159 35.7193 75.5119 35.668 75.6519 35.612C75.7919 35.556 75.8899 35.4953 75.9459 35.43H76.4779V41.968H77.0799L78.5499 40.386C78.6992 40.2367 78.8299 40.106 78.9419 39.994C79.0539 39.882 79.1659 39.784 79.2779 39.7L78.3959 39.728V39H81.1539V39.574C80.8272 39.6113 80.5286 39.7093 80.2579 39.868C79.9966 40.0173 79.7586 40.19 79.5439 40.386C79.3292 40.582 79.1472 40.764 78.9979 40.932L77.9619 42.024C78.1392 42.108 78.2932 42.2153 78.4239 42.346C78.5546 42.4673 78.6946 42.626 78.8439 42.822L79.8239 44.082C79.8706 44.138 79.9452 44.2407 80.0479 44.39C80.1599 44.53 80.2906 44.6793 80.4399 44.838C80.5892 44.9967 80.7432 45.132 80.9019 45.244C81.0699 45.356 81.2286 45.412 81.3779 45.412V46H79.9919C79.7212 46 79.4692 45.874 79.2359 45.622C79.0119 45.37 78.7646 45.0667 78.4939 44.712C78.2699 44.4133 78.0646 44.1333 77.8779 43.872C77.6912 43.6013 77.5186 43.3587 77.3599 43.144C77.2106 42.9293 77.0799 42.7613 76.9679 42.64L76.4779 42.668V44.264C76.4779 44.432 76.4732 44.6047 76.4639 44.782C76.4639 44.95 76.4499 45.1227 76.4219 45.3C76.5712 45.2907 76.7252 45.286 76.8839 45.286C77.0426 45.2767 77.1872 45.2673 77.3179 45.258V46H74.1959ZM92.9609 39.322C92.8583 38.482 92.5689 37.838 92.0929 37.39C91.6169 36.9327 90.9963 36.6993 90.2309 36.69C89.7456 36.69 89.2976 36.7973 88.8869 37.012C88.4763 37.2267 88.1216 37.53 87.8229 37.922C87.5243 38.3047 87.2909 38.762 87.1229 39.294C86.9643 39.8167 86.8849 40.3907 86.8849 41.016C86.8849 41.8653 87.0343 42.6213 87.3329 43.284C87.6316 43.9373 88.0423 44.446 88.5649 44.81C89.0969 45.174 89.6989 45.356 90.3709 45.356C90.9683 45.356 91.5563 45.216 92.1349 44.936C92.7229 44.6467 93.2083 44.2407 93.5909 43.718L94.0529 44.11C93.6329 44.6887 93.1849 45.132 92.7089 45.44C92.2329 45.748 91.7569 45.9533 91.2809 46.056C90.8143 46.168 90.3896 46.224 90.0069 46.224C89.3069 46.224 88.6629 46.098 88.0749 45.846C87.4869 45.594 86.9783 45.244 86.5489 44.796C86.1289 44.3387 85.8023 43.8113 85.5689 43.214C85.3449 42.6073 85.2329 41.954 85.2329 41.254C85.2329 40.6007 85.3356 39.9613 85.5409 39.336C85.7463 38.7107 86.0496 38.146 86.4509 37.642C86.8523 37.1287 87.3563 36.7227 87.9629 36.424C88.5789 36.1253 89.2929 35.976 90.1049 35.976C90.5809 35.976 91.0429 36.0413 91.4909 36.172C91.9483 36.3027 92.3869 36.5033 92.8069 36.774L92.7369 36.074H93.6049V39.322H92.9609ZM98.1593 46.224C97.4966 46.224 96.8993 46.0747 96.3673 45.776C95.8353 45.4773 95.4106 45.062 95.0933 44.53C94.7853 43.9887 94.6313 43.368 94.6313 42.668C94.6313 41.912 94.7853 41.2447 95.0933 40.666C95.4106 40.078 95.8353 39.616 96.3673 39.28C96.8993 38.944 97.492 38.776 98.1453 38.776C98.808 38.776 99.4053 38.93 99.9373 39.238C100.469 39.5367 100.889 39.9567 101.197 40.498C101.515 41.03 101.673 41.646 101.673 42.346C101.673 43.0833 101.519 43.746 101.211 44.334C100.903 44.922 100.483 45.384 99.9513 45.72C99.4286 46.056 98.8313 46.224 98.1593 46.224ZM98.2573 45.524C98.7053 45.5147 99.0553 45.3747 99.3073 45.104C99.5686 44.8333 99.7553 44.488 99.8673 44.068C99.9793 43.6387 100.035 43.1953 100.035 42.738C100.035 42.3367 99.998 41.9447 99.9233 41.562C99.858 41.17 99.7506 40.8153 99.6013 40.498C99.452 40.1807 99.256 39.9287 99.0133 39.742C98.7706 39.546 98.4766 39.4527 98.1313 39.462C97.6926 39.462 97.3333 39.5973 97.0533 39.868C96.7826 40.1387 96.582 40.4887 96.4513 40.918C96.33 41.338 96.2693 41.786 96.2693 42.262C96.2693 42.8127 96.3393 43.3353 96.4793 43.83C96.6193 44.3247 96.834 44.7307 97.1233 45.048C97.422 45.3653 97.8 45.524 98.2573 45.524ZM102.529 46V45.412C102.809 45.412 103.005 45.3467 103.117 45.216C103.229 45.0853 103.294 44.9033 103.313 44.67C103.341 44.4367 103.355 44.166 103.355 43.858L103.369 40.946C103.369 40.7967 103.369 40.638 103.369 40.47C103.378 40.2927 103.397 40.12 103.425 39.952C103.257 39.9613 103.084 39.9707 102.907 39.98C102.739 39.98 102.58 39.9847 102.431 39.994V39.252C102.851 39.252 103.177 39.2333 103.411 39.196C103.653 39.1493 103.835 39.098 103.957 39.042C104.087 38.986 104.185 38.9253 104.251 38.86H104.755C104.764 38.944 104.769 39.0233 104.769 39.098C104.778 39.1727 104.783 39.252 104.783 39.336C104.792 39.42 104.801 39.5273 104.811 39.658C105.016 39.49 105.24 39.3407 105.483 39.21C105.725 39.0793 105.977 38.9767 106.239 38.902C106.509 38.818 106.766 38.776 107.009 38.776C107.839 38.776 108.437 39.028 108.801 39.532C109.174 40.036 109.361 40.8247 109.361 41.898V44.264C109.361 44.432 109.356 44.6047 109.347 44.782C109.337 44.95 109.323 45.1227 109.305 45.3C109.454 45.2907 109.603 45.286 109.753 45.286C109.911 45.2767 110.056 45.2673 110.187 45.258V46H107.065V45.412C107.345 45.412 107.541 45.3467 107.653 45.216C107.765 45.0853 107.83 44.9033 107.849 44.67C107.877 44.4367 107.891 44.166 107.891 43.858V41.898C107.881 41.1607 107.76 40.6053 107.527 40.232C107.303 39.8587 106.939 39.6767 106.435 39.686C106.136 39.686 105.842 39.7607 105.553 39.91C105.263 40.0593 105.021 40.2413 104.825 40.456C104.825 40.5493 104.825 40.652 104.825 40.764C104.825 40.8667 104.825 40.974 104.825 41.086V44.264C104.825 44.432 104.82 44.6047 104.811 44.782C104.801 44.95 104.787 45.1227 104.769 45.3C104.918 45.2907 105.067 45.286 105.217 45.286C105.375 45.2767 105.52 45.2673 105.651 45.258V46H102.529ZM113.871 46.224C113.433 46.224 113.027 46.1633 112.653 46.042C112.28 45.93 111.981 45.7947 111.757 45.636L111.799 46.098H111.057L110.987 43.69H111.575C111.594 44.0353 111.701 44.348 111.897 44.628C112.093 44.908 112.345 45.1273 112.653 45.286C112.971 45.4447 113.311 45.524 113.675 45.524C113.89 45.524 114.1 45.4913 114.305 45.426C114.511 45.3513 114.683 45.244 114.823 45.104C114.963 44.9547 115.033 44.7727 115.033 44.558C115.033 44.3247 114.959 44.1333 114.809 43.984C114.669 43.8253 114.473 43.6853 114.221 43.564C113.979 43.4427 113.699 43.3213 113.381 43.2C113.101 43.088 112.817 42.9713 112.527 42.85C112.247 42.7287 111.986 42.584 111.743 42.416C111.501 42.248 111.309 42.0427 111.169 41.8C111.029 41.548 110.959 41.24 110.959 40.876C110.959 40.6613 111.001 40.4327 111.085 40.19C111.169 39.938 111.305 39.7093 111.491 39.504C111.678 39.2893 111.93 39.1167 112.247 38.986C112.565 38.846 112.957 38.776 113.423 38.776C113.675 38.776 113.955 38.818 114.263 38.902C114.581 38.986 114.875 39.1307 115.145 39.336L115.131 38.846H115.873V41.31H115.271C115.243 40.9833 115.155 40.68 115.005 40.4C114.865 40.12 114.665 39.8913 114.403 39.714C114.142 39.5367 113.825 39.448 113.451 39.448C113.087 39.448 112.789 39.5413 112.555 39.728C112.331 39.9053 112.219 40.1293 112.219 40.4C112.219 40.6707 112.303 40.89 112.471 41.058C112.649 41.226 112.877 41.3707 113.157 41.492C113.437 41.6133 113.741 41.7347 114.067 41.856C114.459 42.0147 114.828 42.1873 115.173 42.374C115.519 42.5607 115.799 42.794 116.013 43.074C116.228 43.354 116.335 43.7087 116.335 44.138C116.335 44.6047 116.214 44.9967 115.971 45.314C115.738 45.622 115.435 45.8507 115.061 46C114.688 46.1493 114.291 46.224 113.871 46.224ZM120.126 46.224C119.603 46.224 119.169 46.126 118.824 45.93C118.488 45.734 118.236 45.412 118.068 44.964C117.9 44.5067 117.816 43.9047 117.816 43.158V40.96C117.816 40.8013 117.816 40.638 117.816 40.47C117.825 40.2927 117.844 40.12 117.872 39.952C117.713 39.9613 117.545 39.9707 117.368 39.98C117.19 39.98 117.032 39.9847 116.892 39.994V39.252H117.228C117.694 39.252 118.044 39.21 118.278 39.126C118.511 39.042 118.674 38.9533 118.768 38.86H119.3V43.13C119.3 43.8673 119.402 44.418 119.608 44.782C119.813 45.146 120.158 45.3233 120.644 45.314C120.961 45.314 121.264 45.2207 121.554 45.034C121.852 44.8473 122.095 44.628 122.282 44.376V41.058C122.282 40.8527 122.286 40.6613 122.296 40.484C122.305 40.2973 122.324 40.12 122.352 39.952C122.184 39.9613 122.011 39.9707 121.834 39.98C121.656 39.98 121.493 39.9847 121.344 39.994V39.252H121.75C122.16 39.252 122.482 39.21 122.716 39.126C122.949 39.042 123.117 38.9533 123.22 38.86H123.752L123.738 44.012C123.738 44.1613 123.733 44.3667 123.724 44.628C123.714 44.88 123.7 45.104 123.682 45.3C123.84 45.2907 124.004 45.2813 124.172 45.272C124.349 45.2627 124.512 45.258 124.662 45.258V46H122.436C122.417 45.8507 122.398 45.7107 122.38 45.58C122.37 45.4493 122.356 45.3233 122.338 45.202C122.048 45.4727 121.712 45.7107 121.33 45.916C120.947 46.1213 120.546 46.224 120.126 46.224ZM125.187 45.412C125.467 45.412 125.663 45.3467 125.775 45.216C125.887 45.0853 125.952 44.9033 125.971 44.67C125.999 44.4367 126.013 44.166 126.013 43.858V37.53C126.013 37.3713 126.013 37.2127 126.013 37.054C126.022 36.886 126.036 36.7087 126.055 36.522C125.896 36.5313 125.728 36.5407 125.551 36.55C125.373 36.55 125.215 36.5547 125.075 36.564V35.822C125.495 35.822 125.826 35.8033 126.069 35.766C126.321 35.7193 126.512 35.668 126.643 35.612C126.783 35.556 126.885 35.4953 126.951 35.43H127.483V44.264C127.483 44.432 127.478 44.6047 127.469 44.782C127.459 44.95 127.445 45.1227 127.427 45.3C127.576 45.2907 127.725 45.286 127.875 45.286C128.033 45.2767 128.178 45.2673 128.309 45.258V46H125.187V45.412ZM131.727 46.224C131.494 46.224 131.256 46.1913 131.013 46.126C130.78 46.07 130.565 45.9533 130.369 45.776C130.173 45.5893 130.019 45.3233 129.907 44.978C129.795 44.6327 129.739 44.1753 129.739 43.606L129.767 39.784H128.731V39C128.983 38.9907 129.24 38.8973 129.501 38.72C129.763 38.5427 129.991 38.3047 130.187 38.006C130.383 37.7073 130.519 37.3853 130.593 37.04H131.251V39H133.407V39.728L131.251 39.756L131.223 43.494C131.223 43.8487 131.251 44.1613 131.307 44.432C131.373 44.6933 131.475 44.8987 131.615 45.048C131.765 45.188 131.965 45.258 132.217 45.258C132.432 45.258 132.651 45.1927 132.875 45.062C133.109 44.9313 133.328 44.7167 133.533 44.418L134.009 44.838C133.785 45.1647 133.561 45.4213 133.337 45.608C133.113 45.7947 132.899 45.93 132.693 46.014C132.488 46.1073 132.301 46.1633 132.133 46.182C131.965 46.21 131.83 46.224 131.727 46.224ZM138.454 46C138.435 45.8507 138.421 45.72 138.412 45.608C138.403 45.496 138.389 45.3793 138.37 45.258C138.053 45.5753 137.712 45.818 137.348 45.986C136.984 46.1447 136.606 46.224 136.214 46.224C135.542 46.224 135.033 46.0607 134.688 45.734C134.352 45.398 134.184 44.9827 134.184 44.488C134.184 44.0587 134.31 43.6853 134.562 43.368C134.814 43.0507 135.145 42.794 135.556 42.598C135.967 42.3927 136.415 42.2433 136.9 42.15C137.385 42.0473 137.861 41.996 138.328 41.996V41.17C138.328 40.8713 138.3 40.596 138.244 40.344C138.188 40.0827 138.071 39.8727 137.894 39.714C137.726 39.546 137.46 39.462 137.096 39.462C136.853 39.4527 136.611 39.4993 136.368 39.602C136.125 39.6953 135.939 39.854 135.808 40.078C135.883 40.1527 135.929 40.2413 135.948 40.344C135.976 40.4373 135.99 40.526 135.99 40.61C135.99 40.7407 135.934 40.89 135.822 41.058C135.71 41.2167 135.519 41.2913 135.248 41.282C135.024 41.282 134.851 41.2073 134.73 41.058C134.618 40.8993 134.562 40.7173 134.562 40.512C134.562 40.176 134.683 39.8773 134.926 39.616C135.178 39.3547 135.519 39.1493 135.948 39C136.377 38.8507 136.858 38.776 137.39 38.776C138.193 38.776 138.79 38.986 139.182 39.406C139.583 39.826 139.784 40.4887 139.784 41.394C139.784 41.73 139.784 42.052 139.784 42.36C139.784 42.668 139.779 42.976 139.77 43.284C139.77 43.592 139.77 43.9187 139.77 44.264C139.77 44.404 139.765 44.5627 139.756 44.74C139.747 44.9173 139.733 45.104 139.714 45.3C139.873 45.2907 140.036 45.2813 140.204 45.272C140.372 45.2627 140.531 45.258 140.68 45.258V46H138.454ZM138.328 42.64C138.029 42.6587 137.721 42.7007 137.404 42.766C137.096 42.8313 136.816 42.9293 136.564 43.06C136.312 43.1907 136.107 43.3587 135.948 43.564C135.799 43.7693 135.724 44.0167 135.724 44.306C135.743 44.6233 135.845 44.8567 136.032 45.006C136.228 45.1553 136.457 45.23 136.718 45.23C137.045 45.23 137.334 45.1693 137.586 45.048C137.838 44.9173 138.085 44.74 138.328 44.516C138.319 44.4133 138.314 44.3107 138.314 44.208C138.314 44.096 138.314 43.9793 138.314 43.858C138.314 43.774 138.314 43.62 138.314 43.396C138.323 43.1627 138.328 42.9107 138.328 42.64ZM143.896 46.224C143.662 46.224 143.424 46.1913 143.182 46.126C142.948 46.07 142.734 45.9533 142.538 45.776C142.342 45.5893 142.188 45.3233 142.076 44.978C141.964 44.6327 141.908 44.1753 141.908 43.606L141.936 39.784H140.9V39C141.152 38.9907 141.408 38.8973 141.67 38.72C141.931 38.5427 142.16 38.3047 142.356 38.006C142.552 37.7073 142.687 37.3853 142.762 37.04H143.42V39H145.576V39.728L143.42 39.756L143.392 43.494C143.392 43.8487 143.42 44.1613 143.476 44.432C143.541 44.6933 143.644 44.8987 143.784 45.048C143.933 45.188 144.134 45.258 144.386 45.258C144.6 45.258 144.82 45.1927 145.044 45.062C145.277 44.9313 145.496 44.7167 145.702 44.418L146.178 44.838C145.954 45.1647 145.73 45.4213 145.506 45.608C145.282 45.7947 145.067 45.93 144.862 46.014C144.656 46.1073 144.47 46.1633 144.302 46.182C144.134 46.21 143.998 46.224 143.896 46.224ZM146.493 45.412C146.773 45.412 146.969 45.3467 147.081 45.216C147.193 45.0853 147.258 44.9033 147.277 44.67C147.305 44.4367 147.319 44.166 147.319 43.858V40.96C147.319 40.8013 147.323 40.6427 147.333 40.484C147.342 40.316 147.356 40.1387 147.375 39.952C147.216 39.9613 147.048 39.9707 146.871 39.98C146.693 39.98 146.53 39.9847 146.381 39.994V39.252C146.801 39.252 147.132 39.2333 147.375 39.196C147.627 39.1493 147.818 39.098 147.949 39.042C148.089 38.986 148.191 38.9253 148.257 38.86H148.789V44.264C148.789 44.432 148.784 44.6047 148.775 44.782C148.765 44.95 148.751 45.1227 148.733 45.3C148.882 45.2907 149.031 45.286 149.181 45.286C149.339 45.2767 149.484 45.2673 149.615 45.258V46H146.493V45.412ZM147.977 37.572C147.734 37.572 147.529 37.4833 147.361 37.306C147.193 37.1193 147.109 36.8953 147.109 36.634C147.109 36.3727 147.197 36.1533 147.375 35.976C147.552 35.7893 147.753 35.696 147.977 35.696C148.219 35.696 148.42 35.7893 148.579 35.976C148.747 36.1533 148.831 36.3727 148.831 36.634C148.831 36.8953 148.747 37.1193 148.579 37.306C148.42 37.4833 148.219 37.572 147.977 37.572ZM153.813 46.224C153.15 46.224 152.553 46.0747 152.021 45.776C151.489 45.4773 151.064 45.062 150.747 44.53C150.439 43.9887 150.285 43.368 150.285 42.668C150.285 41.912 150.439 41.2447 150.747 40.666C151.064 40.078 151.489 39.616 152.021 39.28C152.553 38.944 153.146 38.776 153.799 38.776C154.462 38.776 155.059 38.93 155.591 39.238C156.123 39.5367 156.543 39.9567 156.851 40.498C157.168 41.03 157.327 41.646 157.327 42.346C157.327 43.0833 157.173 43.746 156.865 44.334C156.557 44.922 156.137 45.384 155.605 45.72C155.082 46.056 154.485 46.224 153.813 46.224ZM153.911 45.524C154.359 45.5147 154.709 45.3747 154.961 45.104C155.222 44.8333 155.409 44.488 155.521 44.068C155.633 43.6387 155.689 43.1953 155.689 42.738C155.689 42.3367 155.652 41.9447 155.577 41.562C155.512 41.17 155.404 40.8153 155.255 40.498C155.106 40.1807 154.91 39.9287 154.667 39.742C154.424 39.546 154.13 39.4527 153.785 39.462C153.346 39.462 152.987 39.5973 152.707 39.868C152.436 40.1387 152.236 40.4887 152.105 40.918C151.984 41.338 151.923 41.786 151.923 42.262C151.923 42.8127 151.993 43.3353 152.133 43.83C152.273 44.3247 152.488 44.7307 152.777 45.048C153.076 45.3653 153.454 45.524 153.911 45.524ZM158.183 46V45.412C158.463 45.412 158.659 45.3467 158.771 45.216C158.883 45.0853 158.948 44.9033 158.967 44.67C158.995 44.4367 159.009 44.166 159.009 43.858L159.023 40.946C159.023 40.7967 159.023 40.638 159.023 40.47C159.032 40.2927 159.051 40.12 159.079 39.952C158.911 39.9613 158.738 39.9707 158.561 39.98C158.393 39.98 158.234 39.9847 158.085 39.994V39.252C158.505 39.252 158.831 39.2333 159.065 39.196C159.307 39.1493 159.489 39.098 159.611 39.042C159.741 38.986 159.839 38.9253 159.905 38.86H160.409C160.418 38.944 160.423 39.0233 160.423 39.098C160.432 39.1727 160.437 39.252 160.437 39.336C160.446 39.42 160.455 39.5273 160.465 39.658C160.67 39.49 160.894 39.3407 161.137 39.21C161.379 39.0793 161.631 38.9767 161.893 38.902C162.163 38.818 162.42 38.776 162.663 38.776C163.493 38.776 164.091 39.028 164.455 39.532C164.828 40.036 165.015 40.8247 165.015 41.898V44.264C165.015 44.432 165.01 44.6047 165.001 44.782C164.991 44.95 164.977 45.1227 164.959 45.3C165.108 45.2907 165.257 45.286 165.407 45.286C165.565 45.2767 165.71 45.2673 165.841 45.258V46H162.719V45.412C162.999 45.412 163.195 45.3467 163.307 45.216C163.419 45.0853 163.484 44.9033 163.503 44.67C163.531 44.4367 163.545 44.166 163.545 43.858V41.898C163.535 41.1607 163.414 40.6053 163.181 40.232C162.957 39.8587 162.593 39.6767 162.089 39.686C161.79 39.686 161.496 39.7607 161.207 39.91C160.917 40.0593 160.675 40.2413 160.479 40.456C160.479 40.5493 160.479 40.652 160.479 40.764C160.479 40.8667 160.479 40.974 160.479 41.086V44.264C160.479 44.432 160.474 44.6047 160.465 44.782C160.455 44.95 160.441 45.1227 160.423 45.3C160.572 45.2907 160.721 45.286 160.871 45.286C161.029 45.2767 161.174 45.2673 161.305 45.258V46H158.183Z" fill="white"/>
<path d="M230 38C230 38 225.581 44 224 44C222.419 44 218 38 218 38" stroke="#5F2900" stroke-width="1.5" stroke-linecap="round" stroke-linejoin="round"/>
<rect width="176" height="42" transform="translate(20 82)" fill="#5F2900"/>
<path d="M50.242 108V107.384C50.55 107.375 50.7693 107.314 50.9 107.202C51.04 107.081 51.1287 106.903 51.166 106.67C51.2033 106.437 51.222 106.143 51.222 105.788V100.076C51.222 99.824 51.2267 99.6 51.236 99.404C51.2453 99.1987 51.2547 99.0353 51.264 98.914C51.1053 98.9233 50.9327 98.9327 50.746 98.942C50.5593 98.9513 50.3913 98.9607 50.242 98.97V98.2C50.802 98.1907 51.362 98.186 51.922 98.186C52.482 98.1767 53.056 98.172 53.644 98.172C54.7453 98.172 55.6087 98.3727 56.234 98.774C56.8593 99.166 57.158 99.782 57.13 100.622C57.1207 100.911 57.032 101.201 56.864 101.49C56.7053 101.77 56.4627 102.022 56.136 102.246C55.8093 102.461 55.4033 102.619 54.918 102.722V102.75C55.9167 102.797 56.6633 103.058 57.158 103.534C57.6527 104.001 57.9 104.57 57.9 105.242C57.9 105.821 57.7507 106.32 57.452 106.74C57.1627 107.151 56.766 107.463 56.262 107.678C55.7673 107.893 55.198 108 54.554 108H50.242ZM52.664 107.3C52.8227 107.3 52.9953 107.305 53.182 107.314C53.3687 107.314 53.546 107.314 53.714 107.314C53.8913 107.314 54.022 107.314 54.106 107.314C54.778 107.305 55.3053 107.123 55.688 106.768C56.0707 106.413 56.262 105.919 56.262 105.284C56.262 104.761 56.1547 104.355 55.94 104.066C55.7347 103.767 55.464 103.557 55.128 103.436C54.792 103.315 54.4327 103.254 54.05 103.254C53.7887 103.254 53.5507 103.259 53.336 103.268C53.1307 103.268 52.9207 103.273 52.706 103.282V106.152C52.706 106.404 52.7013 106.628 52.692 106.824C52.692 107.02 52.6827 107.179 52.664 107.3ZM52.706 102.596L53.63 102.568C54.1153 102.559 54.498 102.456 54.778 102.26C55.0673 102.064 55.2727 101.812 55.394 101.504C55.5153 101.196 55.5713 100.874 55.562 100.538C55.562 100.071 55.464 99.7167 55.268 99.474C55.072 99.2313 54.8293 99.0633 54.54 98.97C54.2507 98.8767 53.966 98.83 53.686 98.83C53.4247 98.83 53.224 98.8673 53.084 98.942C52.944 99.0167 52.846 99.1473 52.79 99.334C52.734 99.5113 52.706 99.7773 52.706 100.132V102.596ZM62.1667 108.224C61.5041 108.224 60.9067 108.075 60.3747 107.776C59.8427 107.477 59.4181 107.062 59.1007 106.53C58.7927 105.989 58.6387 105.368 58.6387 104.668C58.6387 103.912 58.7927 103.245 59.1007 102.666C59.4181 102.078 59.8427 101.616 60.3747 101.28C60.9067 100.944 61.4994 100.776 62.1527 100.776C62.8154 100.776 63.4127 100.93 63.9447 101.238C64.4767 101.537 64.8967 101.957 65.2047 102.498C65.5221 103.03 65.6807 103.646 65.6807 104.346C65.6807 105.083 65.5267 105.746 65.2187 106.334C64.9107 106.922 64.4907 107.384 63.9587 107.72C63.4361 108.056 62.8387 108.224 62.1667 108.224ZM62.2647 107.524C62.7127 107.515 63.0627 107.375 63.3147 107.104C63.5761 106.833 63.7627 106.488 63.8747 106.068C63.9867 105.639 64.0427 105.195 64.0427 104.738C64.0427 104.337 64.0054 103.945 63.9307 103.562C63.8654 103.17 63.7581 102.815 63.6087 102.498C63.4594 102.181 63.2634 101.929 63.0207 101.742C62.7781 101.546 62.4841 101.453 62.1387 101.462C61.7001 101.462 61.3407 101.597 61.0607 101.868C60.7901 102.139 60.5894 102.489 60.4587 102.918C60.3374 103.338 60.2767 103.786 60.2767 104.262C60.2767 104.813 60.3467 105.335 60.4867 105.83C60.6267 106.325 60.8414 106.731 61.1307 107.048C61.4294 107.365 61.8074 107.524 62.2647 107.524ZM69.9941 108.224C69.3315 108.224 68.7341 108.075 68.2021 107.776C67.6701 107.477 67.2455 107.062 66.9281 106.53C66.6201 105.989 66.4661 105.368 66.4661 104.668C66.4661 103.912 66.6201 103.245 66.9281 102.666C67.2455 102.078 67.6701 101.616 68.2021 101.28C68.7341 100.944 69.3268 100.776 69.9801 100.776C70.6428 100.776 71.2401 100.93 71.7721 101.238C72.3041 101.537 72.7241 101.957 73.0321 102.498C73.3495 103.03 73.5081 103.646 73.5081 104.346C73.5081 105.083 73.3541 105.746 73.0461 106.334C72.7381 106.922 72.3181 107.384 71.7861 107.72C71.2635 108.056 70.6661 108.224 69.9941 108.224ZM70.0921 107.524C70.5401 107.515 70.8901 107.375 71.1421 107.104C71.4035 106.833 71.5901 106.488 71.7021 106.068C71.8141 105.639 71.8701 105.195 71.8701 104.738C71.8701 104.337 71.8328 103.945 71.7581 103.562C71.6928 103.17 71.5855 102.815 71.4361 102.498C71.2868 102.181 71.0908 101.929 70.8481 101.742C70.6055 101.546 70.3115 101.453 69.9661 101.462C69.5275 101.462 69.1681 101.597 68.8881 101.868C68.6175 102.139 68.4168 102.489 68.2861 102.918C68.1648 103.338 68.1041 103.786 68.1041 104.262C68.1041 104.813 68.1741 105.335 68.3141 105.83C68.4541 106.325 68.6688 106.731 68.9581 107.048C69.2568 107.365 69.6348 107.524 70.0921 107.524ZM74.1959 108V107.412C74.4759 107.412 74.6672 107.347 74.7699 107.216C74.8819 107.085 74.9472 106.903 74.9659 106.67C74.9939 106.437 75.0079 106.166 75.0079 105.858L75.0219 99.53C75.0219 99.3713 75.0219 99.2127 75.0219 99.054C75.0312 98.886 75.0452 98.7087 75.0639 98.522C74.9052 98.5313 74.7372 98.5407 74.5599 98.55C74.3826 98.55 74.2239 98.5547 74.0839 98.564V97.822C74.4946 97.822 74.8212 97.8033 75.0639 97.766C75.3159 97.7193 75.5119 97.668 75.6519 97.612C75.7919 97.556 75.8899 97.4953 75.9459 97.43H76.4779V103.968H77.0799L78.5499 102.386C78.6992 102.237 78.8299 102.106 78.9419 101.994C79.0539 101.882 79.1659 101.784 79.2779 101.7L78.3959 101.728V101H81.1539V101.574C80.8272 101.611 80.5286 101.709 80.2579 101.868C79.9966 102.017 79.7586 102.19 79.5439 102.386C79.3292 102.582 79.1472 102.764 78.9979 102.932L77.9619 104.024C78.1392 104.108 78.2932 104.215 78.4239 104.346C78.5546 104.467 78.6946 104.626 78.8439 104.822L79.8239 106.082C79.8706 106.138 79.9452 106.241 80.0479 106.39C80.1599 106.53 80.2906 106.679 80.4399 106.838C80.5892 106.997 80.7432 107.132 80.9019 107.244C81.0699 107.356 81.2286 107.412 81.3779 107.412V108H79.9919C79.7212 108 79.4692 107.874 79.2359 107.622C79.0119 107.37 78.7646 107.067 78.4939 106.712C78.2699 106.413 78.0646 106.133 77.8779 105.872C77.6912 105.601 77.5186 105.359 77.3599 105.144C77.2106 104.929 77.0799 104.761 76.9679 104.64L76.4779 104.668V106.264C76.4779 106.432 76.4732 106.605 76.4639 106.782C76.4639 106.95 76.4499 107.123 76.4219 107.3C76.5712 107.291 76.7252 107.286 76.8839 107.286C77.0426 107.277 77.1872 107.267 77.3179 107.258V108H74.1959ZM92.9609 101.322C92.8583 100.482 92.5689 99.838 92.0929 99.39C91.6169 98.9327 90.9963 98.6993 90.2309 98.69C89.7456 98.69 89.2976 98.7973 88.8869 99.012C88.4763 99.2267 88.1216 99.53 87.8229 99.922C87.5243 100.305 87.2909 100.762 87.1229 101.294C86.9643 101.817 86.8849 102.391 86.8849 103.016C86.8849 103.865 87.0343 104.621 87.3329 105.284C87.6316 105.937 88.0423 106.446 88.5649 106.81C89.0969 107.174 89.6989 107.356 90.3709 107.356C90.9683 107.356 91.5563 107.216 92.1349 106.936C92.7229 106.647 93.2083 106.241 93.5909 105.718L94.0529 106.11C93.6329 106.689 93.1849 107.132 92.7089 107.44C92.2329 107.748 91.7569 107.953 91.2809 108.056C90.8143 108.168 90.3896 108.224 90.0069 108.224C89.3069 108.224 88.6629 108.098 88.0749 107.846C87.4869 107.594 86.9783 107.244 86.5489 106.796C86.1289 106.339 85.8023 105.811 85.5689 105.214C85.3449 104.607 85.2329 103.954 85.2329 103.254C85.2329 102.601 85.3356 101.961 85.5409 101.336C85.7463 100.711 86.0496 100.146 86.4509 99.642C86.8523 99.1287 87.3563 98.7227 87.9629 98.424C88.5789 98.1253 89.2929 97.976 90.1049 97.976C90.5809 97.976 91.0429 98.0413 91.4909 98.172C91.9483 98.3027 92.3869 98.5033 92.8069 98.774L92.7369 98.074H93.6049V101.322H92.9609ZM98.1593 108.224C97.4966 108.224 96.8993 108.075 96.3673 107.776C95.8353 107.477 95.4106 107.062 95.0933 106.53C94.7853 105.989 94.6313 105.368 94.6313 104.668C94.6313 103.912 94.7853 103.245 95.0933 102.666C95.4106 102.078 95.8353 101.616 96.3673 101.28C96.8993 100.944 97.492 100.776 98.1453 100.776C98.808 100.776 99.4053 100.93 99.9373 101.238C100.469 101.537 100.889 101.957 101.197 102.498C101.515 103.03 101.673 103.646 101.673 104.346C101.673 105.083 101.519 105.746 101.211 106.334C100.903 106.922 100.483 107.384 99.9513 107.72C99.4286 108.056 98.8313 108.224 98.1593 108.224ZM98.2573 107.524C98.7053 107.515 99.0553 107.375 99.3073 107.104C99.5686 106.833 99.7553 106.488 99.8673 106.068C99.9793 105.639 100.035 105.195 100.035 104.738C100.035 104.337 99.998 103.945 99.9233 103.562C99.858 103.17 99.7506 102.815 99.6013 102.498C99.452 102.181 99.256 101.929 99.0133 101.742C98.7706 101.546 98.4766 101.453 98.1313 101.462C97.6926 101.462 97.3333 101.597 97.0533 101.868C96.7826 102.139 96.582 102.489 96.4513 102.918C96.33 103.338 96.2693 103.786 96.2693 104.262C96.2693 104.813 96.3393 105.335 96.4793 105.83C96.6193 106.325 96.834 106.731 97.1233 107.048C97.422 107.365 97.8 107.524 98.2573 107.524ZM102.529 108V107.412C102.809 107.412 103.005 107.347 103.117 107.216C103.229 107.085 103.294 106.903 103.313 106.67C103.341 106.437 103.355 106.166 103.355 105.858L103.369 102.946C103.369 102.797 103.369 102.638 103.369 102.47C103.378 102.293 103.397 102.12 103.425 101.952C103.257 101.961 103.084 101.971 102.907 101.98C102.739 101.98 102.58 101.985 102.431 101.994V101.252C102.851 101.252 103.177 101.233 103.411 101.196C103.653 101.149 103.835 101.098 103.957 101.042C104.087 100.986 104.185 100.925 104.251 100.86H104.755C104.764 100.944 104.769 101.023 104.769 101.098C104.778 101.173 104.783 101.252 104.783 101.336C104.792 101.42 104.801 101.527 104.811 101.658C105.016 101.49 105.24 101.341 105.483 101.21C105.725 101.079 105.977 100.977 106.239 100.902C106.509 100.818 106.766 100.776 107.009 100.776C107.839 100.776 108.437 101.028 108.801 101.532C109.174 102.036 109.361 102.825 109.361 103.898V106.264C109.361 106.432 109.356 106.605 109.347 106.782C109.337 106.95 109.323 107.123 109.305 107.3C109.454 107.291 109.603 107.286 109.753 107.286C109.911 107.277 110.056 107.267 110.187 107.258V108H107.065V107.412C107.345 107.412 107.541 107.347 107.653 107.216C107.765 107.085 107.83 106.903 107.849 106.67C107.877 106.437 107.891 106.166 107.891 105.858V103.898C107.881 103.161 107.76 102.605 107.527 102.232C107.303 101.859 106.939 101.677 106.435 101.686C106.136 101.686 105.842 101.761 105.553 101.91C105.263 102.059 105.021 102.241 104.825 102.456C104.825 102.549 104.825 102.652 104.825 102.764C104.825 102.867 104.825 102.974 104.825 103.086V106.264C104.825 106.432 104.82 106.605 104.811 106.782C104.801 106.95 104.787 107.123 104.769 107.3C104.918 107.291 105.067 107.286 105.217 107.286C105.375 107.277 105.52 107.267 105.651 107.258V108H102.529ZM113.871 108.224C113.433 108.224 113.027 108.163 112.653 108.042C112.28 107.93 111.981 107.795 111.757 107.636L111.799 108.098H111.057L110.987 105.69H111.575C111.594 106.035 111.701 106.348 111.897 106.628C112.093 106.908 112.345 107.127 112.653 107.286C112.971 107.445 113.311 107.524 113.675 107.524C113.89 107.524 114.1 107.491 114.305 107.426C114.511 107.351 114.683 107.244 114.823 107.104C114.963 106.955 115.033 106.773 115.033 106.558C115.033 106.325 114.959 106.133 114.809 105.984C114.669 105.825 114.473 105.685 114.221 105.564C113.979 105.443 113.699 105.321 113.381 105.2C113.101 105.088 112.817 104.971 112.527 104.85C112.247 104.729 111.986 104.584 111.743 104.416C111.501 104.248 111.309 104.043 111.169 103.8C111.029 103.548 110.959 103.24 110.959 102.876C110.959 102.661 111.001 102.433 111.085 102.19C111.169 101.938 111.305 101.709 111.491 101.504C111.678 101.289 111.93 101.117 112.247 100.986C112.565 100.846 112.957 100.776 113.423 100.776C113.675 100.776 113.955 100.818 114.263 100.902C114.581 100.986 114.875 101.131 115.145 101.336L115.131 100.846H115.873V103.31H115.271C115.243 102.983 115.155 102.68 115.005 102.4C114.865 102.12 114.665 101.891 114.403 101.714C114.142 101.537 113.825 101.448 113.451 101.448C113.087 101.448 112.789 101.541 112.555 101.728C112.331 101.905 112.219 102.129 112.219 102.4C112.219 102.671 112.303 102.89 112.471 103.058C112.649 103.226 112.877 103.371 113.157 103.492C113.437 103.613 113.741 103.735 114.067 103.856C114.459 104.015 114.828 104.187 115.173 104.374C115.519 104.561 115.799 104.794 116.013 105.074C116.228 105.354 116.335 105.709 116.335 106.138C116.335 106.605 116.214 106.997 115.971 107.314C115.738 107.622 115.435 107.851 115.061 108C114.688 108.149 114.291 108.224 113.871 108.224ZM120.126 108.224C119.603 108.224 119.169 108.126 118.824 107.93C118.488 107.734 118.236 107.412 118.068 106.964C117.9 106.507 117.816 105.905 117.816 105.158V102.96C117.816 102.801 117.816 102.638 117.816 102.47C117.825 102.293 117.844 102.12 117.872 101.952C117.713 101.961 117.545 101.971 117.368 101.98C117.19 101.98 117.032 101.985 116.892 101.994V101.252H117.228C117.694 101.252 118.044 101.21 118.278 101.126C118.511 101.042 118.674 100.953 118.768 100.86H119.3V105.13C119.3 105.867 119.402 106.418 119.608 106.782C119.813 107.146 120.158 107.323 120.644 107.314C120.961 107.314 121.264 107.221 121.554 107.034C121.852 106.847 122.095 106.628 122.282 106.376V103.058C122.282 102.853 122.286 102.661 122.296 102.484C122.305 102.297 122.324 102.12 122.352 101.952C122.184 101.961 122.011 101.971 121.834 101.98C121.656 101.98 121.493 101.985 121.344 101.994V101.252H121.75C122.16 101.252 122.482 101.21 122.716 101.126C122.949 101.042 123.117 100.953 123.22 100.86H123.752L123.738 106.012C123.738 106.161 123.733 106.367 123.724 106.628C123.714 106.88 123.7 107.104 123.682 107.3C123.84 107.291 124.004 107.281 124.172 107.272C124.349 107.263 124.512 107.258 124.662 107.258V108H122.436C122.417 107.851 122.398 107.711 122.38 107.58C122.37 107.449 122.356 107.323 122.338 107.202C122.048 107.473 121.712 107.711 121.33 107.916C120.947 108.121 120.546 108.224 120.126 108.224ZM125.187 107.412C125.467 107.412 125.663 107.347 125.775 107.216C125.887 107.085 125.952 106.903 125.971 106.67C125.999 106.437 126.013 106.166 126.013 105.858V99.53C126.013 99.3713 126.013 99.2127 126.013 99.054C126.022 98.886 126.036 98.7087 126.055 98.522C125.896 98.5313 125.728 98.5407 125.551 98.55C125.373 98.55 125.215 98.5547 125.075 98.564V97.822C125.495 97.822 125.826 97.8033 126.069 97.766C126.321 97.7193 126.512 97.668 126.643 97.612C126.783 97.556 126.885 97.4953 126.951 97.43H127.483V106.264C127.483 106.432 127.478 106.605 127.469 106.782C127.459 106.95 127.445 107.123 127.427 107.3C127.576 107.291 127.725 107.286 127.875 107.286C128.033 107.277 128.178 107.267 128.309 107.258V108H125.187V107.412ZM131.727 108.224C131.494 108.224 131.256 108.191 131.013 108.126C130.78 108.07 130.565 107.953 130.369 107.776C130.173 107.589 130.019 107.323 129.907 106.978C129.795 106.633 129.739 106.175 129.739 105.606L129.767 101.784H128.731V101C128.983 100.991 129.24 100.897 129.501 100.72C129.763 100.543 129.991 100.305 130.187 100.006C130.383 99.7073 130.519 99.3853 130.593 99.04H131.251V101H133.407V101.728L131.251 101.756L131.223 105.494C131.223 105.849 131.251 106.161 131.307 106.432C131.373 106.693 131.475 106.899 131.615 107.048C131.765 107.188 131.965 107.258 132.217 107.258C132.432 107.258 132.651 107.193 132.875 107.062C133.109 106.931 133.328 106.717 133.533 106.418L134.009 106.838C133.785 107.165 133.561 107.421 133.337 107.608C133.113 107.795 132.899 107.93 132.693 108.014C132.488 108.107 132.301 108.163 132.133 108.182C131.965 108.21 131.83 108.224 131.727 108.224ZM138.454 108C138.435 107.851 138.421 107.72 138.412 107.608C138.403 107.496 138.389 107.379 138.37 107.258C138.053 107.575 137.712 107.818 137.348 107.986C136.984 108.145 136.606 108.224 136.214 108.224C135.542 108.224 135.033 108.061 134.688 107.734C134.352 107.398 134.184 106.983 134.184 106.488C134.184 106.059 134.31 105.685 134.562 105.368C134.814 105.051 135.145 104.794 135.556 104.598C135.967 104.393 136.415 104.243 136.9 104.15C137.385 104.047 137.861 103.996 138.328 103.996V103.17C138.328 102.871 138.3 102.596 138.244 102.344C138.188 102.083 138.071 101.873 137.894 101.714C137.726 101.546 137.46 101.462 137.096 101.462C136.853 101.453 136.611 101.499 136.368 101.602C136.125 101.695 135.939 101.854 135.808 102.078C135.883 102.153 135.929 102.241 135.948 102.344C135.976 102.437 135.99 102.526 135.99 102.61C135.99 102.741 135.934 102.89 135.822 103.058C135.71 103.217 135.519 103.291 135.248 103.282C135.024 103.282 134.851 103.207 134.73 103.058C134.618 102.899 134.562 102.717 134.562 102.512C134.562 102.176 134.683 101.877 134.926 101.616C135.178 101.355 135.519 101.149 135.948 101C136.377 100.851 136.858 100.776 137.39 100.776C138.193 100.776 138.79 100.986 139.182 101.406C139.583 101.826 139.784 102.489 139.784 103.394C139.784 103.73 139.784 104.052 139.784 104.36C139.784 104.668 139.779 104.976 139.77 105.284C139.77 105.592 139.77 105.919 139.77 106.264C139.77 106.404 139.765 106.563 139.756 106.74C139.747 106.917 139.733 107.104 139.714 107.3C139.873 107.291 140.036 107.281 140.204 107.272C140.372 107.263 140.531 107.258 140.68 107.258V108H138.454ZM138.328 104.64C138.029 104.659 137.721 104.701 137.404 104.766C137.096 104.831 136.816 104.929 136.564 105.06C136.312 105.191 136.107 105.359 135.948 105.564C135.799 105.769 135.724 106.017 135.724 106.306C135.743 106.623 135.845 106.857 136.032 107.006C136.228 107.155 136.457 107.23 136.718 107.23C137.045 107.23 137.334 107.169 137.586 107.048C137.838 106.917 138.085 106.74 138.328 106.516C138.319 106.413 138.314 106.311 138.314 106.208C138.314 106.096 138.314 105.979 138.314 105.858C138.314 105.774 138.314 105.62 138.314 105.396C138.323 105.163 138.328 104.911 138.328 104.64ZM143.896 108.224C143.662 108.224 143.424 108.191 143.182 108.126C142.948 108.07 142.734 107.953 142.538 107.776C142.342 107.589 142.188 107.323 142.076 106.978C141.964 106.633 141.908 106.175 141.908 105.606L141.936 101.784H140.9V101C141.152 100.991 141.408 100.897 141.67 100.72C141.931 100.543 142.16 100.305 142.356 100.006C142.552 99.7073 142.687 99.3853 142.762 99.04H143.42V101H145.576V101.728L143.42 101.756L143.392 105.494C143.392 105.849 143.42 106.161 143.476 106.432C143.541 106.693 143.644 106.899 143.784 107.048C143.933 107.188 144.134 107.258 144.386 107.258C144.6 107.258 144.82 107.193 145.044 107.062C145.277 106.931 145.496 106.717 145.702 106.418L146.178 106.838C145.954 107.165 145.73 107.421 145.506 107.608C145.282 107.795 145.067 107.93 144.862 108.014C144.656 108.107 144.47 108.163 144.302 108.182C144.134 108.21 143.998 108.224 143.896 108.224ZM146.493 107.412C146.773 107.412 146.969 107.347 147.081 107.216C147.193 107.085 147.258 106.903 147.277 106.67C147.305 106.437 147.319 106.166 147.319 105.858V102.96C147.319 102.801 147.323 102.643 147.333 102.484C147.342 102.316 147.356 102.139 147.375 101.952C147.216 101.961 147.048 101.971 146.871 101.98C146.693 101.98 146.53 101.985 146.381 101.994V101.252C146.801 101.252 147.132 101.233 147.375 101.196C147.627 101.149 147.818 101.098 147.949 101.042C148.089 100.986 148.191 100.925 148.257 100.86H148.789V106.264C148.789 106.432 148.784 106.605 148.775 106.782C148.765 106.95 148.751 107.123 148.733 107.3C148.882 107.291 149.031 107.286 149.181 107.286C149.339 107.277 149.484 107.267 149.615 107.258V108H146.493V107.412ZM147.977 99.572C147.734 99.572 147.529 99.4833 147.361 99.306C147.193 99.1193 147.109 98.8953 147.109 98.634C147.109 98.3727 147.197 98.1533 147.375 97.976C147.552 97.7893 147.753 97.696 147.977 97.696C148.219 97.696 148.42 97.7893 148.579 97.976C148.747 98.1533 148.831 98.3727 148.831 98.634C148.831 98.8953 148.747 99.1193 148.579 99.306C148.42 99.4833 148.219 99.572 147.977 99.572ZM153.813 108.224C153.15 108.224 152.553 108.075 152.021 107.776C151.489 107.477 151.064 107.062 150.747 106.53C150.439 105.989 150.285 105.368 150.285 104.668C150.285 103.912 150.439 103.245 150.747 102.666C151.064 102.078 151.489 101.616 152.021 101.28C152.553 100.944 153.146 100.776 153.799 100.776C154.462 100.776 155.059 100.93 155.591 101.238C156.123 101.537 156.543 101.957 156.851 102.498C157.168 103.03 157.327 103.646 157.327 104.346C157.327 105.083 157.173 105.746 156.865 106.334C156.557 106.922 156.137 107.384 155.605 107.72C155.082 108.056 154.485 108.224 153.813 108.224ZM153.911 107.524C154.359 107.515 154.709 107.375 154.961 107.104C155.222 106.833 155.409 106.488 155.521 106.068C155.633 105.639 155.689 105.195 155.689 104.738C155.689 104.337 155.652 103.945 155.577 103.562C155.512 103.17 155.404 102.815 155.255 102.498C155.106 102.181 154.91 101.929 154.667 101.742C154.424 101.546 154.13 101.453 153.785 101.462C153.346 101.462 152.987 101.597 152.707 101.868C152.436 102.139 152.236 102.489 152.105 102.918C151.984 103.338 151.923 103.786 151.923 104.262C151.923 104.813 151.993 105.335 152.133 105.83C152.273 106.325 152.488 106.731 152.777 107.048C153.076 107.365 153.454 107.524 153.911 107.524ZM158.183 108V107.412C158.463 107.412 158.659 107.347 158.771 107.216C158.883 107.085 158.948 106.903 158.967 106.67C158.995 106.437 159.009 106.166 159.009 105.858L159.023 102.946C159.023 102.797 159.023 102.638 159.023 102.47C159.032 102.293 159.051 102.12 159.079 101.952C158.911 101.961 158.738 101.971 158.561 101.98C158.393 101.98 158.234 101.985 158.085 101.994V101.252C158.505 101.252 158.831 101.233 159.065 101.196C159.307 101.149 159.489 101.098 159.611 101.042C159.741 100.986 159.839 100.925 159.905 100.86H160.409C160.418 100.944 160.423 101.023 160.423 101.098C160.432 101.173 160.437 101.252 160.437 101.336C160.446 101.42 160.455 101.527 160.465 101.658C160.67 101.49 160.894 101.341 161.137 101.21C161.379 101.079 161.631 100.977 161.893 100.902C162.163 100.818 162.42 100.776 162.663 100.776C163.493 100.776 164.091 101.028 164.455 101.532C164.828 102.036 165.015 102.825 165.015 103.898V106.264C165.015 106.432 165.01 106.605 165.001 106.782C164.991 106.95 164.977 107.123 164.959 107.3C165.108 107.291 165.257 107.286 165.407 107.286C165.565 107.277 165.71 107.267 165.841 107.258V108H162.719V107.412C162.999 107.412 163.195 107.347 163.307 107.216C163.419 107.085 163.484 106.903 163.503 106.67C163.531 106.437 163.545 106.166 163.545 105.858V103.898C163.535 103.161 163.414 102.605 163.181 102.232C162.957 101.859 162.593 101.677 162.089 101.686C161.79 101.686 161.496 101.761 161.207 101.91C160.917 102.059 160.675 102.241 160.479 102.456C160.479 102.549 160.479 102.652 160.479 102.764C160.479 102.867 160.479 102.974 160.479 103.086V106.264C160.479 106.432 160.474 106.605 160.465 106.782C160.455 106.95 160.441 107.123 160.423 107.3C160.572 107.291 160.721 107.286 160.871 107.286C161.029 107.277 161.174 107.267 161.305 107.258V108H158.183Z" fill="white"/>
<path d="M218 106C218 106 222.419 100 224 100C225.581 100 230 106 230 106" stroke="#5F2900" stroke-width="1.5" stroke-linecap="round" stroke-linejoin="round"/>
<path d="M30.688 157.816H34.592V159H29.232V147.848H30.688V157.816ZM44.1383 154.28C44.1383 154.557 44.1223 154.851 44.0903 155.16H37.0823C37.1356 156.024 37.4289 156.701 37.9623 157.192C38.5063 157.672 39.1623 157.912 39.9303 157.912C40.5596 157.912 41.0823 157.768 41.4983 157.48C41.9249 157.181 42.2236 156.787 42.3943 156.296H43.9623C43.7276 157.139 43.2583 157.827 42.5543 158.36C41.8503 158.883 40.9756 159.144 39.9303 159.144C39.0983 159.144 38.3516 158.957 37.6903 158.584C37.0396 158.211 36.5276 157.683 36.1543 157C35.7809 156.307 35.5943 155.507 35.5943 154.6C35.5943 153.693 35.7756 152.899 36.1383 152.216C36.5009 151.533 37.0076 151.011 37.6583 150.648C38.3196 150.275 39.0769 150.088 39.9303 150.088C40.7623 150.088 41.4983 150.269 42.1383 150.632C42.7783 150.995 43.2689 151.496 43.6103 152.136C43.9623 152.765 44.1383 153.48 44.1383 154.28ZM42.6343 153.976C42.6343 153.421 42.5116 152.947 42.2663 152.552C42.0209 152.147 41.6849 151.843 41.2583 151.64C40.8423 151.427 40.3783 151.32 39.8663 151.32C39.1303 151.32 38.5009 151.555 37.9783 152.024C37.4663 152.493 37.1729 153.144 37.0983 153.976H42.6343ZM49.6761 150.088C50.4335 150.088 51.0948 150.253 51.6601 150.584C52.2361 150.915 52.6628 151.331 52.9401 151.832V150.232H54.4121V159.192C54.4121 159.992 54.2415 160.701 53.9001 161.32C53.5588 161.949 53.0681 162.44 52.4281 162.792C51.7988 163.144 51.0628 163.32 50.2201 163.32C49.0681 163.32 48.1081 163.048 47.3401 162.504C46.5721 161.96 46.1188 161.219 45.9801 160.28H47.4201C47.5801 160.813 47.9108 161.24 48.4121 161.56C48.9135 161.891 49.5161 162.056 50.2201 162.056C51.0201 162.056 51.6708 161.805 52.1721 161.304C52.6841 160.803 52.9401 160.099 52.9401 159.192V157.352C52.6521 157.864 52.2255 158.291 51.6601 158.632C51.0948 158.973 50.4335 159.144 49.6761 159.144C48.8975 159.144 48.1881 158.952 47.5481 158.568C46.9188 158.184 46.4228 157.645 46.0601 156.952C45.6975 156.259 45.5161 155.469 45.5161 154.584C45.5161 153.688 45.6975 152.904 46.0601 152.232C46.4228 151.549 46.9188 151.021 47.5481 150.648C48.1881 150.275 48.8975 150.088 49.6761 150.088ZM52.9401 154.6C52.9401 153.939 52.8068 153.363 52.5401 152.872C52.2735 152.381 51.9108 152.008 51.4521 151.752C51.0041 151.485 50.5081 151.352 49.9641 151.352C49.4201 151.352 48.9241 151.48 48.4761 151.736C48.0281 151.992 47.6708 152.365 47.4041 152.856C47.1375 153.347 47.0041 153.923 47.0041 154.584C47.0041 155.256 47.1375 155.843 47.4041 156.344C47.6708 156.835 48.0281 157.213 48.4761 157.48C48.9241 157.736 49.4201 157.864 49.9641 157.864C50.5081 157.864 51.0041 157.736 51.4521 157.48C51.9108 157.213 52.2735 156.835 52.5401 156.344C52.8068 155.843 52.9401 155.261 52.9401 154.6ZM56.3286 154.584C56.3286 153.688 56.51 152.904 56.8726 152.232C57.2353 151.549 57.7313 151.021 58.3606 150.648C59.0006 150.275 59.71 150.088 60.4886 150.088C61.2566 150.088 61.9233 150.253 62.4886 150.584C63.054 150.915 63.4753 151.331 63.7526 151.832V150.232H65.2246V159H63.7526V157.368C63.4646 157.88 63.0326 158.307 62.4566 158.648C61.8913 158.979 61.23 159.144 60.4726 159.144C59.694 159.144 58.99 158.952 58.3606 158.568C57.7313 158.184 57.2353 157.645 56.8726 156.952C56.51 156.259 56.3286 155.469 56.3286 154.584ZM63.7526 154.6C63.7526 153.939 63.6193 153.363 63.3526 152.872C63.086 152.381 62.7233 152.008 62.2646 151.752C61.8166 151.485 61.3206 151.352 60.7766 151.352C60.2326 151.352 59.7366 151.48 59.2886 151.736C58.8406 151.992 58.4833 152.365 58.2166 152.856C57.95 153.347 57.8166 153.923 57.8166 154.584C57.8166 155.256 57.95 155.843 58.2166 156.344C58.4833 156.835 58.8406 157.213 59.2886 157.48C59.7366 157.736 60.2326 157.864 60.7766 157.864C61.3206 157.864 61.8166 157.736 62.2646 157.48C62.7233 157.213 63.086 156.835 63.3526 156.344C63.6193 155.843 63.7526 155.261 63.7526 154.6ZM69.1411 147.16V159H67.6851V147.16H69.1411ZM75.3443 154.584C75.3443 153.688 75.5256 152.904 75.8883 152.232C76.2509 151.549 76.7469 151.021 77.3763 150.648C78.0163 150.275 78.7256 150.088 79.5043 150.088C80.2723 150.088 80.9389 150.253 81.5043 150.584C82.0696 150.915 82.4909 151.331 82.7683 151.832V150.232H84.2403V159H82.7683V157.368C82.4803 157.88 82.0483 158.307 81.4723 158.648C80.9069 158.979 80.2456 159.144 79.4883 159.144C78.7096 159.144 78.0056 158.952 77.3763 158.568C76.7469 158.184 76.2509 157.645 75.8883 156.952C75.5256 156.259 75.3443 155.469 75.3443 154.584ZM82.7683 154.6C82.7683 153.939 82.6349 153.363 82.3683 152.872C82.1016 152.381 81.7389 152.008 81.2803 151.752C80.8323 151.485 80.3363 151.352 79.7923 151.352C79.2483 151.352 78.7523 151.48 78.3043 151.736C77.8563 151.992 77.4989 152.365 77.2323 152.856C76.9656 153.347 76.8323 153.923 76.8323 154.584C76.8323 155.256 76.9656 155.843 77.2323 156.344C77.4989 156.835 77.8563 157.213 78.3043 157.48C78.7523 157.736 79.2483 157.864 79.7923 157.864C80.3363 157.864 80.8323 157.736 81.2803 157.48C81.7389 157.213 82.1016 156.835 82.3683 156.344C82.6349 155.843 82.7683 155.261 82.7683 154.6ZM90.9728 150.072C92.0394 150.072 92.9034 150.397 93.5648 151.048C94.2261 151.688 94.5568 152.616 94.5568 153.832V159H93.1168V154.04C93.1168 153.165 92.8981 152.499 92.4608 152.04C92.0234 151.571 91.4261 151.336 90.6688 151.336C89.9008 151.336 89.2874 151.576 88.8288 152.056C88.3808 152.536 88.1568 153.235 88.1568 154.152V159H86.7008V150.232H88.1568V151.48C88.4448 151.032 88.8341 150.685 89.3248 150.44C89.8261 150.195 90.3754 150.072 90.9728 150.072ZM96.3911 154.584C96.3911 153.688 96.5725 152.904 96.9351 152.232C97.2978 151.549 97.7938 151.021 98.4231 150.648C99.0631 150.275 99.7778 150.088 100.567 150.088C101.25 150.088 101.884 150.248 102.471 150.568C103.058 150.877 103.506 151.288 103.815 151.8V147.16H105.287V159H103.815V157.352C103.527 157.875 103.1 158.307 102.535 158.648C101.97 158.979 101.308 159.144 100.551 159.144C99.7725 159.144 99.0631 158.952 98.4231 158.568C97.7938 158.184 97.2978 157.645 96.9351 156.952C96.5725 156.259 96.3911 155.469 96.3911 154.584ZM103.815 154.6C103.815 153.939 103.682 153.363 103.415 152.872C103.148 152.381 102.786 152.008 102.327 151.752C101.879 151.485 101.383 151.352 100.839 151.352C100.295 151.352 99.7991 151.48 99.3511 151.736C98.9031 151.992 98.5458 152.365 98.2791 152.856C98.0125 153.347 97.8791 153.923 97.8791 154.584C97.8791 155.256 98.0125 155.843 98.2791 156.344C98.5458 156.835 98.9031 157.213 99.3511 157.48C99.7991 157.736 100.295 157.864 100.839 157.864C101.383 157.864 101.879 157.736 102.327 157.48C102.786 157.213 103.148 156.835 103.415 156.344C103.682 155.843 103.815 155.261 103.815 154.6ZM111.469 154.6C111.469 153.693 111.651 152.904 112.013 152.232C112.376 151.549 112.877 151.021 113.517 150.648C114.168 150.275 114.909 150.088 115.741 150.088C116.819 150.088 117.704 150.349 118.397 150.872C119.101 151.395 119.565 152.12 119.789 153.048H118.221C118.072 152.515 117.779 152.093 117.341 151.784C116.915 151.475 116.381 151.32 115.741 151.32C114.909 151.32 114.237 151.608 113.725 152.184C113.213 152.749 112.957 153.555 112.957 154.6C112.957 155.656 113.213 156.472 113.725 157.048C114.237 157.624 114.909 157.912 115.741 157.912C116.381 157.912 116.915 157.763 117.341 157.464C117.768 157.165 118.061 156.739 118.221 156.184H119.789C119.555 157.08 119.085 157.8 118.381 158.344C117.677 158.877 116.797 159.144 115.741 159.144C114.909 159.144 114.168 158.957 113.517 158.584C112.877 158.211 112.376 157.683 112.013 157C111.651 156.317 111.469 155.517 111.469 154.6ZM125.556 159.144C124.735 159.144 123.988 158.957 123.316 158.584C122.655 158.211 122.132 157.683 121.748 157C121.375 156.307 121.188 155.507 121.188 154.6C121.188 153.704 121.38 152.915 121.764 152.232C122.159 151.539 122.692 151.011 123.364 150.648C124.036 150.275 124.788 150.088 125.62 150.088C126.452 150.088 127.204 150.275 127.876 150.648C128.548 151.011 129.076 151.533 129.46 152.216C129.855 152.899 130.052 153.693 130.052 154.6C130.052 155.507 129.849 156.307 129.444 157C129.049 157.683 128.511 158.211 127.828 158.584C127.145 158.957 126.388 159.144 125.556 159.144ZM125.556 157.864C126.079 157.864 126.569 157.741 127.028 157.496C127.487 157.251 127.855 156.883 128.132 156.392C128.42 155.901 128.564 155.304 128.564 154.6C128.564 153.896 128.425 153.299 128.148 152.808C127.871 152.317 127.508 151.955 127.06 151.72C126.612 151.475 126.127 151.352 125.604 151.352C125.071 151.352 124.58 151.475 124.132 151.72C123.695 151.955 123.343 152.317 123.076 152.808C122.809 153.299 122.676 153.896 122.676 154.6C122.676 155.315 122.804 155.917 123.06 156.408C123.327 156.899 123.679 157.267 124.116 157.512C124.553 157.747 125.033 157.864 125.556 157.864ZM142.51 150.072C143.193 150.072 143.801 150.216 144.334 150.504C144.868 150.781 145.289 151.203 145.598 151.768C145.908 152.333 146.062 153.021 146.062 153.832V159H144.622V154.04C144.622 153.165 144.404 152.499 143.966 152.04C143.54 151.571 142.958 151.336 142.222 151.336C141.465 151.336 140.862 151.581 140.414 152.072C139.966 152.552 139.742 153.251 139.742 154.168V159H138.302V154.04C138.302 153.165 138.084 152.499 137.646 152.04C137.22 151.571 136.638 151.336 135.902 151.336C135.145 151.336 134.542 151.581 134.094 152.072C133.646 152.552 133.422 153.251 133.422 154.168V159H131.966V150.232H133.422V151.496C133.71 151.037 134.094 150.685 134.574 150.44C135.065 150.195 135.604 150.072 136.19 150.072C136.926 150.072 137.577 150.237 138.142 150.568C138.708 150.899 139.129 151.384 139.406 152.024C139.652 151.405 140.057 150.925 140.622 150.584C141.188 150.243 141.817 150.072 142.51 150.072ZM149.907 151.848C150.195 151.347 150.621 150.931 151.187 150.6C151.763 150.259 152.429 150.088 153.187 150.088C153.965 150.088 154.669 150.275 155.299 150.648C155.939 151.021 156.44 151.549 156.803 152.232C157.165 152.904 157.347 153.688 157.347 154.584C157.347 155.469 157.165 156.259 156.803 156.952C156.44 157.645 155.939 158.184 155.299 158.568C154.669 158.952 153.965 159.144 153.187 159.144C152.44 159.144 151.779 158.979 151.203 158.648C150.637 158.307 150.205 157.885 149.907 157.384V163.16H148.451V150.232H149.907V151.848ZM155.859 154.584C155.859 153.923 155.725 153.347 155.459 152.856C155.192 152.365 154.829 151.992 154.371 151.736C153.923 151.48 153.427 151.352 152.883 151.352C152.349 151.352 151.853 151.485 151.395 151.752C150.947 152.008 150.584 152.387 150.307 152.888C150.04 153.379 149.907 153.949 149.907 154.6C149.907 155.261 150.04 155.843 150.307 156.344C150.584 156.835 150.947 157.213 151.395 157.48C151.853 157.736 152.349 157.864 152.883 157.864C153.427 157.864 153.923 157.736 154.371 157.48C154.829 157.213 155.192 156.835 155.459 156.344C155.725 155.843 155.859 155.256 155.859 154.584ZM160.719 147.16V159H159.263V147.16H160.719ZM163.953 148.808C163.675 148.808 163.441 148.712 163.249 148.52C163.057 148.328 162.961 148.093 162.961 147.816C162.961 147.539 163.057 147.304 163.249 147.112C163.441 146.92 163.675 146.824 163.953 146.824C164.219 146.824 164.443 146.92 164.625 147.112C164.817 147.304 164.913 147.539 164.913 147.816C164.913 148.093 164.817 148.328 164.625 148.52C164.443 148.712 164.219 148.808 163.953 148.808ZM164.657 150.232V159H163.201V150.232H164.657ZM166.594 154.584C166.594 153.688 166.776 152.904 167.138 152.232C167.501 151.549 167.997 151.021 168.626 150.648C169.266 150.275 169.976 150.088 170.754 150.088C171.522 150.088 172.189 150.253 172.754 150.584C173.32 150.915 173.741 151.331 174.018 151.832V150.232H175.49V159H174.018V157.368C173.73 157.88 173.298 158.307 172.722 158.648C172.157 158.979 171.496 159.144 170.738 159.144C169.96 159.144 169.256 158.952 168.626 158.568C167.997 158.184 167.501 157.645 167.138 156.952C166.776 156.259 166.594 155.469 166.594 154.584ZM174.018 154.6C174.018 153.939 173.885 153.363 173.618 152.872C173.352 152.381 172.989 152.008 172.53 151.752C172.082 151.485 171.586 151.352 171.042 151.352C170.498 151.352 170.002 151.48 169.554 151.736C169.106 151.992 168.749 152.365 168.482 152.856C168.216 153.347 168.082 153.923 168.082 154.584C168.082 155.256 168.216 155.843 168.482 156.344C168.749 156.835 169.106 157.213 169.554 157.48C170.002 157.736 170.498 157.864 171.042 157.864C171.586 157.864 172.082 157.736 172.53 157.48C172.989 157.213 173.352 156.835 173.618 156.344C173.885 155.843 174.018 155.261 174.018 154.6ZM182.223 150.072C183.289 150.072 184.153 150.397 184.815 151.048C185.476 151.688 185.807 152.616 185.807 153.832V159H184.367V154.04C184.367 153.165 184.148 152.499 183.711 152.04C183.273 151.571 182.676 151.336 181.919 151.336C181.151 151.336 180.537 151.576 180.079 152.056C179.631 152.536 179.407 153.235 179.407 154.152V159H177.951V150.232H179.407V151.48C179.695 151.032 180.084 150.685 180.575 150.44C181.076 150.195 181.625 150.072 182.223 150.072ZM187.641 154.6C187.641 153.693 187.822 152.904 188.185 152.232C188.548 151.549 189.049 151.021 189.689 150.648C190.34 150.275 191.081 150.088 191.913 150.088C192.99 150.088 193.876 150.349 194.569 150.872C195.273 151.395 195.737 152.12 195.961 153.048H194.393C194.244 152.515 193.95 152.093 193.513 151.784C193.086 151.475 192.553 151.32 191.913 151.32C191.081 151.32 190.409 151.608 189.897 152.184C189.385 152.749 189.129 153.555 189.129 154.6C189.129 155.656 189.385 156.472 189.897 157.048C190.409 157.624 191.081 157.912 191.913 157.912C192.553 157.912 193.086 157.763 193.513 157.464C193.94 157.165 194.233 156.739 194.393 156.184H195.961C195.726 157.08 195.257 157.8 194.553 158.344C193.849 158.877 192.969 159.144 191.913 159.144C191.081 159.144 190.34 158.957 189.689 158.584C189.049 158.211 188.548 157.683 188.185 157C187.822 156.317 187.641 155.517 187.641 154.6ZM205.904 154.28C205.904 154.557 205.888 154.851 205.856 155.16H198.848C198.901 156.024 199.195 156.701 199.728 157.192C200.272 157.672 200.928 157.912 201.696 157.912C202.325 157.912 202.848 157.768 203.264 157.48C203.691 157.181 203.989 156.787 204.16 156.296H205.728C205.493 157.139 205.024 157.827 204.32 158.36C203.616 158.883 202.741 159.144 201.696 159.144C200.864 159.144 200.117 158.957 199.456 158.584C198.805 158.211 198.293 157.683 197.92 157C197.547 156.307 197.36 155.507 197.36 154.6C197.36 153.693 197.541 152.899 197.904 152.216C198.267 151.533 198.773 151.011 199.424 150.648C200.085 150.275 200.843 150.088 201.696 150.088C202.528 150.088 203.264 150.269 203.904 150.632C204.544 150.995 205.035 151.496 205.376 152.136C205.728 152.765 205.904 153.48 205.904 154.28ZM204.4 153.976C204.4 153.421 204.277 152.947 204.032 152.552C203.787 152.147 203.451 151.843 203.024 151.64C202.608 151.427 202.144 151.32 201.632 151.32C200.896 151.32 200.267 151.555 199.744 152.024C199.232 152.493 198.939 153.144 198.864 153.976H204.4Z" fill="#625347"/>
</svg>
