<svg width="1496" height="130" viewBox="0 0 1496 130" fill="none" xmlns="http://www.w3.org/2000/svg">
<g filter="url(#filter0_d_438_1230)">
<rect width="1440" height="74" transform="translate(28 24)" fill="url(#paint0_linear_438_1230)" fill-opacity="0.3"/>
<path d="M148.1 62V60.548C148.437 60.5333 148.716 60.4893 148.936 60.416C149.171 60.3427 149.347 60.174 149.464 59.91C149.596 59.646 149.662 59.2207 149.662 58.634V50.208C149.662 49.812 149.669 49.4307 149.684 49.064C149.713 48.6973 149.735 48.4187 149.75 48.228C149.515 48.2427 149.222 48.2573 148.87 48.272C148.518 48.272 148.261 48.2793 148.1 48.294V46.6H154.414V48.052C154.091 48.0667 153.813 48.1107 153.578 48.184C153.343 48.2573 153.16 48.426 153.028 48.69C152.911 48.9393 152.852 49.3647 152.852 49.966V58.392C152.852 58.788 152.845 59.162 152.83 59.514C152.815 59.866 152.793 60.1373 152.764 60.328H155.712C156.577 60.328 157.252 60.0273 157.736 59.426C158.235 58.8247 158.484 57.9227 158.484 56.72H159.958L159.826 62H148.1ZM167.317 62C167.287 61.7947 167.265 61.626 167.251 61.494C167.251 61.3473 167.243 61.1787 167.229 60.988C166.73 61.4867 166.202 61.8387 165.645 62.044C165.087 62.2493 164.523 62.352 163.951 62.352C163.012 62.352 162.279 62.0733 161.751 61.516C161.223 60.9587 160.959 60.262 160.959 59.426C160.959 58.722 161.135 58.1207 161.487 57.622C161.853 57.1233 162.33 56.72 162.917 56.412C163.518 56.0893 164.178 55.8473 164.897 55.686C165.63 55.51 166.363 55.4073 167.097 55.378V54.234C167.097 53.8527 167.045 53.508 166.943 53.2C166.855 52.892 166.693 52.65 166.459 52.474C166.239 52.298 165.923 52.2173 165.513 52.232C165.234 52.2467 164.963 52.3053 164.699 52.408C164.435 52.5107 164.207 52.6573 164.017 52.848C164.134 52.98 164.207 53.1267 164.237 53.288C164.266 53.4347 164.281 53.5667 164.281 53.684C164.281 53.9773 164.163 54.2853 163.929 54.608C163.694 54.916 163.32 55.0627 162.807 55.048C162.367 55.0333 162.029 54.8793 161.795 54.586C161.56 54.2927 161.443 53.948 161.443 53.552C161.443 52.9653 161.648 52.4593 162.059 52.034C162.484 51.594 163.049 51.2567 163.753 51.022C164.457 50.7727 165.234 50.648 166.085 50.648C167.375 50.648 168.373 50.9853 169.077 51.66C169.795 52.32 170.155 53.3833 170.155 54.85C170.155 55.3487 170.155 55.774 170.155 56.126C170.155 56.478 170.147 56.83 170.133 57.182C170.133 57.534 170.133 57.9593 170.133 58.458C170.133 58.6633 170.125 58.9567 170.111 59.338C170.096 59.7047 170.074 60.0567 170.045 60.394C170.294 60.3647 170.558 60.35 170.837 60.35C171.115 60.3353 171.328 60.328 171.475 60.328V62H167.317ZM167.075 56.94C166.664 56.984 166.275 57.0573 165.909 57.16C165.542 57.2627 165.219 57.402 164.941 57.578C164.677 57.754 164.464 57.9667 164.303 58.216C164.156 58.4653 164.083 58.744 164.083 59.052C164.097 59.4627 164.229 59.756 164.479 59.932C164.728 60.108 165.014 60.196 165.337 60.196C165.674 60.196 165.989 60.1227 166.283 59.976C166.576 59.8293 166.84 59.6387 167.075 59.404C167.075 59.2573 167.075 59.118 167.075 58.986C167.075 58.8393 167.075 58.6927 167.075 58.546C167.075 58.282 167.075 58.018 167.075 57.754C167.075 57.4753 167.075 57.204 167.075 56.94ZM175.824 62.066L173.162 54.432C173.03 54.0507 172.927 53.7647 172.854 53.574C172.795 53.3833 172.751 53.222 172.722 53.09C172.693 52.958 172.656 52.804 172.612 52.628L171.754 52.672V51H177.034V52.408C176.579 52.4227 176.315 52.5987 176.242 52.936C176.169 53.2733 176.191 53.6693 176.308 54.124L177.056 56.808C177.144 57.1307 177.225 57.4753 177.298 57.842C177.386 58.194 177.459 58.546 177.518 58.898C177.591 58.59 177.665 58.2527 177.738 57.886C177.826 57.5193 177.951 57.0647 178.112 56.522L179.718 51H182.116L183.876 57.072C183.964 57.38 184.052 57.7173 184.14 58.084C184.243 58.436 184.331 58.7587 184.404 59.052C184.463 58.7587 184.543 58.436 184.646 58.084C184.749 57.732 184.844 57.4167 184.932 57.138L185.79 54.344C185.907 53.948 186.01 53.6253 186.098 53.376C186.186 53.112 186.296 52.848 186.428 52.584L185.174 52.672V51H189.354V52.408C189.061 52.408 188.804 52.5033 188.584 52.694C188.364 52.8847 188.166 53.1193 187.99 53.398C187.829 53.662 187.697 53.926 187.594 54.19C187.491 54.4393 187.418 54.6373 187.374 54.784L184.866 62.066H182.534L181.016 57.38C180.972 57.2187 180.899 56.984 180.796 56.676C180.708 56.368 180.613 56.038 180.51 55.686C180.422 55.3193 180.334 54.982 180.246 54.674C180.173 55.0847 180.063 55.554 179.916 56.082C179.769 56.61 179.63 57.094 179.498 57.534C179.366 57.974 179.271 58.2747 179.212 58.436L178.002 62.066H175.824ZM192.666 67.962C192.109 67.962 191.632 67.7933 191.236 67.456C190.855 67.1333 190.664 66.7007 190.664 66.158C190.664 65.762 190.789 65.41 191.038 65.102C191.302 64.8087 191.639 64.6547 192.05 64.64C192.373 64.6253 192.644 64.728 192.864 64.948C193.099 65.1827 193.216 65.498 193.216 65.894C193.216 65.938 193.216 65.982 193.216 66.026C193.216 66.07 193.209 66.1213 193.194 66.18C193.223 66.18 193.26 66.1727 193.304 66.158C193.436 66.114 193.575 65.9893 193.722 65.784C193.883 65.5933 194.037 65.3367 194.184 65.014C194.345 64.6767 194.499 64.2953 194.646 63.87C194.807 63.4593 194.947 63.0267 195.064 62.572L191.588 55.598C191.177 54.7767 190.906 54.1607 190.774 53.75C190.657 53.3247 190.576 52.9507 190.532 52.628L189.52 52.672V51H194.998V52.408C194.455 52.4667 194.155 52.672 194.096 53.024C194.052 53.376 194.118 53.7427 194.294 54.124L196.45 59.052C196.597 58.6707 196.787 58.084 197.022 57.292C197.257 56.4853 197.535 55.6127 197.858 54.674C197.917 54.4833 197.99 54.2633 198.078 54.014C198.181 53.75 198.291 53.4933 198.408 53.244C198.525 52.98 198.65 52.7673 198.782 52.606L197.528 52.672V51H201.444V52.408C200.989 52.5107 200.608 52.7893 200.3 53.244C200.007 53.6987 199.743 54.256 199.508 54.916L196.758 62.77C196.347 63.958 195.959 64.9333 195.592 65.696C195.225 66.4733 194.815 67.0453 194.36 67.412C193.905 67.7787 193.341 67.962 192.666 67.962ZM207.45 62.352C206.379 62.352 205.433 62.1173 204.612 61.648C203.791 61.164 203.153 60.4893 202.698 59.624C202.243 58.744 202.016 57.71 202.016 56.522C202.016 55.4953 202.243 54.5347 202.698 53.64C203.153 52.7453 203.791 52.0267 204.612 51.484C205.448 50.9267 206.416 50.648 207.516 50.648C208.132 50.648 208.733 50.736 209.32 50.912C209.907 51.0733 210.435 51.3593 210.904 51.77C211.388 52.1807 211.769 52.738 212.048 53.442C212.341 54.146 212.481 55.026 212.466 56.082L205.25 56.214C205.25 57.006 205.345 57.7173 205.536 58.348C205.741 58.9787 206.071 59.4773 206.526 59.844C206.981 60.2107 207.589 60.394 208.352 60.394C208.645 60.394 208.975 60.3427 209.342 60.24C209.723 60.1373 210.105 59.9687 210.486 59.734C210.882 59.4847 211.249 59.1547 211.586 58.744L212.576 59.668C212.048 60.416 211.483 60.988 210.882 61.384C210.281 61.7653 209.679 62.022 209.078 62.154C208.491 62.286 207.949 62.352 207.45 62.352ZM205.382 54.674H209.43C209.415 54.058 209.327 53.574 209.166 53.222C209.019 52.8553 208.814 52.5913 208.55 52.43C208.286 52.2687 207.978 52.188 207.626 52.188C206.981 52.188 206.475 52.4227 206.108 52.892C205.741 53.3467 205.499 53.9407 205.382 54.674ZM214.074 60.57C214.485 60.57 214.778 60.4893 214.954 60.328C215.13 60.1667 215.24 59.9393 215.284 59.646C215.343 59.338 215.372 58.9933 215.372 58.612V54.916C215.372 54.652 215.379 54.3587 215.394 54.036C215.409 53.6987 215.431 53.3687 215.46 53.046C215.225 53.0607 214.947 53.0753 214.624 53.09C214.316 53.09 214.081 53.0973 213.92 53.112V51.44H214.8C215.372 51.44 215.893 51.3667 216.362 51.22C216.846 51.0733 217.161 50.9267 217.308 50.78H218.386C218.415 50.9267 218.437 51.2053 218.452 51.616C218.467 52.012 218.474 52.364 218.474 52.672C218.87 52.188 219.244 51.7993 219.596 51.506C219.948 51.2127 220.293 51 220.63 50.868C220.982 50.7213 221.334 50.648 221.686 50.648C222.199 50.648 222.647 50.7947 223.028 51.088C223.409 51.3667 223.6 51.8287 223.6 52.474C223.6 52.694 223.549 52.9287 223.446 53.178C223.343 53.4127 223.182 53.6107 222.962 53.772C222.742 53.9333 222.441 54.014 222.06 54.014C221.767 54.014 221.466 53.926 221.158 53.75C220.85 53.574 220.674 53.2367 220.63 52.738C220.337 52.738 220.043 52.8627 219.75 53.112C219.457 53.3467 219.193 53.6327 218.958 53.97C218.738 54.2927 218.584 54.5933 218.496 54.872V58.458C218.496 58.6633 218.489 58.9567 218.474 59.338C218.459 59.7047 218.437 60.0567 218.408 60.394C218.643 60.3647 218.899 60.35 219.178 60.35C219.471 60.3353 219.691 60.328 219.838 60.328V62H214.074V60.57ZM224.026 62V60.548C224.363 60.5333 224.642 60.4893 224.862 60.416C225.096 60.3427 225.272 60.174 225.39 59.91C225.522 59.646 225.588 59.2207 225.588 58.634V50.208C225.588 49.812 225.595 49.4307 225.61 49.064C225.639 48.6973 225.661 48.4187 225.676 48.228C225.441 48.2427 225.148 48.2573 224.796 48.272C224.444 48.272 224.187 48.2793 224.026 48.294V46.6H235.026L235.158 50.868H233.706C233.706 50.0613 233.566 49.4527 233.288 49.042C233.009 48.6313 232.664 48.36 232.254 48.228C231.843 48.0813 231.44 48.0153 231.044 48.03L230.252 48.052C229.944 48.052 229.68 48.096 229.46 48.184C229.24 48.2573 229.071 48.4333 228.954 48.712C228.836 48.976 228.778 49.394 228.778 49.966V53.794H231.044L230.956 51.902H232.65V57.248H231.198C231.198 56.632 231.102 56.1847 230.912 55.906C230.721 55.6273 230.457 55.4587 230.12 55.4C229.797 55.3267 229.438 55.2973 229.042 55.312H228.778V58.392C228.778 58.788 228.77 59.1693 228.756 59.536C228.741 59.9027 228.719 60.1813 228.69 60.372C228.851 60.3573 229.064 60.35 229.328 60.35C229.592 60.3353 229.848 60.328 230.098 60.328C230.362 60.3133 230.545 60.306 230.648 60.306V62H224.026ZM240.862 62.352C239.806 62.352 238.853 62.1247 238.002 61.67C237.152 61.2153 236.477 60.57 235.978 59.734C235.494 58.8833 235.252 57.886 235.252 56.742C235.252 55.5247 235.502 54.4613 236 53.552C236.514 52.628 237.188 51.9167 238.024 51.418C238.875 50.9047 239.799 50.648 240.796 50.648C241.852 50.648 242.798 50.8753 243.634 51.33C244.47 51.7847 245.13 52.4373 245.614 53.288C246.098 54.124 246.34 55.1287 246.34 56.302C246.34 57.534 246.106 58.6047 245.636 59.514C245.167 60.4233 244.522 61.1273 243.7 61.626C242.879 62.11 241.933 62.352 240.862 62.352ZM240.95 60.79C241.537 60.7753 241.977 60.57 242.27 60.174C242.578 59.778 242.791 59.2793 242.908 58.678C243.026 58.0767 243.084 57.468 243.084 56.852C243.084 56.3093 243.04 55.7593 242.952 55.202C242.879 54.6447 242.754 54.1387 242.578 53.684C242.402 53.2293 242.16 52.8627 241.852 52.584C241.559 52.3053 241.192 52.1733 240.752 52.188C240.18 52.2027 239.726 52.408 239.388 52.804C239.066 53.2 238.831 53.6987 238.684 54.3C238.552 54.8867 238.486 55.5027 238.486 56.148C238.486 56.896 238.567 57.6293 238.728 58.348C238.89 59.0667 239.146 59.6607 239.498 60.13C239.865 60.5847 240.349 60.8047 240.95 60.79ZM247.933 60.57C248.344 60.57 248.637 60.4893 248.813 60.328C248.989 60.1667 249.099 59.9393 249.143 59.646C249.202 59.338 249.231 58.9933 249.231 58.612V54.916C249.231 54.652 249.239 54.3587 249.253 54.036C249.268 53.6987 249.29 53.3687 249.319 53.046C249.085 53.0607 248.806 53.0753 248.483 53.09C248.175 53.09 247.941 53.0973 247.779 53.112V51.44H248.659C249.231 51.44 249.752 51.3667 250.221 51.22C250.705 51.0733 251.021 50.9267 251.167 50.78H252.245C252.275 50.9267 252.297 51.2053 252.311 51.616C252.326 52.012 252.333 52.364 252.333 52.672C252.729 52.188 253.103 51.7993 253.455 51.506C253.807 51.2127 254.152 51 254.489 50.868C254.841 50.7213 255.193 50.648 255.545 50.648C256.059 50.648 256.506 50.7947 256.887 51.088C257.269 51.3667 257.459 51.8287 257.459 52.474C257.459 52.694 257.408 52.9287 257.305 53.178C257.203 53.4127 257.041 53.6107 256.821 53.772C256.601 53.9333 256.301 54.014 255.919 54.014C255.626 54.014 255.325 53.926 255.017 53.75C254.709 53.574 254.533 53.2367 254.489 52.738C254.196 52.738 253.903 52.8627 253.609 53.112C253.316 53.3467 253.052 53.6327 252.817 53.97C252.597 54.2927 252.443 54.5933 252.355 54.872V58.458C252.355 58.6633 252.348 58.9567 252.333 59.338C252.319 59.7047 252.297 60.0567 252.267 60.394C252.502 60.3647 252.759 60.35 253.037 60.35C253.331 60.3353 253.551 60.328 253.697 60.328V62H247.933V60.57ZM263.761 62.132L258.701 50.318C258.554 49.9513 258.415 49.57 258.283 49.174C258.151 48.778 258.085 48.4627 258.085 48.228C257.85 48.2427 257.63 48.2573 257.425 48.272C257.234 48.272 257.058 48.2793 256.897 48.294V46.6H263.387V48.052C262.844 48.0373 262.426 48.1547 262.133 48.404C261.854 48.6533 261.847 49.1007 262.111 49.746C262.448 50.5673 262.785 51.396 263.123 52.232C263.46 53.068 263.797 53.8967 264.135 54.718C264.384 55.334 264.597 55.8767 264.773 56.346C264.949 56.8007 265.154 57.3067 265.389 57.864H265.411C265.572 57.424 265.741 56.9327 265.917 56.39C266.107 55.8473 266.291 55.3267 266.467 54.828C266.657 54.3147 266.841 53.8013 267.017 53.288C267.207 52.7747 267.398 52.2687 267.589 51.77C267.779 51.2567 267.963 50.7433 268.139 50.23C268.212 49.9807 268.329 49.6433 268.491 49.218C268.667 48.7927 268.85 48.4627 269.041 48.228C268.806 48.2427 268.505 48.2573 268.139 48.272C267.772 48.272 267.508 48.2793 267.347 48.294V46.6H272.297V48.052C271.798 48.0667 271.365 48.25 270.999 48.602C270.632 48.954 270.287 49.5553 269.965 50.406C269.715 51.0513 269.466 51.704 269.217 52.364C268.982 53.0093 268.74 53.662 268.491 54.322C268.256 54.9673 268.014 55.62 267.765 56.28C267.515 56.9253 267.266 57.578 267.017 58.238C266.782 58.8833 266.54 59.5287 266.291 60.174C266.056 60.8193 265.814 61.472 265.565 62.132H263.761ZM272.64 60.57C273.051 60.57 273.344 60.4893 273.52 60.328C273.696 60.1667 273.806 59.9393 273.85 59.646C273.909 59.338 273.938 58.9933 273.938 58.612V54.96C273.938 54.696 273.946 54.3953 273.96 54.058C273.975 53.706 273.997 53.3687 274.026 53.046C273.792 53.0607 273.513 53.0753 273.19 53.09C272.882 53.09 272.648 53.0973 272.486 53.112V51.44C273.161 51.44 273.733 51.4033 274.202 51.33C274.672 51.2567 275.038 51.1687 275.302 51.066C275.581 50.9633 275.772 50.868 275.874 50.78H277.062V58.458C277.062 58.6633 277.055 58.9567 277.04 59.338C277.026 59.7047 277.004 60.0567 276.974 60.394C277.209 60.3647 277.466 60.35 277.744 60.35C278.038 60.3353 278.258 60.328 278.404 60.328V62H272.64V60.57ZM275.39 49.042C274.892 49.042 274.481 48.866 274.158 48.514C273.836 48.162 273.674 47.7367 273.674 47.238C273.674 46.7393 273.843 46.314 274.18 45.962C274.518 45.61 274.914 45.434 275.368 45.434C275.838 45.434 276.226 45.61 276.534 45.962C276.857 46.314 277.018 46.7393 277.018 47.238C277.018 47.7367 276.872 48.162 276.578 48.514C276.285 48.866 275.889 49.042 275.39 49.042ZM284.898 62.352C284.267 62.352 283.651 62.2713 283.05 62.11C282.448 61.9487 281.979 61.7433 281.642 61.494L281.686 62.154H280.014L279.926 58.37H281.356C281.4 58.81 281.576 59.2133 281.884 59.58C282.192 59.9467 282.595 60.24 283.094 60.46C283.592 60.6653 284.15 60.768 284.766 60.768C285.015 60.768 285.25 60.7313 285.47 60.658C285.704 60.5847 285.895 60.4673 286.042 60.306C286.203 60.13 286.284 59.9173 286.284 59.668C286.284 59.3893 286.181 59.162 285.976 58.986C285.785 58.81 285.499 58.6413 285.118 58.48C284.751 58.3187 284.289 58.1353 283.732 57.93C283.277 57.754 282.815 57.5707 282.346 57.38C281.891 57.1893 281.466 56.962 281.07 56.698C280.688 56.4193 280.38 56.082 280.146 55.686C279.911 55.2753 279.794 54.7767 279.794 54.19C279.794 53.7647 279.874 53.3467 280.036 52.936C280.197 52.5107 280.446 52.1293 280.784 51.792C281.121 51.44 281.546 51.1613 282.06 50.956C282.588 50.7507 283.211 50.648 283.93 50.648C284.326 50.648 284.773 50.714 285.272 50.846C285.785 50.9633 286.218 51.1467 286.57 51.396V50.758H288.242V54.652H286.812C286.724 54.1387 286.54 53.6987 286.262 53.332C285.998 52.9653 285.653 52.6867 285.228 52.496C284.802 52.2907 284.326 52.188 283.798 52.188C283.431 52.188 283.094 52.276 282.786 52.452C282.492 52.628 282.346 52.9287 282.346 53.354C282.346 53.6913 282.463 53.9627 282.698 54.168C282.932 54.3587 283.255 54.52 283.666 54.652C284.076 54.784 284.531 54.938 285.03 55.114C285.778 55.3633 286.438 55.6567 287.01 55.994C287.596 56.3313 288.058 56.742 288.396 57.226C288.733 57.6953 288.902 58.2747 288.902 58.964C288.902 59.7267 288.711 60.3573 288.33 60.856C287.948 61.3547 287.45 61.7287 286.834 61.978C286.232 62.2273 285.587 62.352 284.898 62.352ZM296.631 62C296.602 61.7947 296.58 61.626 296.565 61.494C296.565 61.3473 296.558 61.1787 296.543 60.988C296.045 61.4867 295.517 61.8387 294.959 62.044C294.402 62.2493 293.837 62.352 293.265 62.352C292.327 62.352 291.593 62.0733 291.065 61.516C290.537 60.9587 290.273 60.262 290.273 59.426C290.273 58.722 290.449 58.1207 290.801 57.622C291.168 57.1233 291.645 56.72 292.231 56.412C292.833 56.0893 293.493 55.8473 294.211 55.686C294.945 55.51 295.678 55.4073 296.411 55.378V54.234C296.411 53.8527 296.36 53.508 296.257 53.2C296.169 52.892 296.008 52.65 295.773 52.474C295.553 52.298 295.238 52.2173 294.827 52.232C294.549 52.2467 294.277 52.3053 294.013 52.408C293.749 52.5107 293.522 52.6573 293.331 52.848C293.449 52.98 293.522 53.1267 293.551 53.288C293.581 53.4347 293.595 53.5667 293.595 53.684C293.595 53.9773 293.478 54.2853 293.243 54.608C293.009 54.916 292.635 55.0627 292.121 55.048C291.681 55.0333 291.344 54.8793 291.109 54.586C290.875 54.2927 290.757 53.948 290.757 53.552C290.757 52.9653 290.963 52.4593 291.373 52.034C291.799 51.594 292.363 51.2567 293.067 51.022C293.771 50.7727 294.549 50.648 295.399 50.648C296.69 50.648 297.687 50.9853 298.391 51.66C299.11 52.32 299.469 53.3833 299.469 54.85C299.469 55.3487 299.469 55.774 299.469 56.126C299.469 56.478 299.462 56.83 299.447 57.182C299.447 57.534 299.447 57.9593 299.447 58.458C299.447 58.6633 299.44 58.9567 299.425 59.338C299.411 59.7047 299.389 60.0567 299.359 60.394C299.609 60.3647 299.873 60.35 300.151 60.35C300.43 60.3353 300.643 60.328 300.789 60.328V62H296.631ZM296.389 56.94C295.979 56.984 295.59 57.0573 295.223 57.16C294.857 57.2627 294.534 57.402 294.255 57.578C293.991 57.754 293.779 57.9667 293.617 58.216C293.471 58.4653 293.397 58.744 293.397 59.052C293.412 59.4627 293.544 59.756 293.793 59.932C294.043 60.108 294.329 60.196 294.651 60.196C294.989 60.196 295.304 60.1227 295.597 59.976C295.891 59.8293 296.155 59.6387 296.389 59.404C296.389 59.2573 296.389 59.118 296.389 58.986C296.389 58.8393 296.389 58.6927 296.389 58.546C296.389 58.282 296.389 58.018 296.389 57.754C296.389 57.4753 296.389 57.204 296.389 56.94Z" fill="#5F2900"/>
<path d="M475.324 63.02H470.46L469.564 65.5H468.028L472.06 54.412H473.74L477.756 65.5H476.22L475.324 63.02ZM474.908 61.836L472.892 56.204L470.876 61.836H474.908ZM480.969 58.364C481.268 57.8413 481.705 57.4147 482.281 57.084C482.857 56.7533 483.513 56.588 484.249 56.588C485.039 56.588 485.748 56.7747 486.377 57.148C487.007 57.5213 487.503 58.0493 487.865 58.732C488.228 59.404 488.409 60.188 488.409 61.084C488.409 61.9693 488.228 62.7587 487.865 63.452C487.503 64.1453 487.001 64.684 486.361 65.068C485.732 65.452 485.028 65.644 484.249 65.644C483.492 65.644 482.825 65.4787 482.249 65.148C481.684 64.8173 481.257 64.396 480.969 63.884V65.5H479.513V53.66H480.969V58.364ZM486.921 61.084C486.921 60.4227 486.788 59.8467 486.521 59.356C486.255 58.8653 485.892 58.492 485.433 58.236C484.985 57.98 484.489 57.852 483.945 57.852C483.412 57.852 482.916 57.9853 482.457 58.252C482.009 58.508 481.647 58.8867 481.369 59.388C481.103 59.8787 480.969 60.4493 480.969 61.1C480.969 61.7613 481.103 62.3427 481.369 62.844C481.647 63.3347 482.009 63.7133 482.457 63.98C482.916 64.236 483.412 64.364 483.945 64.364C484.489 64.364 484.985 64.236 485.433 63.98C485.892 63.7133 486.255 63.3347 486.521 62.844C486.788 62.3427 486.921 61.756 486.921 61.084ZM494.15 65.644C493.328 65.644 492.582 65.4573 491.91 65.084C491.248 64.7107 490.726 64.1827 490.342 63.5C489.968 62.8067 489.782 62.0067 489.782 61.1C489.782 60.204 489.974 59.4147 490.358 58.732C490.752 58.0387 491.286 57.5107 491.958 57.148C492.63 56.7747 493.382 56.588 494.214 56.588C495.046 56.588 495.798 56.7747 496.47 57.148C497.142 57.5107 497.67 58.0333 498.054 58.716C498.448 59.3987 498.646 60.1933 498.646 61.1C498.646 62.0067 498.443 62.8067 498.038 63.5C497.643 64.1827 497.104 64.7107 496.422 65.084C495.739 65.4573 494.982 65.644 494.15 65.644ZM494.15 64.364C494.672 64.364 495.163 64.2413 495.622 63.996C496.08 63.7507 496.448 63.3827 496.726 62.892C497.014 62.4013 497.158 61.804 497.158 61.1C497.158 60.396 497.019 59.7987 496.742 59.308C496.464 58.8173 496.102 58.4547 495.654 58.22C495.206 57.9747 494.72 57.852 494.198 57.852C493.664 57.852 493.174 57.9747 492.726 58.22C492.288 58.4547 491.936 58.8173 491.67 59.308C491.403 59.7987 491.27 60.396 491.27 61.1C491.27 61.8147 491.398 62.4173 491.654 62.908C491.92 63.3987 492.272 63.7667 492.71 64.012C493.147 64.2467 493.627 64.364 494.15 64.364ZM508.336 56.732V65.5H506.88V64.204C506.603 64.652 506.213 65.004 505.712 65.26C505.221 65.5053 504.677 65.628 504.08 65.628C503.397 65.628 502.784 65.4893 502.24 65.212C501.696 64.924 501.264 64.4973 500.944 63.932C500.635 63.3667 500.48 62.6787 500.48 61.868V56.732H501.92V61.676C501.92 62.54 502.139 63.2067 502.576 63.676C503.013 64.1347 503.611 64.364 504.368 64.364C505.147 64.364 505.76 64.124 506.208 63.644C506.656 63.164 506.88 62.4653 506.88 61.548V56.732H508.336ZM512.571 57.932V63.1C512.571 63.5267 512.661 63.8307 512.843 64.012C513.024 64.1827 513.339 64.268 513.786 64.268H514.859V65.5H513.547C512.736 65.5 512.128 65.3133 511.723 64.94C511.317 64.5667 511.115 63.9533 511.115 63.1V57.932H509.979V56.732H511.115V54.524H512.571V56.732H514.859V57.932H512.571ZM528.664 56.732V65.5H527.208V64.204C526.931 64.652 526.542 65.004 526.04 65.26C525.55 65.5053 525.006 65.628 524.408 65.628C523.726 65.628 523.112 65.4893 522.568 65.212C522.024 64.924 521.592 64.4973 521.272 63.932C520.963 63.3667 520.808 62.6787 520.808 61.868V56.732H522.248V61.676C522.248 62.54 522.467 63.2067 522.904 63.676C523.342 64.1347 523.939 64.364 524.696 64.364C525.475 64.364 526.088 64.124 526.536 63.644C526.984 63.164 527.208 62.4653 527.208 61.548V56.732H528.664ZM534.227 65.644C533.555 65.644 532.952 65.532 532.419 65.308C531.885 65.0733 531.464 64.7533 531.155 64.348C530.845 63.932 530.675 63.4573 530.643 62.924H532.147C532.189 63.3613 532.392 63.7187 532.755 63.996C533.128 64.2733 533.613 64.412 534.211 64.412C534.765 64.412 535.203 64.2893 535.523 64.044C535.843 63.7987 536.003 63.4893 536.003 63.116C536.003 62.732 535.832 62.4493 535.491 62.268C535.149 62.076 534.621 61.8893 533.907 61.708C533.256 61.5373 532.723 61.3667 532.307 61.196C531.901 61.0147 531.549 60.7533 531.251 60.412C530.963 60.06 530.819 59.6013 530.819 59.036C530.819 58.588 530.952 58.1773 531.219 57.804C531.485 57.4307 531.864 57.1373 532.355 56.924C532.845 56.7 533.405 56.588 534.035 56.588C535.005 56.588 535.789 56.8333 536.387 57.324C536.984 57.8147 537.304 58.4867 537.347 59.34H535.891C535.859 58.8813 535.672 58.5133 535.331 58.236C535 57.9587 534.552 57.82 533.987 57.82C533.464 57.82 533.048 57.932 532.739 58.156C532.429 58.38 532.275 58.6733 532.275 59.036C532.275 59.324 532.365 59.564 532.547 59.756C532.739 59.9373 532.973 60.0867 533.251 60.204C533.539 60.3107 533.933 60.4333 534.435 60.572C535.064 60.7427 535.576 60.9133 535.971 61.084C536.365 61.244 536.701 61.4893 536.979 61.82C537.267 62.1507 537.416 62.5827 537.427 63.116C537.427 63.596 537.293 64.028 537.027 64.412C536.76 64.796 536.381 65.1 535.891 65.324C535.411 65.5373 534.856 65.644 534.227 65.644Z" fill="#625347"/>
<path d="M575.188 54.348V65.5H573.732V54.348H575.188ZM588.214 56.572C588.896 56.572 589.504 56.716 590.038 57.004C590.571 57.2813 590.992 57.7027 591.302 58.268C591.611 58.8333 591.766 59.5213 591.766 60.332V65.5H590.326V60.54C590.326 59.6653 590.107 58.9987 589.67 58.54C589.243 58.0707 588.662 57.836 587.926 57.836C587.168 57.836 586.566 58.0813 586.118 58.572C585.67 59.052 585.446 59.7507 585.446 60.668V65.5H584.006V60.54C584.006 59.6653 583.787 58.9987 583.35 58.54C582.923 58.0707 582.342 57.836 581.606 57.836C580.848 57.836 580.246 58.0813 579.798 58.572C579.35 59.052 579.126 59.7507 579.126 60.668V65.5H577.67V56.732H579.126V57.996C579.414 57.5373 579.798 57.1853 580.278 56.94C580.768 56.6947 581.307 56.572 581.894 56.572C582.63 56.572 583.28 56.7373 583.846 57.068C584.411 57.3987 584.832 57.884 585.11 58.524C585.355 57.9053 585.76 57.4253 586.326 57.084C586.891 56.7427 587.52 56.572 588.214 56.572ZM604.698 56.572C605.381 56.572 605.989 56.716 606.522 57.004C607.055 57.2813 607.477 57.7027 607.786 58.268C608.095 58.8333 608.25 59.5213 608.25 60.332V65.5H606.81V60.54C606.81 59.6653 606.591 58.9987 606.154 58.54C605.727 58.0707 605.146 57.836 604.41 57.836C603.653 57.836 603.05 58.0813 602.602 58.572C602.154 59.052 601.93 59.7507 601.93 60.668V65.5H600.49V60.54C600.49 59.6653 600.271 58.9987 599.834 58.54C599.407 58.0707 598.826 57.836 598.09 57.836C597.333 57.836 596.73 58.0813 596.282 58.572C595.834 59.052 595.61 59.7507 595.61 60.668V65.5H594.154V56.732H595.61V57.996C595.898 57.5373 596.282 57.1853 596.762 56.94C597.253 56.6947 597.791 56.572 598.378 56.572C599.114 56.572 599.765 56.7373 600.33 57.068C600.895 57.3987 601.317 57.884 601.594 58.524C601.839 57.9053 602.245 57.4253 602.81 57.084C603.375 56.7427 604.005 56.572 604.698 56.572ZM611.39 55.308C611.113 55.308 610.878 55.212 610.686 55.02C610.494 54.828 610.398 54.5933 610.398 54.316C610.398 54.0387 610.494 53.804 610.686 53.612C610.878 53.42 611.113 53.324 611.39 53.324C611.657 53.324 611.881 53.42 612.062 53.612C612.254 53.804 612.35 54.0387 612.35 54.316C612.35 54.5933 612.254 54.828 612.062 55.02C611.881 55.212 611.657 55.308 611.39 55.308ZM612.094 56.732V65.5H610.638V56.732H612.094ZM618.192 56.588C618.949 56.588 619.61 56.7533 620.176 57.084C620.752 57.4147 621.178 57.8307 621.456 58.332V56.732H622.928V65.692C622.928 66.492 622.757 67.2013 622.416 67.82C622.074 68.4493 621.584 68.94 620.944 69.292C620.314 69.644 619.578 69.82 618.736 69.82C617.584 69.82 616.624 69.548 615.856 69.004C615.088 68.46 614.634 67.7187 614.496 66.78H615.936C616.096 67.3133 616.426 67.74 616.928 68.06C617.429 68.3907 618.032 68.556 618.736 68.556C619.536 68.556 620.186 68.3053 620.688 67.804C621.2 67.3027 621.456 66.5987 621.456 65.692V63.852C621.168 64.364 620.741 64.7907 620.176 65.132C619.61 65.4733 618.949 65.644 618.192 65.644C617.413 65.644 616.704 65.452 616.064 65.068C615.434 64.684 614.938 64.1453 614.576 63.452C614.213 62.7587 614.032 61.9693 614.032 61.084C614.032 60.188 614.213 59.404 614.576 58.732C614.938 58.0493 615.434 57.5213 616.064 57.148C616.704 56.7747 617.413 56.588 618.192 56.588ZM621.456 61.1C621.456 60.4387 621.322 59.8627 621.056 59.372C620.789 58.8813 620.426 58.508 619.968 58.252C619.52 57.9853 619.024 57.852 618.48 57.852C617.936 57.852 617.44 57.98 616.992 58.236C616.544 58.492 616.186 58.8653 615.92 59.356C615.653 59.8467 615.52 60.4227 615.52 61.084C615.52 61.756 615.653 62.3427 615.92 62.844C616.186 63.3347 616.544 63.7133 616.992 63.98C617.44 64.236 617.936 64.364 618.48 64.364C619.024 64.364 619.52 64.236 619.968 63.98C620.426 63.7133 620.789 63.3347 621.056 62.844C621.322 62.3427 621.456 61.7613 621.456 61.1ZM626.844 58.156C627.1 57.6547 627.463 57.2653 627.932 56.988C628.412 56.7107 628.994 56.572 629.676 56.572V58.076H629.292C627.66 58.076 626.844 58.9613 626.844 60.732V65.5H625.388V56.732H626.844V58.156ZM630.813 61.084C630.813 60.188 630.994 59.404 631.357 58.732C631.72 58.0493 632.216 57.5213 632.845 57.148C633.485 56.7747 634.194 56.588 634.973 56.588C635.741 56.588 636.408 56.7533 636.973 57.084C637.538 57.4147 637.96 57.8307 638.237 58.332V56.732H639.709V65.5H638.237V63.868C637.949 64.38 637.517 64.8067 636.941 65.148C636.376 65.4787 635.714 65.644 634.957 65.644C634.178 65.644 633.474 65.452 632.845 65.068C632.216 64.684 631.72 64.1453 631.357 63.452C630.994 62.7587 630.813 61.9693 630.813 61.084ZM638.237 61.1C638.237 60.4387 638.104 59.8627 637.837 59.372C637.57 58.8813 637.208 58.508 636.749 58.252C636.301 57.9853 635.805 57.852 635.261 57.852C634.717 57.852 634.221 57.98 633.773 58.236C633.325 58.492 632.968 58.8653 632.701 59.356C632.434 59.8467 632.301 60.4227 632.301 61.084C632.301 61.756 632.434 62.3427 632.701 62.844C632.968 63.3347 633.325 63.7133 633.773 63.98C634.221 64.236 634.717 64.364 635.261 64.364C635.805 64.364 636.301 64.236 636.749 63.98C637.208 63.7133 637.57 63.3347 637.837 62.844C638.104 62.3427 638.237 61.7613 638.237 61.1ZM643.946 57.932V63.1C643.946 63.5267 644.036 63.8307 644.218 64.012C644.399 64.1827 644.714 64.268 645.161 64.268H646.234V65.5H644.922C644.111 65.5 643.503 65.3133 643.098 64.94C642.692 64.5667 642.49 63.9533 642.49 63.1V57.932H641.354V56.732H642.49V54.524H643.946V56.732H646.234V57.932H643.946ZM648.75 55.308C648.472 55.308 648.238 55.212 648.046 55.02C647.854 54.828 647.758 54.5933 647.758 54.316C647.758 54.0387 647.854 53.804 648.046 53.612C648.238 53.42 648.472 53.324 648.75 53.324C649.016 53.324 649.24 53.42 649.422 53.612C649.614 53.804 649.71 54.0387 649.71 54.316C649.71 54.5933 649.614 54.828 649.422 55.02C649.24 55.212 649.016 55.308 648.75 55.308ZM649.454 56.732V65.5H647.998V56.732H649.454ZM655.759 65.644C654.938 65.644 654.191 65.4573 653.519 65.084C652.858 64.7107 652.335 64.1827 651.951 63.5C651.578 62.8067 651.391 62.0067 651.391 61.1C651.391 60.204 651.583 59.4147 651.967 58.732C652.362 58.0387 652.895 57.5107 653.567 57.148C654.239 56.7747 654.991 56.588 655.823 56.588C656.655 56.588 657.407 56.7747 658.079 57.148C658.751 57.5107 659.279 58.0333 659.663 58.716C660.058 59.3987 660.255 60.1933 660.255 61.1C660.255 62.0067 660.052 62.8067 659.647 63.5C659.252 64.1827 658.714 64.7107 658.031 65.084C657.348 65.4573 656.591 65.644 655.759 65.644ZM655.759 64.364C656.282 64.364 656.772 64.2413 657.231 63.996C657.69 63.7507 658.058 63.3827 658.335 62.892C658.623 62.4013 658.767 61.804 658.767 61.1C658.767 60.396 658.628 59.7987 658.351 59.308C658.074 58.8173 657.711 58.4547 657.263 58.22C656.815 57.9747 656.33 57.852 655.807 57.852C655.274 57.852 654.783 57.9747 654.335 58.22C653.898 58.4547 653.546 58.8173 653.279 59.308C653.012 59.7987 652.879 60.396 652.879 61.1C652.879 61.8147 653.007 62.4173 653.263 62.908C653.53 63.3987 653.882 63.7667 654.319 64.012C654.756 64.2467 655.236 64.364 655.759 64.364ZM666.442 56.572C667.508 56.572 668.372 56.8973 669.034 57.548C669.695 58.188 670.026 59.116 670.026 60.332V65.5H668.586V60.54C668.586 59.6653 668.367 58.9987 667.93 58.54C667.492 58.0707 666.895 57.836 666.138 57.836C665.37 57.836 664.756 58.076 664.298 58.556C663.85 59.036 663.626 59.7347 663.626 60.652V65.5H662.17V56.732H663.626V57.98C663.914 57.532 664.303 57.1853 664.794 56.94C665.295 56.6947 665.844 56.572 666.442 56.572ZM677.422 55.308C677.144 55.308 676.91 55.212 676.718 55.02C676.526 54.828 676.43 54.5933 676.43 54.316C676.43 54.0387 676.526 53.804 676.718 53.612C676.91 53.42 677.144 53.324 677.422 53.324C677.688 53.324 677.912 53.42 678.094 53.612C678.286 53.804 678.382 54.0387 678.382 54.316C678.382 54.5933 678.286 54.828 678.094 55.02C677.912 55.212 677.688 55.308 677.422 55.308ZM678.126 56.732V65.5H676.67V56.732H678.126ZM684.879 56.572C685.946 56.572 686.81 56.8973 687.471 57.548C688.132 58.188 688.463 59.116 688.463 60.332V65.5H687.023V60.54C687.023 59.6653 686.804 58.9987 686.367 58.54C685.93 58.0707 685.332 57.836 684.575 57.836C683.807 57.836 683.194 58.076 682.735 58.556C682.287 59.036 682.063 59.7347 682.063 60.652V65.5H680.607V56.732H682.063V57.98C682.351 57.532 682.74 57.1853 683.231 56.94C683.732 56.6947 684.282 56.572 684.879 56.572ZM693.945 65.644C693.273 65.644 692.671 65.532 692.137 65.308C691.604 65.0733 691.183 64.7533 690.873 64.348C690.564 63.932 690.393 63.4573 690.361 62.924H691.865C691.908 63.3613 692.111 63.7187 692.473 63.996C692.847 64.2733 693.332 64.412 693.929 64.412C694.484 64.412 694.921 64.2893 695.241 64.044C695.561 63.7987 695.721 63.4893 695.721 63.116C695.721 62.732 695.551 62.4493 695.209 62.268C694.868 62.076 694.34 61.8893 693.625 61.708C692.975 61.5373 692.441 61.3667 692.025 61.196C691.62 61.0147 691.268 60.7533 690.969 60.412C690.681 60.06 690.537 59.6013 690.537 59.036C690.537 58.588 690.671 58.1773 690.937 57.804C691.204 57.4307 691.583 57.1373 692.073 56.924C692.564 56.7 693.124 56.588 693.753 56.588C694.724 56.588 695.508 56.8333 696.105 57.324C696.703 57.8147 697.023 58.4867 697.065 59.34H695.609C695.577 58.8813 695.391 58.5133 695.049 58.236C694.719 57.9587 694.271 57.82 693.705 57.82C693.183 57.82 692.767 57.932 692.457 58.156C692.148 58.38 691.993 58.6733 691.993 59.036C691.993 59.324 692.084 59.564 692.265 59.756C692.457 59.9373 692.692 60.0867 692.969 60.204C693.257 60.3107 693.652 60.4333 694.153 60.572C694.783 60.7427 695.295 60.9133 695.689 61.084C696.084 61.244 696.42 61.4893 696.697 61.82C696.985 62.1507 697.135 62.5827 697.145 63.116C697.145 63.596 697.012 64.028 696.745 64.412C696.479 64.796 696.1 65.1 695.609 65.324C695.129 65.5373 694.575 65.644 693.945 65.644ZM699.953 55.308C699.675 55.308 699.441 55.212 699.249 55.02C699.057 54.828 698.961 54.5933 698.961 54.316C698.961 54.0387 699.057 53.804 699.249 53.612C699.441 53.42 699.675 53.324 699.953 53.324C700.219 53.324 700.443 53.42 700.625 53.612C700.817 53.804 700.913 54.0387 700.913 54.316C700.913 54.5933 700.817 54.828 700.625 55.02C700.443 55.212 700.219 55.308 699.953 55.308ZM700.657 56.732V65.5H699.201V56.732H700.657ZM706.754 56.588C707.512 56.588 708.173 56.7533 708.738 57.084C709.314 57.4147 709.741 57.8307 710.018 58.332V56.732H711.49V65.692C711.49 66.492 711.32 67.2013 710.978 67.82C710.637 68.4493 710.146 68.94 709.506 69.292C708.877 69.644 708.141 69.82 707.298 69.82C706.146 69.82 705.186 69.548 704.418 69.004C703.65 68.46 703.197 67.7187 703.058 66.78H704.498C704.658 67.3133 704.989 67.74 705.49 68.06C705.992 68.3907 706.594 68.556 707.298 68.556C708.098 68.556 708.749 68.3053 709.25 67.804C709.762 67.3027 710.018 66.5987 710.018 65.692V63.852C709.73 64.364 709.304 64.7907 708.738 65.132C708.173 65.4733 707.512 65.644 706.754 65.644C705.976 65.644 705.266 65.452 704.626 65.068C703.997 64.684 703.501 64.1453 703.138 63.452C702.776 62.7587 702.594 61.9693 702.594 61.084C702.594 60.188 702.776 59.404 703.138 58.732C703.501 58.0493 703.997 57.5213 704.626 57.148C705.266 56.7747 705.976 56.588 706.754 56.588ZM710.018 61.1C710.018 60.4387 709.885 59.8627 709.618 59.372C709.352 58.8813 708.989 58.508 708.53 58.252C708.082 57.9853 707.586 57.852 707.042 57.852C706.498 57.852 706.002 57.98 705.554 58.236C705.106 58.492 704.749 58.8653 704.482 59.356C704.216 59.8467 704.082 60.4227 704.082 61.084C704.082 61.756 704.216 62.3427 704.482 62.844C704.749 63.3347 705.106 63.7133 705.554 63.98C706.002 64.236 706.498 64.364 707.042 64.364C707.586 64.364 708.082 64.236 708.53 63.98C708.989 63.7133 709.352 63.3347 709.618 62.844C709.885 62.3427 710.018 61.7613 710.018 61.1ZM718.303 56.572C718.964 56.572 719.561 56.716 720.095 57.004C720.628 57.2813 721.044 57.7027 721.343 58.268C721.652 58.8333 721.807 59.5213 721.807 60.332V65.5H720.367V60.54C720.367 59.6653 720.148 58.9987 719.711 58.54C719.273 58.0707 718.676 57.836 717.919 57.836C717.151 57.836 716.537 58.076 716.079 58.556C715.631 59.036 715.407 59.7347 715.407 60.652V65.5H713.951V53.66H715.407V57.98C715.695 57.532 716.089 57.1853 716.591 56.94C717.103 56.6947 717.673 56.572 718.303 56.572ZM725.961 57.932V63.1C725.961 63.5267 726.052 63.8307 726.233 64.012C726.414 64.1827 726.729 64.268 727.177 64.268H728.249V65.5H726.937C726.126 65.5 725.518 65.3133 725.113 64.94C724.708 64.5667 724.505 63.9533 724.505 63.1V57.932H723.369V56.732H724.505V54.524H725.961V56.732H728.249V57.932H725.961ZM733.117 65.644C732.445 65.644 731.843 65.532 731.309 65.308C730.776 65.0733 730.355 64.7533 730.045 64.348C729.736 63.932 729.565 63.4573 729.533 62.924H731.037C731.08 63.3613 731.283 63.7187 731.645 63.996C732.019 64.2733 732.504 64.412 733.101 64.412C733.656 64.412 734.093 64.2893 734.413 64.044C734.733 63.7987 734.893 63.4893 734.893 63.116C734.893 62.732 734.723 62.4493 734.381 62.268C734.04 62.076 733.512 61.8893 732.797 61.708C732.147 61.5373 731.613 61.3667 731.197 61.196C730.792 61.0147 730.44 60.7533 730.141 60.412C729.853 60.06 729.709 59.6013 729.709 59.036C729.709 58.588 729.843 58.1773 730.109 57.804C730.376 57.4307 730.755 57.1373 731.245 56.924C731.736 56.7 732.296 56.588 732.925 56.588C733.896 56.588 734.68 56.8333 735.277 57.324C735.875 57.8147 736.195 58.4867 736.237 59.34H734.781C734.749 58.8813 734.563 58.5133 734.221 58.236C733.891 57.9587 733.443 57.82 732.877 57.82C732.355 57.82 731.939 57.932 731.629 58.156C731.32 58.38 731.165 58.6733 731.165 59.036C731.165 59.324 731.256 59.564 731.437 59.756C731.629 59.9373 731.864 60.0867 732.141 60.204C732.429 60.3107 732.824 60.4333 733.325 60.572C733.955 60.7427 734.467 60.9133 734.861 61.084C735.256 61.244 735.592 61.4893 735.869 61.82C736.157 62.1507 736.307 62.5827 736.317 63.116C736.317 63.596 736.184 64.028 735.917 64.412C735.651 64.796 735.272 65.1 734.781 65.324C734.301 65.5373 733.747 65.644 733.117 65.644Z" fill="#625347"/>
<path d="M781.324 54.348V65.5H779.868V60.444H774.188V65.5H772.732V54.348H774.188V59.244H779.868V54.348H781.324ZM787.634 65.644C786.813 65.644 786.066 65.4573 785.394 65.084C784.733 64.7107 784.21 64.1827 783.826 63.5C783.453 62.8067 783.266 62.0067 783.266 61.1C783.266 60.204 783.458 59.4147 783.842 58.732C784.237 58.0387 784.77 57.5107 785.442 57.148C786.114 56.7747 786.866 56.588 787.698 56.588C788.53 56.588 789.282 56.7747 789.954 57.148C790.626 57.5107 791.154 58.0333 791.538 58.716C791.933 59.3987 792.13 60.1933 792.13 61.1C792.13 62.0067 791.927 62.8067 791.522 63.5C791.127 64.1827 790.589 64.7107 789.906 65.084C789.223 65.4573 788.466 65.644 787.634 65.644ZM787.634 64.364C788.157 64.364 788.647 64.2413 789.106 63.996C789.565 63.7507 789.933 63.3827 790.21 62.892C790.498 62.4013 790.642 61.804 790.642 61.1C790.642 60.396 790.503 59.7987 790.226 59.308C789.949 58.8173 789.586 58.4547 789.138 58.22C788.69 57.9747 788.205 57.852 787.682 57.852C787.149 57.852 786.658 57.9747 786.21 58.22C785.773 58.4547 785.421 58.8173 785.154 59.308C784.887 59.7987 784.754 60.396 784.754 61.1C784.754 61.8147 784.882 62.4173 785.138 62.908C785.405 63.3987 785.757 63.7667 786.194 64.012C786.631 64.2467 787.111 64.364 787.634 64.364ZM805.725 56.732L802.989 65.5H801.485L799.373 58.54L797.261 65.5H795.757L793.005 56.732H794.493L796.509 64.092L798.685 56.732H800.173L802.301 64.108L804.285 56.732H805.725ZM823.115 56.732L820.379 65.5H818.875L816.763 58.54L814.651 65.5H813.147L810.395 56.732H811.883L813.899 64.092L816.075 56.732H817.563L819.691 64.108L821.675 56.732H823.115ZM832.56 60.78C832.56 61.0573 832.544 61.3507 832.512 61.66H825.504C825.557 62.524 825.851 63.2013 826.384 63.692C826.928 64.172 827.584 64.412 828.352 64.412C828.981 64.412 829.504 64.268 829.92 63.98C830.347 63.6813 830.645 63.2867 830.816 62.796H832.384C832.149 63.6387 831.68 64.3267 830.976 64.86C830.272 65.3827 829.397 65.644 828.352 65.644C827.52 65.644 826.773 65.4573 826.112 65.084C825.461 64.7107 824.949 64.1827 824.576 63.5C824.203 62.8067 824.016 62.0067 824.016 61.1C824.016 60.1933 824.197 59.3987 824.56 58.716C824.923 58.0333 825.429 57.5107 826.08 57.148C826.741 56.7747 827.499 56.588 828.352 56.588C829.184 56.588 829.92 56.7693 830.56 57.132C831.2 57.4947 831.691 57.996 832.032 58.636C832.384 59.2653 832.56 59.98 832.56 60.78ZM831.056 60.476C831.056 59.9213 830.933 59.4467 830.688 59.052C830.443 58.6467 830.107 58.3427 829.68 58.14C829.264 57.9267 828.8 57.82 828.288 57.82C827.552 57.82 826.923 58.0547 826.4 58.524C825.888 58.9933 825.595 59.644 825.52 60.476H831.056ZM850.428 56.732L847.692 65.5H846.188L844.076 58.54L841.964 65.5H840.46L837.708 56.732H839.196L841.212 64.092L843.388 56.732H844.876L847.004 64.108L848.988 56.732H850.428ZM855.697 65.644C854.875 65.644 854.129 65.4573 853.457 65.084C852.795 64.7107 852.273 64.1827 851.889 63.5C851.515 62.8067 851.329 62.0067 851.329 61.1C851.329 60.204 851.521 59.4147 851.905 58.732C852.299 58.0387 852.833 57.5107 853.505 57.148C854.177 56.7747 854.929 56.588 855.761 56.588C856.593 56.588 857.345 56.7747 858.017 57.148C858.689 57.5107 859.217 58.0333 859.601 58.716C859.995 59.3987 860.193 60.1933 860.193 61.1C860.193 62.0067 859.99 62.8067 859.585 63.5C859.19 64.1827 858.651 64.7107 857.969 65.084C857.286 65.4573 856.529 65.644 855.697 65.644ZM855.697 64.364C856.219 64.364 856.71 64.2413 857.169 63.996C857.627 63.7507 857.995 63.3827 858.273 62.892C858.561 62.4013 858.705 61.804 858.705 61.1C858.705 60.396 858.566 59.7987 858.289 59.308C858.011 58.8173 857.649 58.4547 857.201 58.22C856.753 57.9747 856.267 57.852 855.745 57.852C855.211 57.852 854.721 57.9747 854.273 58.22C853.835 58.4547 853.483 58.8173 853.217 59.308C852.95 59.7987 852.817 60.396 852.817 61.1C852.817 61.8147 852.945 62.4173 853.201 62.908C853.467 63.3987 853.819 63.7667 854.257 64.012C854.694 64.2467 855.174 64.364 855.697 64.364ZM863.563 58.156C863.819 57.6547 864.182 57.2653 864.651 56.988C865.131 56.7107 865.712 56.572 866.395 56.572V58.076H866.011C864.379 58.076 863.563 58.9613 863.563 60.732V65.5H862.107V56.732H863.563V58.156ZM872.972 65.5L869.532 61.628V65.5H868.076V53.66H869.532V60.62L872.908 56.732H874.94L870.812 61.1L874.956 65.5H872.972Z" fill="#625347"/>
<path d="M914.268 65.612C913.532 65.612 912.871 65.484 912.284 65.228C911.708 64.9613 911.255 64.5987 910.924 64.14C910.593 63.6707 910.423 63.132 910.412 62.524H911.964C912.017 63.0467 912.231 63.4893 912.604 63.852C912.988 64.204 913.543 64.38 914.268 64.38C914.961 64.38 915.505 64.2093 915.9 63.868C916.305 63.516 916.508 63.068 916.508 62.524C916.508 62.0973 916.391 61.7507 916.156 61.484C915.921 61.2173 915.628 61.0147 915.276 60.876C914.924 60.7373 914.449 60.588 913.852 60.428C913.116 60.236 912.524 60.044 912.076 59.852C911.639 59.66 911.26 59.3613 910.94 58.956C910.631 58.54 910.476 57.9853 910.476 57.292C910.476 56.684 910.631 56.1453 910.94 55.676C911.249 55.2067 911.681 54.844 912.236 54.588C912.801 54.332 913.447 54.204 914.172 54.204C915.217 54.204 916.071 54.4653 916.732 54.988C917.404 55.5107 917.783 56.204 917.868 57.068H916.268C916.215 56.6413 915.991 56.268 915.596 55.948C915.201 55.6173 914.679 55.452 914.028 55.452C913.42 55.452 912.924 55.612 912.54 55.932C912.156 56.2413 911.964 56.6787 911.964 57.244C911.964 57.6493 912.076 57.98 912.3 58.236C912.535 58.492 912.817 58.6893 913.148 58.828C913.489 58.956 913.964 59.1053 914.572 59.276C915.308 59.4787 915.9 59.6813 916.348 59.884C916.796 60.076 917.18 60.38 917.5 60.796C917.82 61.2013 917.98 61.756 917.98 62.46C917.98 63.004 917.836 63.516 917.548 63.996C917.26 64.476 916.833 64.8653 916.268 65.164C915.703 65.4627 915.036 65.612 914.268 65.612ZM928.123 60.78C928.123 61.0573 928.107 61.3507 928.075 61.66H921.067C921.12 62.524 921.413 63.2013 921.947 63.692C922.491 64.172 923.147 64.412 923.915 64.412C924.544 64.412 925.067 64.268 925.483 63.98C925.909 63.6813 926.208 63.2867 926.379 62.796H927.947C927.712 63.6387 927.243 64.3267 926.539 64.86C925.835 65.3827 924.96 65.644 923.915 65.644C923.083 65.644 922.336 65.4573 921.675 65.084C921.024 64.7107 920.512 64.1827 920.139 63.5C919.765 62.8067 919.579 62.0067 919.579 61.1C919.579 60.1933 919.76 59.3987 920.123 58.716C920.485 58.0333 920.992 57.5107 921.643 57.148C922.304 56.7747 923.061 56.588 923.915 56.588C924.747 56.588 925.483 56.7693 926.123 57.132C926.763 57.4947 927.253 57.996 927.595 58.636C927.947 59.2653 928.123 59.98 928.123 60.78ZM926.619 60.476C926.619 59.9213 926.496 59.4467 926.251 59.052C926.005 58.6467 925.669 58.3427 925.243 58.14C924.827 57.9267 924.363 57.82 923.851 57.82C923.115 57.82 922.485 58.0547 921.963 58.524C921.451 58.9933 921.157 59.644 921.083 60.476H926.619ZM931.501 58.156C931.757 57.6547 932.119 57.2653 932.589 56.988C933.069 56.7107 933.65 56.572 934.333 56.572V58.076H933.949C932.317 58.076 931.501 58.9613 931.501 60.732V65.5H930.045V56.732H931.501V58.156ZM939.277 64.156L941.997 56.732H943.549L940.109 65.5H938.413L934.973 56.732H936.541L939.277 64.156ZM945.734 55.308C945.457 55.308 945.222 55.212 945.03 55.02C944.838 54.828 944.742 54.5933 944.742 54.316C944.742 54.0387 944.838 53.804 945.03 53.612C945.222 53.42 945.457 53.324 945.734 53.324C946.001 53.324 946.225 53.42 946.406 53.612C946.598 53.804 946.694 54.0387 946.694 54.316C946.694 54.5933 946.598 54.828 946.406 55.02C946.225 55.212 946.001 55.308 945.734 55.308ZM946.438 56.732V65.5H944.982V56.732H946.438ZM948.376 61.1C948.376 60.1933 948.557 59.404 948.92 58.732C949.282 58.0493 949.784 57.5213 950.424 57.148C951.074 56.7747 951.816 56.588 952.648 56.588C953.725 56.588 954.61 56.8493 955.304 57.372C956.008 57.8947 956.472 58.62 956.696 59.548H955.128C954.978 59.0147 954.685 58.5933 954.248 58.284C953.821 57.9747 953.288 57.82 952.648 57.82C951.816 57.82 951.144 58.108 950.632 58.684C950.12 59.2493 949.864 60.0547 949.864 61.1C949.864 62.156 950.12 62.972 950.632 63.548C951.144 64.124 951.816 64.412 952.648 64.412C953.288 64.412 953.821 64.2627 954.248 63.964C954.674 63.6653 954.968 63.2387 955.128 62.684H956.696C956.461 63.58 955.992 64.3 955.288 64.844C954.584 65.3773 953.704 65.644 952.648 65.644C951.816 65.644 951.074 65.4573 950.424 65.084C949.784 64.7107 949.282 64.1827 948.92 63.5C948.557 62.8173 948.376 62.0173 948.376 61.1ZM966.638 60.78C966.638 61.0573 966.622 61.3507 966.59 61.66H959.582C959.636 62.524 959.929 63.2013 960.462 63.692C961.006 64.172 961.662 64.412 962.43 64.412C963.06 64.412 963.582 64.268 963.998 63.98C964.425 63.6813 964.724 63.2867 964.894 62.796H966.462C966.228 63.6387 965.758 64.3267 965.054 64.86C964.35 65.3827 963.476 65.644 962.43 65.644C961.598 65.644 960.852 65.4573 960.19 65.084C959.54 64.7107 959.028 64.1827 958.654 63.5C958.281 62.8067 958.094 62.0067 958.094 61.1C958.094 60.1933 958.276 59.3987 958.638 58.716C959.001 58.0333 959.508 57.5107 960.158 57.148C960.82 56.7747 961.577 56.588 962.43 56.588C963.262 56.588 963.998 56.7693 964.638 57.132C965.278 57.4947 965.769 57.996 966.11 58.636C966.462 59.2653 966.638 59.98 966.638 60.78ZM965.134 60.476C965.134 59.9213 965.012 59.4467 964.766 59.052C964.521 58.6467 964.185 58.3427 963.758 58.14C963.342 57.9267 962.878 57.82 962.366 57.82C961.63 57.82 961.001 58.0547 960.478 58.524C959.966 58.9933 959.673 59.644 959.598 60.476H965.134Z" fill="#625347"/>
<rect width="176" height="42" transform="translate(1133 40)" fill="#5F2900"/>
<path d="M1163.24 66V65.384C1163.55 65.3747 1163.77 65.314 1163.9 65.202C1164.04 65.0807 1164.13 64.9033 1164.17 64.67C1164.2 64.4367 1164.22 64.1427 1164.22 63.788V58.076C1164.22 57.824 1164.23 57.6 1164.24 57.404C1164.25 57.1987 1164.25 57.0353 1164.26 56.914C1164.11 56.9233 1163.93 56.9327 1163.75 56.942C1163.56 56.9513 1163.39 56.9607 1163.24 56.97V56.2C1163.8 56.1907 1164.36 56.186 1164.92 56.186C1165.48 56.1767 1166.06 56.172 1166.64 56.172C1167.75 56.172 1168.61 56.3727 1169.23 56.774C1169.86 57.166 1170.16 57.782 1170.13 58.622C1170.12 58.9113 1170.03 59.2007 1169.86 59.49C1169.71 59.77 1169.46 60.022 1169.14 60.246C1168.81 60.4607 1168.4 60.6193 1167.92 60.722V60.75C1168.92 60.7967 1169.66 61.058 1170.16 61.534C1170.65 62.0007 1170.9 62.57 1170.9 63.242C1170.9 63.8207 1170.75 64.32 1170.45 64.74C1170.16 65.1507 1169.77 65.4633 1169.26 65.678C1168.77 65.8927 1168.2 66 1167.55 66H1163.24ZM1165.66 65.3C1165.82 65.3 1166 65.3047 1166.18 65.314C1166.37 65.314 1166.55 65.314 1166.71 65.314C1166.89 65.314 1167.02 65.314 1167.11 65.314C1167.78 65.3047 1168.31 65.1227 1168.69 64.768C1169.07 64.4133 1169.26 63.9187 1169.26 63.284C1169.26 62.7613 1169.15 62.3553 1168.94 62.066C1168.73 61.7673 1168.46 61.5573 1168.13 61.436C1167.79 61.3147 1167.43 61.254 1167.05 61.254C1166.79 61.254 1166.55 61.2587 1166.34 61.268C1166.13 61.268 1165.92 61.2727 1165.71 61.282V64.152C1165.71 64.404 1165.7 64.628 1165.69 64.824C1165.69 65.02 1165.68 65.1787 1165.66 65.3ZM1165.71 60.596L1166.63 60.568C1167.12 60.5587 1167.5 60.456 1167.78 60.26C1168.07 60.064 1168.27 59.812 1168.39 59.504C1168.52 59.196 1168.57 58.874 1168.56 58.538C1168.56 58.0713 1168.46 57.7167 1168.27 57.474C1168.07 57.2313 1167.83 57.0633 1167.54 56.97C1167.25 56.8767 1166.97 56.83 1166.69 56.83C1166.42 56.83 1166.22 56.8673 1166.08 56.942C1165.94 57.0167 1165.85 57.1473 1165.79 57.334C1165.73 57.5113 1165.71 57.7773 1165.71 58.132V60.596ZM1175.17 66.224C1174.5 66.224 1173.91 66.0747 1173.37 65.776C1172.84 65.4773 1172.42 65.062 1172.1 64.53C1171.79 63.9887 1171.64 63.368 1171.64 62.668C1171.64 61.912 1171.79 61.2447 1172.1 60.666C1172.42 60.078 1172.84 59.616 1173.37 59.28C1173.91 58.944 1174.5 58.776 1175.15 58.776C1175.82 58.776 1176.41 58.93 1176.94 59.238C1177.48 59.5367 1177.9 59.9567 1178.2 60.498C1178.52 61.03 1178.68 61.646 1178.68 62.346C1178.68 63.0833 1178.53 63.746 1178.22 64.334C1177.91 64.922 1177.49 65.384 1176.96 65.72C1176.44 66.056 1175.84 66.224 1175.17 66.224ZM1175.26 65.524C1175.71 65.5147 1176.06 65.3747 1176.31 65.104C1176.58 64.8333 1176.76 64.488 1176.87 64.068C1176.99 63.6387 1177.04 63.1953 1177.04 62.738C1177.04 62.3367 1177.01 61.9447 1176.93 61.562C1176.87 61.17 1176.76 60.8153 1176.61 60.498C1176.46 60.1807 1176.26 59.9287 1176.02 59.742C1175.78 59.546 1175.48 59.4527 1175.14 59.462C1174.7 59.462 1174.34 59.5973 1174.06 59.868C1173.79 60.1387 1173.59 60.4887 1173.46 60.918C1173.34 61.338 1173.28 61.786 1173.28 62.262C1173.28 62.8127 1173.35 63.3353 1173.49 63.83C1173.63 64.3247 1173.84 64.7307 1174.13 65.048C1174.43 65.3653 1174.81 65.524 1175.26 65.524ZM1182.99 66.224C1182.33 66.224 1181.73 66.0747 1181.2 65.776C1180.67 65.4773 1180.25 65.062 1179.93 64.53C1179.62 63.9887 1179.47 63.368 1179.47 62.668C1179.47 61.912 1179.62 61.2447 1179.93 60.666C1180.25 60.078 1180.67 59.616 1181.2 59.28C1181.73 58.944 1182.33 58.776 1182.98 58.776C1183.64 58.776 1184.24 58.93 1184.77 59.238C1185.3 59.5367 1185.72 59.9567 1186.03 60.498C1186.35 61.03 1186.51 61.646 1186.51 62.346C1186.51 63.0833 1186.35 63.746 1186.05 64.334C1185.74 64.922 1185.32 65.384 1184.79 65.72C1184.26 66.056 1183.67 66.224 1182.99 66.224ZM1183.09 65.524C1183.54 65.5147 1183.89 65.3747 1184.14 65.104C1184.4 64.8333 1184.59 64.488 1184.7 64.068C1184.81 63.6387 1184.87 63.1953 1184.87 62.738C1184.87 62.3367 1184.83 61.9447 1184.76 61.562C1184.69 61.17 1184.59 60.8153 1184.44 60.498C1184.29 60.1807 1184.09 59.9287 1183.85 59.742C1183.61 59.546 1183.31 59.4527 1182.97 59.462C1182.53 59.462 1182.17 59.5973 1181.89 59.868C1181.62 60.1387 1181.42 60.4887 1181.29 60.918C1181.16 61.338 1181.1 61.786 1181.1 62.262C1181.1 62.8127 1181.17 63.3353 1181.31 63.83C1181.45 64.3247 1181.67 64.7307 1181.96 65.048C1182.26 65.3653 1182.63 65.524 1183.09 65.524ZM1187.2 66V65.412C1187.48 65.412 1187.67 65.3467 1187.77 65.216C1187.88 65.0853 1187.95 64.9033 1187.97 64.67C1187.99 64.4367 1188.01 64.166 1188.01 63.858L1188.02 57.53C1188.02 57.3713 1188.02 57.2127 1188.02 57.054C1188.03 56.886 1188.05 56.7087 1188.06 56.522C1187.91 56.5313 1187.74 56.5407 1187.56 56.55C1187.38 56.55 1187.22 56.5547 1187.08 56.564V55.822C1187.49 55.822 1187.82 55.8033 1188.06 55.766C1188.32 55.7193 1188.51 55.668 1188.65 55.612C1188.79 55.556 1188.89 55.4953 1188.95 55.43H1189.48V61.968H1190.08L1191.55 60.386C1191.7 60.2367 1191.83 60.106 1191.94 59.994C1192.05 59.882 1192.17 59.784 1192.28 59.7L1191.4 59.728V59H1194.15V59.574C1193.83 59.6113 1193.53 59.7093 1193.26 59.868C1193 60.0173 1192.76 60.19 1192.54 60.386C1192.33 60.582 1192.15 60.764 1192 60.932L1190.96 62.024C1191.14 62.108 1191.29 62.2153 1191.42 62.346C1191.55 62.4673 1191.69 62.626 1191.84 62.822L1192.82 64.082C1192.87 64.138 1192.95 64.2407 1193.05 64.39C1193.16 64.53 1193.29 64.6793 1193.44 64.838C1193.59 64.9967 1193.74 65.132 1193.9 65.244C1194.07 65.356 1194.23 65.412 1194.38 65.412V66H1192.99C1192.72 66 1192.47 65.874 1192.24 65.622C1192.01 65.37 1191.76 65.0667 1191.49 64.712C1191.27 64.4133 1191.06 64.1333 1190.88 63.872C1190.69 63.6013 1190.52 63.3587 1190.36 63.144C1190.21 62.9293 1190.08 62.7613 1189.97 62.64L1189.48 62.668V64.264C1189.48 64.432 1189.47 64.6047 1189.46 64.782C1189.46 64.95 1189.45 65.1227 1189.42 65.3C1189.57 65.2907 1189.73 65.286 1189.88 65.286C1190.04 65.2767 1190.19 65.2673 1190.32 65.258V66H1187.2ZM1205.96 59.322C1205.86 58.482 1205.57 57.838 1205.09 57.39C1204.62 56.9327 1204 56.6993 1203.23 56.69C1202.75 56.69 1202.3 56.7973 1201.89 57.012C1201.48 57.2267 1201.12 57.53 1200.82 57.922C1200.52 58.3047 1200.29 58.762 1200.12 59.294C1199.96 59.8167 1199.88 60.3907 1199.88 61.016C1199.88 61.8653 1200.03 62.6213 1200.33 63.284C1200.63 63.9373 1201.04 64.446 1201.56 64.81C1202.1 65.174 1202.7 65.356 1203.37 65.356C1203.97 65.356 1204.56 65.216 1205.13 64.936C1205.72 64.6467 1206.21 64.2407 1206.59 63.718L1207.05 64.11C1206.63 64.6887 1206.18 65.132 1205.71 65.44C1205.23 65.748 1204.76 65.9533 1204.28 66.056C1203.81 66.168 1203.39 66.224 1203.01 66.224C1202.31 66.224 1201.66 66.098 1201.07 65.846C1200.49 65.594 1199.98 65.244 1199.55 64.796C1199.13 64.3387 1198.8 63.8113 1198.57 63.214C1198.34 62.6073 1198.23 61.954 1198.23 61.254C1198.23 60.6007 1198.34 59.9613 1198.54 59.336C1198.75 58.7107 1199.05 58.146 1199.45 57.642C1199.85 57.1287 1200.36 56.7227 1200.96 56.424C1201.58 56.1253 1202.29 55.976 1203.1 55.976C1203.58 55.976 1204.04 56.0413 1204.49 56.172C1204.95 56.3027 1205.39 56.5033 1205.81 56.774L1205.74 56.074H1206.6V59.322H1205.96ZM1211.16 66.224C1210.5 66.224 1209.9 66.0747 1209.37 65.776C1208.84 65.4773 1208.41 65.062 1208.09 64.53C1207.79 63.9887 1207.63 63.368 1207.63 62.668C1207.63 61.912 1207.79 61.2447 1208.09 60.666C1208.41 60.078 1208.84 59.616 1209.37 59.28C1209.9 58.944 1210.49 58.776 1211.15 58.776C1211.81 58.776 1212.41 58.93 1212.94 59.238C1213.47 59.5367 1213.89 59.9567 1214.2 60.498C1214.51 61.03 1214.67 61.646 1214.67 62.346C1214.67 63.0833 1214.52 63.746 1214.21 64.334C1213.9 64.922 1213.48 65.384 1212.95 65.72C1212.43 66.056 1211.83 66.224 1211.16 66.224ZM1211.26 65.524C1211.71 65.5147 1212.06 65.3747 1212.31 65.104C1212.57 64.8333 1212.76 64.488 1212.87 64.068C1212.98 63.6387 1213.04 63.1953 1213.04 62.738C1213.04 62.3367 1213 61.9447 1212.92 61.562C1212.86 61.17 1212.75 60.8153 1212.6 60.498C1212.45 60.1807 1212.26 59.9287 1212.01 59.742C1211.77 59.546 1211.48 59.4527 1211.13 59.462C1210.69 59.462 1210.33 59.5973 1210.05 59.868C1209.78 60.1387 1209.58 60.4887 1209.45 60.918C1209.33 61.338 1209.27 61.786 1209.27 62.262C1209.27 62.8127 1209.34 63.3353 1209.48 63.83C1209.62 64.3247 1209.83 64.7307 1210.12 65.048C1210.42 65.3653 1210.8 65.524 1211.26 65.524ZM1215.53 66V65.412C1215.81 65.412 1216 65.3467 1216.12 65.216C1216.23 65.0853 1216.29 64.9033 1216.31 64.67C1216.34 64.4367 1216.35 64.166 1216.35 63.858L1216.37 60.946C1216.37 60.7967 1216.37 60.638 1216.37 60.47C1216.38 60.2927 1216.4 60.12 1216.42 59.952C1216.26 59.9613 1216.08 59.9707 1215.91 59.98C1215.74 59.98 1215.58 59.9847 1215.43 59.994V59.252C1215.85 59.252 1216.18 59.2333 1216.41 59.196C1216.65 59.1493 1216.84 59.098 1216.96 59.042C1217.09 58.986 1217.19 58.9253 1217.25 58.86H1217.75C1217.76 58.944 1217.77 59.0233 1217.77 59.098C1217.78 59.1727 1217.78 59.252 1217.78 59.336C1217.79 59.42 1217.8 59.5273 1217.81 59.658C1218.02 59.49 1218.24 59.3407 1218.48 59.21C1218.73 59.0793 1218.98 58.9767 1219.24 58.902C1219.51 58.818 1219.77 58.776 1220.01 58.776C1220.84 58.776 1221.44 59.028 1221.8 59.532C1222.17 60.036 1222.36 60.8247 1222.36 61.898V64.264C1222.36 64.432 1222.36 64.6047 1222.35 64.782C1222.34 64.95 1222.32 65.1227 1222.3 65.3C1222.45 65.2907 1222.6 65.286 1222.75 65.286C1222.91 65.2767 1223.06 65.2673 1223.19 65.258V66H1220.06V65.412C1220.34 65.412 1220.54 65.3467 1220.65 65.216C1220.76 65.0853 1220.83 64.9033 1220.85 64.67C1220.88 64.4367 1220.89 64.166 1220.89 63.858V61.898C1220.88 61.1607 1220.76 60.6053 1220.53 60.232C1220.3 59.8587 1219.94 59.6767 1219.43 59.686C1219.14 59.686 1218.84 59.7607 1218.55 59.91C1218.26 60.0593 1218.02 60.2413 1217.82 60.456C1217.82 60.5493 1217.82 60.652 1217.82 60.764C1217.82 60.8667 1217.82 60.974 1217.82 61.086V64.264C1217.82 64.432 1217.82 64.6047 1217.81 64.782C1217.8 64.95 1217.79 65.1227 1217.77 65.3C1217.92 65.2907 1218.07 65.286 1218.22 65.286C1218.38 65.2767 1218.52 65.2673 1218.65 65.258V66H1215.53ZM1226.87 66.224C1226.43 66.224 1226.03 66.1633 1225.65 66.042C1225.28 65.93 1224.98 65.7947 1224.76 65.636L1224.8 66.098H1224.06L1223.99 63.69H1224.58C1224.59 64.0353 1224.7 64.348 1224.9 64.628C1225.09 64.908 1225.35 65.1273 1225.65 65.286C1225.97 65.4447 1226.31 65.524 1226.68 65.524C1226.89 65.524 1227.1 65.4913 1227.31 65.426C1227.51 65.3513 1227.68 65.244 1227.82 65.104C1227.96 64.9547 1228.03 64.7727 1228.03 64.558C1228.03 64.3247 1227.96 64.1333 1227.81 63.984C1227.67 63.8253 1227.47 63.6853 1227.22 63.564C1226.98 63.4427 1226.7 63.3213 1226.38 63.2C1226.1 63.088 1225.82 62.9713 1225.53 62.85C1225.25 62.7287 1224.99 62.584 1224.74 62.416C1224.5 62.248 1224.31 62.0427 1224.17 61.8C1224.03 61.548 1223.96 61.24 1223.96 60.876C1223.96 60.6613 1224 60.4327 1224.09 60.19C1224.17 59.938 1224.3 59.7093 1224.49 59.504C1224.68 59.2893 1224.93 59.1167 1225.25 58.986C1225.56 58.846 1225.96 58.776 1226.42 58.776C1226.68 58.776 1226.96 58.818 1227.26 58.902C1227.58 58.986 1227.87 59.1307 1228.15 59.336L1228.13 58.846H1228.87V61.31H1228.27C1228.24 60.9833 1228.15 60.68 1228.01 60.4C1227.87 60.12 1227.66 59.8913 1227.4 59.714C1227.14 59.5367 1226.82 59.448 1226.45 59.448C1226.09 59.448 1225.79 59.5413 1225.56 59.728C1225.33 59.9053 1225.22 60.1293 1225.22 60.4C1225.22 60.6707 1225.3 60.89 1225.47 61.058C1225.65 61.226 1225.88 61.3707 1226.16 61.492C1226.44 61.6133 1226.74 61.7347 1227.07 61.856C1227.46 62.0147 1227.83 62.1873 1228.17 62.374C1228.52 62.5607 1228.8 62.794 1229.01 63.074C1229.23 63.354 1229.34 63.7087 1229.34 64.138C1229.34 64.6047 1229.21 64.9967 1228.97 65.314C1228.74 65.622 1228.43 65.8507 1228.06 66C1227.69 66.1493 1227.29 66.224 1226.87 66.224ZM1233.13 66.224C1232.6 66.224 1232.17 66.126 1231.82 65.93C1231.49 65.734 1231.24 65.412 1231.07 64.964C1230.9 64.5067 1230.82 63.9047 1230.82 63.158V60.96C1230.82 60.8013 1230.82 60.638 1230.82 60.47C1230.82 60.2927 1230.84 60.12 1230.87 59.952C1230.71 59.9613 1230.54 59.9707 1230.37 59.98C1230.19 59.98 1230.03 59.9847 1229.89 59.994V59.252H1230.23C1230.69 59.252 1231.04 59.21 1231.28 59.126C1231.51 59.042 1231.67 58.9533 1231.77 58.86H1232.3V63.13C1232.3 63.8673 1232.4 64.418 1232.61 64.782C1232.81 65.146 1233.16 65.3233 1233.64 65.314C1233.96 65.314 1234.26 65.2207 1234.55 65.034C1234.85 64.8473 1235.09 64.628 1235.28 64.376V61.058C1235.28 60.8527 1235.29 60.6613 1235.3 60.484C1235.3 60.2973 1235.32 60.12 1235.35 59.952C1235.18 59.9613 1235.01 59.9707 1234.83 59.98C1234.66 59.98 1234.49 59.9847 1234.34 59.994V59.252H1234.75C1235.16 59.252 1235.48 59.21 1235.72 59.126C1235.95 59.042 1236.12 58.9533 1236.22 58.86H1236.75L1236.74 64.012C1236.74 64.1613 1236.73 64.3667 1236.72 64.628C1236.71 64.88 1236.7 65.104 1236.68 65.3C1236.84 65.2907 1237 65.2813 1237.17 65.272C1237.35 65.2627 1237.51 65.258 1237.66 65.258V66H1235.44C1235.42 65.8507 1235.4 65.7107 1235.38 65.58C1235.37 65.4493 1235.36 65.3233 1235.34 65.202C1235.05 65.4727 1234.71 65.7107 1234.33 65.916C1233.95 66.1213 1233.55 66.224 1233.13 66.224ZM1238.19 65.412C1238.47 65.412 1238.66 65.3467 1238.77 65.216C1238.89 65.0853 1238.95 64.9033 1238.97 64.67C1239 64.4367 1239.01 64.166 1239.01 63.858V57.53C1239.01 57.3713 1239.01 57.2127 1239.01 57.054C1239.02 56.886 1239.04 56.7087 1239.05 56.522C1238.9 56.5313 1238.73 56.5407 1238.55 56.55C1238.37 56.55 1238.21 56.5547 1238.07 56.564V55.822C1238.49 55.822 1238.83 55.8033 1239.07 55.766C1239.32 55.7193 1239.51 55.668 1239.64 55.612C1239.78 55.556 1239.89 55.4953 1239.95 55.43H1240.48V64.264C1240.48 64.432 1240.48 64.6047 1240.47 64.782C1240.46 64.95 1240.45 65.1227 1240.43 65.3C1240.58 65.2907 1240.73 65.286 1240.87 65.286C1241.03 65.2767 1241.18 65.2673 1241.31 65.258V66H1238.19V65.412ZM1244.73 66.224C1244.49 66.224 1244.26 66.1913 1244.01 66.126C1243.78 66.07 1243.57 65.9533 1243.37 65.776C1243.17 65.5893 1243.02 65.3233 1242.91 64.978C1242.8 64.6327 1242.74 64.1753 1242.74 63.606L1242.77 59.784H1241.73V59C1241.98 58.9907 1242.24 58.8973 1242.5 58.72C1242.76 58.5427 1242.99 58.3047 1243.19 58.006C1243.38 57.7073 1243.52 57.3853 1243.59 57.04H1244.25V59H1246.41V59.728L1244.25 59.756L1244.22 63.494C1244.22 63.8487 1244.25 64.1613 1244.31 64.432C1244.37 64.6933 1244.48 64.8987 1244.62 65.048C1244.76 65.188 1244.97 65.258 1245.22 65.258C1245.43 65.258 1245.65 65.1927 1245.88 65.062C1246.11 64.9313 1246.33 64.7167 1246.53 64.418L1247.01 64.838C1246.79 65.1647 1246.56 65.4213 1246.34 65.608C1246.11 65.7947 1245.9 65.93 1245.69 66.014C1245.49 66.1073 1245.3 66.1633 1245.13 66.182C1244.97 66.21 1244.83 66.224 1244.73 66.224ZM1251.45 66C1251.44 65.8507 1251.42 65.72 1251.41 65.608C1251.4 65.496 1251.39 65.3793 1251.37 65.258C1251.05 65.5753 1250.71 65.818 1250.35 65.986C1249.98 66.1447 1249.61 66.224 1249.21 66.224C1248.54 66.224 1248.03 66.0607 1247.69 65.734C1247.35 65.398 1247.18 64.9827 1247.18 64.488C1247.18 64.0587 1247.31 63.6853 1247.56 63.368C1247.81 63.0507 1248.15 62.794 1248.56 62.598C1248.97 62.3927 1249.41 62.2433 1249.9 62.15C1250.39 62.0473 1250.86 61.996 1251.33 61.996V61.17C1251.33 60.8713 1251.3 60.596 1251.24 60.344C1251.19 60.0827 1251.07 59.8727 1250.89 59.714C1250.73 59.546 1250.46 59.462 1250.1 59.462C1249.85 59.4527 1249.61 59.4993 1249.37 59.602C1249.13 59.6953 1248.94 59.854 1248.81 60.078C1248.88 60.1527 1248.93 60.2413 1248.95 60.344C1248.98 60.4373 1248.99 60.526 1248.99 60.61C1248.99 60.7407 1248.93 60.89 1248.82 61.058C1248.71 61.2167 1248.52 61.2913 1248.25 61.282C1248.02 61.282 1247.85 61.2073 1247.73 61.058C1247.62 60.8993 1247.56 60.7173 1247.56 60.512C1247.56 60.176 1247.68 59.8773 1247.93 59.616C1248.18 59.3547 1248.52 59.1493 1248.95 59C1249.38 58.8507 1249.86 58.776 1250.39 58.776C1251.19 58.776 1251.79 58.986 1252.18 59.406C1252.58 59.826 1252.78 60.4887 1252.78 61.394C1252.78 61.73 1252.78 62.052 1252.78 62.36C1252.78 62.668 1252.78 62.976 1252.77 63.284C1252.77 63.592 1252.77 63.9187 1252.77 64.264C1252.77 64.404 1252.77 64.5627 1252.76 64.74C1252.75 64.9173 1252.73 65.104 1252.71 65.3C1252.87 65.2907 1253.04 65.2813 1253.2 65.272C1253.37 65.2627 1253.53 65.258 1253.68 65.258V66H1251.45ZM1251.33 62.64C1251.03 62.6587 1250.72 62.7007 1250.4 62.766C1250.1 62.8313 1249.82 62.9293 1249.56 63.06C1249.31 63.1907 1249.11 63.3587 1248.95 63.564C1248.8 63.7693 1248.72 64.0167 1248.72 64.306C1248.74 64.6233 1248.85 64.8567 1249.03 65.006C1249.23 65.1553 1249.46 65.23 1249.72 65.23C1250.04 65.23 1250.33 65.1693 1250.59 65.048C1250.84 64.9173 1251.09 64.74 1251.33 64.516C1251.32 64.4133 1251.31 64.3107 1251.31 64.208C1251.31 64.096 1251.31 63.9793 1251.31 63.858C1251.31 63.774 1251.31 63.62 1251.31 63.396C1251.32 63.1627 1251.33 62.9107 1251.33 62.64ZM1256.9 66.224C1256.66 66.224 1256.42 66.1913 1256.18 66.126C1255.95 66.07 1255.73 65.9533 1255.54 65.776C1255.34 65.5893 1255.19 65.3233 1255.08 64.978C1254.96 64.6327 1254.91 64.1753 1254.91 63.606L1254.94 59.784H1253.9V59C1254.15 58.9907 1254.41 58.8973 1254.67 58.72C1254.93 58.5427 1255.16 58.3047 1255.36 58.006C1255.55 57.7073 1255.69 57.3853 1255.76 57.04H1256.42V59H1258.58V59.728L1256.42 59.756L1256.39 63.494C1256.39 63.8487 1256.42 64.1613 1256.48 64.432C1256.54 64.6933 1256.64 64.8987 1256.78 65.048C1256.93 65.188 1257.13 65.258 1257.39 65.258C1257.6 65.258 1257.82 65.1927 1258.04 65.062C1258.28 64.9313 1258.5 64.7167 1258.7 64.418L1259.18 64.838C1258.95 65.1647 1258.73 65.4213 1258.51 65.608C1258.28 65.7947 1258.07 65.93 1257.86 66.014C1257.66 66.1073 1257.47 66.1633 1257.3 66.182C1257.13 66.21 1257 66.224 1256.9 66.224ZM1259.49 65.412C1259.77 65.412 1259.97 65.3467 1260.08 65.216C1260.19 65.0853 1260.26 64.9033 1260.28 64.67C1260.3 64.4367 1260.32 64.166 1260.32 63.858V60.96C1260.32 60.8013 1260.32 60.6427 1260.33 60.484C1260.34 60.316 1260.36 60.1387 1260.37 59.952C1260.22 59.9613 1260.05 59.9707 1259.87 59.98C1259.69 59.98 1259.53 59.9847 1259.38 59.994V59.252C1259.8 59.252 1260.13 59.2333 1260.37 59.196C1260.63 59.1493 1260.82 59.098 1260.95 59.042C1261.09 58.986 1261.19 58.9253 1261.26 58.86H1261.79V64.264C1261.79 64.432 1261.78 64.6047 1261.77 64.782C1261.77 64.95 1261.75 65.1227 1261.73 65.3C1261.88 65.2907 1262.03 65.286 1262.18 65.286C1262.34 65.2767 1262.48 65.2673 1262.61 65.258V66H1259.49V65.412ZM1260.98 57.572C1260.73 57.572 1260.53 57.4833 1260.36 57.306C1260.19 57.1193 1260.11 56.8953 1260.11 56.634C1260.11 56.3727 1260.2 56.1533 1260.37 55.976C1260.55 55.7893 1260.75 55.696 1260.98 55.696C1261.22 55.696 1261.42 55.7893 1261.58 55.976C1261.75 56.1533 1261.83 56.3727 1261.83 56.634C1261.83 56.8953 1261.75 57.1193 1261.58 57.306C1261.42 57.4833 1261.22 57.572 1260.98 57.572ZM1266.81 66.224C1266.15 66.224 1265.55 66.0747 1265.02 65.776C1264.49 65.4773 1264.06 65.062 1263.75 64.53C1263.44 63.9887 1263.29 63.368 1263.29 62.668C1263.29 61.912 1263.44 61.2447 1263.75 60.666C1264.06 60.078 1264.49 59.616 1265.02 59.28C1265.55 58.944 1266.15 58.776 1266.8 58.776C1267.46 58.776 1268.06 58.93 1268.59 59.238C1269.12 59.5367 1269.54 59.9567 1269.85 60.498C1270.17 61.03 1270.33 61.646 1270.33 62.346C1270.33 63.0833 1270.17 63.746 1269.87 64.334C1269.56 64.922 1269.14 65.384 1268.61 65.72C1268.08 66.056 1267.49 66.224 1266.81 66.224ZM1266.91 65.524C1267.36 65.5147 1267.71 65.3747 1267.96 65.104C1268.22 64.8333 1268.41 64.488 1268.52 64.068C1268.63 63.6387 1268.69 63.1953 1268.69 62.738C1268.69 62.3367 1268.65 61.9447 1268.58 61.562C1268.51 61.17 1268.4 60.8153 1268.26 60.498C1268.11 60.1807 1267.91 59.9287 1267.67 59.742C1267.42 59.546 1267.13 59.4527 1266.79 59.462C1266.35 59.462 1265.99 59.5973 1265.71 59.868C1265.44 60.1387 1265.24 60.4887 1265.11 60.918C1264.98 61.338 1264.92 61.786 1264.92 62.262C1264.92 62.8127 1264.99 63.3353 1265.13 63.83C1265.27 64.3247 1265.49 64.7307 1265.78 65.048C1266.08 65.3653 1266.45 65.524 1266.91 65.524ZM1271.18 66V65.412C1271.46 65.412 1271.66 65.3467 1271.77 65.216C1271.88 65.0853 1271.95 64.9033 1271.97 64.67C1271.99 64.4367 1272.01 64.166 1272.01 63.858L1272.02 60.946C1272.02 60.7967 1272.02 60.638 1272.02 60.47C1272.03 60.2927 1272.05 60.12 1272.08 59.952C1271.91 59.9613 1271.74 59.9707 1271.56 59.98C1271.39 59.98 1271.23 59.9847 1271.08 59.994V59.252C1271.5 59.252 1271.83 59.2333 1272.06 59.196C1272.31 59.1493 1272.49 59.098 1272.61 59.042C1272.74 58.986 1272.84 58.9253 1272.9 58.86H1273.41C1273.42 58.944 1273.42 59.0233 1273.42 59.098C1273.43 59.1727 1273.44 59.252 1273.44 59.336C1273.45 59.42 1273.46 59.5273 1273.46 59.658C1273.67 59.49 1273.89 59.3407 1274.14 59.21C1274.38 59.0793 1274.63 58.9767 1274.89 58.902C1275.16 58.818 1275.42 58.776 1275.66 58.776C1276.49 58.776 1277.09 59.028 1277.45 59.532C1277.83 60.036 1278.01 60.8247 1278.01 61.898V64.264C1278.01 64.432 1278.01 64.6047 1278 64.782C1277.99 64.95 1277.98 65.1227 1277.96 65.3C1278.11 65.2907 1278.26 65.286 1278.41 65.286C1278.57 65.2767 1278.71 65.2673 1278.84 65.258V66H1275.72V65.412C1276 65.412 1276.19 65.3467 1276.31 65.216C1276.42 65.0853 1276.48 64.9033 1276.5 64.67C1276.53 64.4367 1276.54 64.166 1276.54 63.858V61.898C1276.54 61.1607 1276.41 60.6053 1276.18 60.232C1275.96 59.8587 1275.59 59.6767 1275.09 59.686C1274.79 59.686 1274.5 59.7607 1274.21 59.91C1273.92 60.0593 1273.67 60.2413 1273.48 60.456C1273.48 60.5493 1273.48 60.652 1273.48 60.764C1273.48 60.8667 1273.48 60.974 1273.48 61.086V64.264C1273.48 64.432 1273.47 64.6047 1273.46 64.782C1273.46 64.95 1273.44 65.1227 1273.42 65.3C1273.57 65.2907 1273.72 65.286 1273.87 65.286C1274.03 65.2767 1274.17 65.2673 1274.3 65.258V66H1271.18Z" fill="white"/>
<path d="M1343 58C1343 58 1338.58 64 1337 64C1335.42 64 1331 58 1331 58" stroke="#5F2900" stroke-width="1.5" stroke-linecap="round" stroke-linejoin="round"/>
</g>
<defs>
<filter id="filter0_d_438_1230" x="-72" y="-76" width="1640" height="274" filterUnits="userSpaceOnUse" color-interpolation-filters="sRGB">
<feFlood flood-opacity="0" result="BackgroundImageFix"/>
<feColorMatrix in="SourceAlpha" type="matrix" values="0 0 0 0 0 0 0 0 0 0 0 0 0 0 0 0 0 0 127 0" result="hardAlpha"/>
<feOffset dy="4"/>
<feGaussianBlur stdDeviation="14"/>
<feComposite in2="hardAlpha" operator="out"/>
<feColorMatrix type="matrix" values="0 0 0 0 0 0 0 0 0 0 0 0 0 0 0 0 0 0 0.11 0"/>
<feBlend mode="normal" in2="BackgroundImageFix" result="effect1_dropShadow_438_1230"/>
<feBlend mode="normal" in="SourceGraphic" in2="effect1_dropShadow_438_1230" result="shape"/>
</filter>
<linearGradient id="paint0_linear_438_1230" x1="720" y1="0" x2="720" y2="74" gradientUnits="userSpaceOnUse">
<stop stop-color="white"/>
<stop offset="1" stop-color="white"/>
</linearGradient>
</defs>
</svg>
