<svg width="399" height="354" viewBox="0 0 399 354" fill="none" xmlns="http://www.w3.org/2000/svg">
<rect x="0.5" y="0.5" width="398" height="353" rx="4.5" stroke="#8A38F5" stroke-dasharray="10 5"/>
<path d="M20.8 46V44.944C21.0453 44.9333 21.248 44.9013 21.408 44.848C21.5787 44.7947 21.7067 44.672 21.792 44.48C21.888 44.288 21.936 43.9787 21.936 43.552V37.424C21.936 37.136 21.9413 36.8587 21.952 36.592C21.9733 36.3253 21.9893 36.1227 22 35.984C21.8293 35.9947 21.616 36.0053 21.36 36.016C21.104 36.016 20.9173 36.0213 20.8 36.032V34.8H25.392V35.856C25.1573 35.8667 24.9547 35.8987 24.784 35.952C24.6133 36.0053 24.48 36.128 24.384 36.32C24.2987 36.5013 24.256 36.8107 24.256 37.248V43.376C24.256 43.664 24.2507 43.936 24.24 44.192C24.2293 44.448 24.2133 44.6453 24.192 44.784H26.336C26.9653 44.784 27.456 44.5653 27.808 44.128C28.1707 43.6907 28.352 43.0347 28.352 42.16H29.424L29.328 46H20.8ZM34.7603 46C34.7389 45.8507 34.7229 45.728 34.7123 45.632C34.7123 45.5253 34.7069 45.4027 34.6963 45.264C34.3336 45.6267 33.9496 45.8827 33.5443 46.032C33.1389 46.1813 32.7283 46.256 32.3123 46.256C31.6296 46.256 31.0963 46.0533 30.7122 45.648C30.3283 45.2427 30.1363 44.736 30.1363 44.128C30.1363 43.616 30.2643 43.1787 30.5203 42.816C30.7869 42.4533 31.1336 42.16 31.5603 41.936C31.9976 41.7013 32.4776 41.5253 33.0003 41.408C33.5336 41.28 34.0669 41.2053 34.6003 41.184V40.352C34.6003 40.0747 34.5629 39.824 34.4883 39.6C34.4243 39.376 34.3069 39.2 34.1363 39.072C33.9763 38.944 33.7469 38.8853 33.4483 38.896C33.2456 38.9067 33.0483 38.9493 32.8563 39.024C32.6643 39.0987 32.4989 39.2053 32.3603 39.344C32.4456 39.44 32.4989 39.5467 32.5203 39.664C32.5416 39.7707 32.5523 39.8667 32.5523 39.952C32.5523 40.1653 32.4669 40.3893 32.2963 40.624C32.1256 40.848 31.8536 40.9547 31.4803 40.944C31.1603 40.9333 30.9149 40.8213 30.7443 40.608C30.5736 40.3947 30.4883 40.144 30.4883 39.856C30.4883 39.4293 30.6376 39.0613 30.9363 38.752C31.2456 38.432 31.6563 38.1867 32.1683 38.016C32.6803 37.8347 33.2456 37.744 33.8643 37.744C34.8029 37.744 35.5283 37.9893 36.0403 38.48C36.5629 38.96 36.8243 39.7333 36.8243 40.8C36.8243 41.1627 36.8243 41.472 36.8243 41.728C36.8243 41.984 36.8189 42.24 36.8083 42.496C36.8083 42.752 36.8083 43.0613 36.8083 43.424C36.8083 43.5733 36.8029 43.7867 36.7923 44.064C36.7816 44.3307 36.7656 44.5867 36.7443 44.832C36.9256 44.8107 37.1176 44.8 37.3203 44.8C37.5229 44.7893 37.6776 44.784 37.7843 44.784V46H34.7603ZM34.5843 42.32C34.2856 42.352 34.0029 42.4053 33.7363 42.48C33.4696 42.5547 33.2349 42.656 33.0323 42.784C32.8403 42.912 32.6856 43.0667 32.5683 43.248C32.4616 43.4293 32.4083 43.632 32.4083 43.856C32.4189 44.1547 32.5149 44.368 32.6963 44.496C32.8776 44.624 33.0856 44.688 33.3203 44.688C33.5656 44.688 33.7949 44.6347 34.0083 44.528C34.2216 44.4213 34.4136 44.2827 34.5843 44.112C34.5843 44.0053 34.5843 43.904 34.5843 43.808C34.5843 43.7013 34.5843 43.5947 34.5843 43.488C34.5843 43.296 34.5843 43.104 34.5843 42.912C34.5843 42.7093 34.5843 42.512 34.5843 42.32ZM40.9474 46.048L39.0114 40.496C38.9154 40.2187 38.8407 40.0107 38.7874 39.872C38.7447 39.7333 38.7127 39.616 38.6914 39.52C38.67 39.424 38.6434 39.312 38.6114 39.184L37.9874 39.216V38H41.8274V39.024C41.4967 39.0347 41.3047 39.1627 41.2514 39.408C41.198 39.6533 41.214 39.9413 41.2994 40.272L41.8434 42.224C41.9074 42.4587 41.966 42.7093 42.0194 42.976C42.0834 43.232 42.1367 43.488 42.1794 43.744C42.2327 43.52 42.286 43.2747 42.3394 43.008C42.4034 42.7413 42.494 42.4107 42.6114 42.016L43.7794 38H45.5234L46.8034 42.416C46.8674 42.64 46.9314 42.8853 46.9954 43.152C47.07 43.408 47.134 43.6427 47.1874 43.856C47.23 43.6427 47.2887 43.408 47.3634 43.152C47.438 42.896 47.5074 42.6667 47.5714 42.464L48.1954 40.432C48.2807 40.144 48.3554 39.9093 48.4194 39.728C48.4834 39.536 48.5634 39.344 48.6594 39.152L47.7474 39.216V38H50.7874V39.024C50.574 39.024 50.3874 39.0933 50.2274 39.232C50.0674 39.3707 49.9234 39.5413 49.7954 39.744C49.678 39.936 49.582 40.128 49.5074 40.32C49.4327 40.5013 49.3794 40.6453 49.3474 40.752L47.5234 46.048H45.8274L44.7234 42.64C44.6914 42.5227 44.638 42.352 44.5634 42.128C44.4994 41.904 44.43 41.664 44.3554 41.408C44.2914 41.1413 44.2274 40.896 44.1634 40.672C44.11 40.9707 44.03 41.312 43.9234 41.696C43.8167 42.08 43.7154 42.432 43.6194 42.752C43.5234 43.072 43.454 43.2907 43.4114 43.408L42.5314 46.048H40.9474ZM53.1961 50.336C52.7908 50.336 52.4441 50.2133 52.1561 49.968C51.8788 49.7333 51.7401 49.4187 51.7401 49.024C51.7401 48.736 51.8308 48.48 52.0121 48.256C52.2041 48.0427 52.4495 47.9307 52.7481 47.92C52.9828 47.9093 53.1801 47.984 53.3401 48.144C53.5108 48.3147 53.5961 48.544 53.5961 48.832C53.5961 48.864 53.5961 48.896 53.5961 48.928C53.5961 48.96 53.5908 48.9973 53.5801 49.04C53.6015 49.04 53.6281 49.0347 53.6601 49.024C53.7561 48.992 53.8575 48.9013 53.9641 48.752C54.0815 48.6133 54.1935 48.4267 54.3001 48.192C54.4175 47.9467 54.5295 47.6693 54.6361 47.36C54.7535 47.0613 54.8548 46.7467 54.9401 46.416L52.4121 41.344C52.1135 40.7467 51.9161 40.2987 51.8201 40C51.7348 39.6907 51.6761 39.4187 51.6441 39.184L50.9081 39.216V38H54.8921V39.024C54.4975 39.0667 54.2788 39.216 54.2361 39.472C54.2041 39.728 54.2521 39.9947 54.3801 40.272L55.9481 43.856C56.0548 43.5787 56.1935 43.152 56.3641 42.576C56.5348 41.9893 56.7375 41.3547 56.9721 40.672C57.0148 40.5333 57.0681 40.3733 57.1321 40.192C57.2068 40 57.2868 39.8133 57.3721 39.632C57.4575 39.44 57.5481 39.2853 57.6441 39.168L56.7321 39.216V38H59.5801V39.024C59.2495 39.0987 58.9721 39.3013 58.7481 39.632C58.5348 39.9627 58.3428 40.368 58.1721 40.848L56.1721 46.56C55.8735 47.424 55.5908 48.1333 55.3241 48.688C55.0575 49.2533 54.7588 49.6693 54.4281 49.936C54.0975 50.2027 53.6868 50.336 53.1961 50.336ZM63.948 46.256C63.1693 46.256 62.4813 46.0853 61.884 45.744C61.2867 45.392 60.8227 44.9013 60.492 44.272C60.1613 43.632 59.996 42.88 59.996 42.016C59.996 41.2693 60.1613 40.5707 60.492 39.92C60.8227 39.2693 61.2867 38.7467 61.884 38.352C62.492 37.9467 63.196 37.744 63.996 37.744C64.444 37.744 64.8813 37.808 65.308 37.936C65.7347 38.0533 66.1187 38.2613 66.46 38.56C66.812 38.8587 67.0893 39.264 67.292 39.776C67.5053 40.288 67.6067 40.928 67.596 41.696L62.348 41.792C62.348 42.368 62.4173 42.8853 62.556 43.344C62.7053 43.8027 62.9453 44.1653 63.276 44.432C63.6067 44.6987 64.0493 44.832 64.604 44.832C64.8173 44.832 65.0573 44.7947 65.324 44.72C65.6013 44.6453 65.8787 44.5227 66.156 44.352C66.444 44.1707 66.7107 43.9307 66.956 43.632L67.676 44.304C67.292 44.848 66.8813 45.264 66.444 45.552C66.0067 45.8293 65.5693 46.016 65.132 46.112C64.7053 46.208 64.3107 46.256 63.948 46.256ZM62.444 40.672H65.388C65.3773 40.224 65.3133 39.872 65.196 39.616C65.0893 39.3493 64.94 39.1573 64.748 39.04C64.556 38.9227 64.332 38.864 64.076 38.864C63.6067 38.864 63.2387 39.0347 62.972 39.376C62.7053 39.7067 62.5293 40.1387 62.444 40.672ZM68.7654 44.96C69.064 44.96 69.2774 44.9013 69.4054 44.784C69.5334 44.6667 69.6134 44.5013 69.6454 44.288C69.688 44.064 69.7094 43.8133 69.7094 43.536V40.848C69.7094 40.656 69.7147 40.4427 69.7254 40.208C69.736 39.9627 69.752 39.7227 69.7734 39.488C69.6027 39.4987 69.4 39.5093 69.1654 39.52C68.9414 39.52 68.7707 39.5253 68.6534 39.536V38.32H69.2934C69.7094 38.32 70.088 38.2667 70.4294 38.16C70.7814 38.0533 71.0107 37.9467 71.1174 37.84H71.9014C71.9227 37.9467 71.9387 38.1493 71.9494 38.448C71.96 38.736 71.9654 38.992 71.9654 39.216C72.2534 38.864 72.5254 38.5813 72.7814 38.368C73.0374 38.1547 73.288 38 73.5334 37.904C73.7894 37.7973 74.0454 37.744 74.3014 37.744C74.6747 37.744 75 37.8507 75.2774 38.064C75.5547 38.2667 75.6934 38.6027 75.6934 39.072C75.6934 39.232 75.656 39.4027 75.5814 39.584C75.5067 39.7547 75.3894 39.8987 75.2294 40.016C75.0694 40.1333 74.8507 40.192 74.5734 40.192C74.36 40.192 74.1414 40.128 73.9174 40C73.6934 39.872 73.5654 39.6267 73.5334 39.264C73.32 39.264 73.1067 39.3547 72.8934 39.536C72.68 39.7067 72.488 39.9147 72.3174 40.16C72.1574 40.3947 72.0454 40.6133 71.9814 40.816V43.424C71.9814 43.5733 71.976 43.7867 71.9654 44.064C71.9547 44.3307 71.9387 44.5867 71.9174 44.832C72.088 44.8107 72.2747 44.8 72.4774 44.8C72.6907 44.7893 72.8507 44.784 72.9574 44.784V46H68.7654V44.96ZM76.0031 46V44.944C76.2485 44.9333 76.4511 44.9013 76.6111 44.848C76.7818 44.7947 76.9098 44.672 76.9951 44.48C77.0911 44.288 77.1391 43.9787 77.1391 43.552V37.424C77.1391 37.136 77.1445 36.8587 77.1551 36.592C77.1765 36.3253 77.1925 36.1227 77.2031 35.984C77.0325 35.9947 76.8191 36.0053 76.5631 36.016C76.3071 36.016 76.1205 36.0213 76.0031 36.032V34.8H84.0031L84.0991 37.904H83.0431C83.0431 37.3173 82.9418 36.8747 82.7391 36.576C82.5365 36.2773 82.2858 36.08 81.9871 35.984C81.6885 35.8773 81.3951 35.8293 81.1071 35.84L80.5311 35.856C80.3071 35.856 80.1151 35.888 79.9551 35.952C79.7951 36.0053 79.6725 36.1333 79.5871 36.336C79.5018 36.528 79.4591 36.832 79.4591 37.248V40.032H81.1071L81.0431 38.656H82.2751V42.544H81.2191C81.2191 42.096 81.1498 41.7707 81.0111 41.568C80.8725 41.3653 80.6805 41.2427 80.4351 41.2C80.2005 41.1467 79.9391 41.1253 79.6511 41.136H79.4591V43.376C79.4591 43.664 79.4538 43.9413 79.4431 44.208C79.4325 44.4747 79.4165 44.6773 79.3951 44.816C79.5125 44.8053 79.6671 44.8 79.8591 44.8C80.0511 44.7893 80.2378 44.784 80.4191 44.784C80.6111 44.7733 80.7445 44.768 80.8191 44.768V46H76.0031ZM88.2479 46.256C87.4799 46.256 86.7865 46.0907 86.1679 45.76C85.5492 45.4293 85.0585 44.96 84.6959 44.352C84.3439 43.7333 84.1679 43.008 84.1679 42.176C84.1679 41.2907 84.3492 40.5173 84.7119 39.856C85.0852 39.184 85.5759 38.6667 86.1839 38.304C86.8025 37.9307 87.4745 37.744 88.1999 37.744C88.9679 37.744 89.6559 37.9093 90.2639 38.24C90.8719 38.5707 91.3519 39.0453 91.7039 39.664C92.0559 40.272 92.2319 41.0027 92.2319 41.856C92.2319 42.752 92.0612 43.5307 91.7199 44.192C91.3785 44.8533 90.9092 45.3653 90.3119 45.728C89.7145 46.08 89.0265 46.256 88.2479 46.256ZM88.3119 45.12C88.7385 45.1093 89.0585 44.96 89.2719 44.672C89.4959 44.384 89.6505 44.0213 89.7359 43.584C89.8212 43.1467 89.8639 42.704 89.8639 42.256C89.8639 41.8613 89.8319 41.4613 89.7679 41.056C89.7145 40.6507 89.6239 40.2827 89.4959 39.952C89.3679 39.6213 89.1919 39.3547 88.9679 39.152C88.7545 38.9493 88.4879 38.8533 88.1679 38.864C87.7519 38.8747 87.4212 39.024 87.1759 39.312C86.9412 39.6 86.7705 39.9627 86.6639 40.4C86.5679 40.8267 86.5199 41.2747 86.5199 41.744C86.5199 42.288 86.5785 42.8213 86.6959 43.344C86.8132 43.8667 86.9999 44.2987 87.2559 44.64C87.5225 44.9707 87.8745 45.1307 88.3119 45.12ZM93.3904 44.96C93.689 44.96 93.9024 44.9013 94.0304 44.784C94.1584 44.6667 94.2384 44.5013 94.2704 44.288C94.313 44.064 94.3344 43.8133 94.3344 43.536V40.848C94.3344 40.656 94.3397 40.4427 94.3504 40.208C94.361 39.9627 94.377 39.7227 94.3984 39.488C94.2277 39.4987 94.025 39.5093 93.7904 39.52C93.5664 39.52 93.3957 39.5253 93.2784 39.536V38.32H93.9184C94.3344 38.32 94.713 38.2667 95.0544 38.16C95.4064 38.0533 95.6357 37.9467 95.7424 37.84H96.5264C96.5477 37.9467 96.5637 38.1493 96.5744 38.448C96.585 38.736 96.5904 38.992 96.5904 39.216C96.8784 38.864 97.1504 38.5813 97.4064 38.368C97.6624 38.1547 97.913 38 98.1584 37.904C98.4144 37.7973 98.6704 37.744 98.9264 37.744C99.2997 37.744 99.625 37.8507 99.9024 38.064C100.18 38.2667 100.318 38.6027 100.318 39.072C100.318 39.232 100.281 39.4027 100.206 39.584C100.132 39.7547 100.014 39.8987 99.8544 40.016C99.6944 40.1333 99.4757 40.192 99.1984 40.192C98.985 40.192 98.7664 40.128 98.5424 40C98.3184 39.872 98.1904 39.6267 98.1584 39.264C97.945 39.264 97.7317 39.3547 97.5184 39.536C97.305 39.7067 97.113 39.9147 96.9424 40.16C96.7824 40.3947 96.6704 40.6133 96.6064 40.816V43.424C96.6064 43.5733 96.601 43.7867 96.5904 44.064C96.5797 44.3307 96.5637 44.5867 96.5424 44.832C96.713 44.8107 96.8997 44.8 97.1024 44.8C97.3157 44.7893 97.4757 44.784 97.5824 44.784V46H93.3904V44.96ZM104.901 46.096L101.221 37.504C101.115 37.2373 101.013 36.96 100.917 36.672C100.821 36.384 100.773 36.1547 100.773 35.984C100.603 35.9947 100.443 36.0053 100.293 36.016C100.155 36.016 100.027 36.0213 99.9093 36.032V34.8H104.629V35.856C104.235 35.8453 103.931 35.9307 103.717 36.112C103.515 36.2933 103.509 36.6187 103.701 37.088C103.947 37.6853 104.192 38.288 104.437 38.896C104.683 39.504 104.928 40.1067 105.173 40.704C105.355 41.152 105.509 41.5467 105.637 41.888C105.765 42.2187 105.915 42.5867 106.085 42.992H106.101C106.219 42.672 106.341 42.3147 106.469 41.92C106.608 41.5253 106.741 41.1467 106.869 40.784C107.008 40.4107 107.141 40.0373 107.269 39.664C107.408 39.2907 107.547 38.9227 107.685 38.56C107.824 38.1867 107.957 37.8133 108.085 37.44C108.139 37.2587 108.224 37.0133 108.341 36.704C108.469 36.3947 108.603 36.1547 108.741 35.984C108.571 35.9947 108.352 36.0053 108.085 36.016C107.819 36.016 107.627 36.0213 107.509 36.032V34.8H111.109V35.856C110.747 35.8667 110.432 36 110.165 36.256C109.899 36.512 109.648 36.9493 109.413 37.568C109.232 38.0373 109.051 38.512 108.869 38.992C108.699 39.4613 108.523 39.936 108.341 40.416C108.171 40.8853 107.995 41.36 107.813 41.84C107.632 42.3093 107.451 42.784 107.269 43.264C107.099 43.7333 106.923 44.2027 106.741 44.672C106.571 45.1413 106.395 45.616 106.213 46.096H104.901ZM111.359 44.96C111.658 44.96 111.871 44.9013 111.999 44.784C112.127 44.6667 112.207 44.5013 112.239 44.288C112.282 44.064 112.303 43.8133 112.303 43.536V40.88C112.303 40.688 112.308 40.4693 112.319 40.224C112.33 39.968 112.346 39.7227 112.367 39.488C112.196 39.4987 111.994 39.5093 111.759 39.52C111.535 39.52 111.364 39.5253 111.247 39.536V38.32C111.738 38.32 112.154 38.2933 112.495 38.24C112.836 38.1867 113.103 38.1227 113.295 38.048C113.498 37.9733 113.636 37.904 113.711 37.84H114.575V43.424C114.575 43.5733 114.57 43.7867 114.559 44.064C114.548 44.3307 114.532 44.5867 114.511 44.832C114.682 44.8107 114.868 44.8 115.071 44.8C115.284 44.7893 115.444 44.784 115.551 44.784V46H111.359V44.96ZM113.359 36.576C112.996 36.576 112.698 36.448 112.463 36.192C112.228 35.936 112.111 35.6267 112.111 35.264C112.111 34.9013 112.234 34.592 112.479 34.336C112.724 34.08 113.012 33.952 113.343 33.952C113.684 33.952 113.967 34.08 114.191 34.336C114.426 34.592 114.543 34.9013 114.543 35.264C114.543 35.6267 114.436 35.936 114.223 36.192C114.01 36.448 113.722 36.576 113.359 36.576ZM120.274 46.256C119.815 46.256 119.367 46.1973 118.93 46.08C118.492 45.9627 118.151 45.8133 117.906 45.632L117.938 46.112H116.722L116.658 43.36H117.698C117.73 43.68 117.858 43.9733 118.082 44.24C118.306 44.5067 118.599 44.72 118.962 44.88C119.324 45.0293 119.73 45.104 120.178 45.104C120.359 45.104 120.53 45.0773 120.69 45.024C120.86 44.9707 120.999 44.8853 121.106 44.768C121.223 44.64 121.282 44.4853 121.282 44.304C121.282 44.1013 121.207 43.936 121.058 43.808C120.919 43.68 120.711 43.5573 120.434 43.44C120.167 43.3227 119.831 43.1893 119.426 43.04C119.095 42.912 118.759 42.7787 118.418 42.64C118.087 42.5013 117.778 42.336 117.49 42.144C117.212 41.9413 116.988 41.696 116.818 41.408C116.647 41.1093 116.562 40.7467 116.562 40.32C116.562 40.0107 116.62 39.7067 116.738 39.408C116.855 39.0987 117.036 38.8213 117.282 38.576C117.527 38.32 117.836 38.1173 118.21 37.968C118.594 37.8187 119.047 37.744 119.57 37.744C119.858 37.744 120.183 37.792 120.546 37.888C120.919 37.9733 121.234 38.1067 121.49 38.288V37.824H122.706V40.656H121.666C121.602 40.2827 121.468 39.9627 121.266 39.696C121.074 39.4293 120.823 39.2267 120.514 39.088C120.204 38.9387 119.858 38.864 119.474 38.864C119.207 38.864 118.962 38.928 118.738 39.056C118.524 39.184 118.418 39.4027 118.418 39.712C118.418 39.9573 118.503 40.1547 118.674 40.304C118.844 40.4427 119.079 40.56 119.378 40.656C119.676 40.752 120.007 40.864 120.37 40.992C120.914 41.1733 121.394 41.3867 121.81 41.632C122.236 41.8773 122.572 42.176 122.818 42.528C123.063 42.8693 123.186 43.2907 123.186 43.792C123.186 44.3467 123.047 44.8053 122.77 45.168C122.492 45.5307 122.13 45.8027 121.682 45.984C121.244 46.1653 120.775 46.256 120.274 46.256ZM128.807 46C128.786 45.8507 128.77 45.728 128.759 45.632C128.759 45.5253 128.754 45.4027 128.743 45.264C128.38 45.6267 127.996 45.8827 127.591 46.032C127.186 46.1813 126.775 46.256 126.359 46.256C125.676 46.256 125.143 46.0533 124.759 45.648C124.375 45.2427 124.183 44.736 124.183 44.128C124.183 43.616 124.311 43.1787 124.567 42.816C124.834 42.4533 125.18 42.16 125.607 41.936C126.044 41.7013 126.524 41.5253 127.047 41.408C127.58 41.28 128.114 41.2053 128.647 41.184V40.352C128.647 40.0747 128.61 39.824 128.535 39.6C128.471 39.376 128.354 39.2 128.183 39.072C128.023 38.944 127.794 38.8853 127.495 38.896C127.292 38.9067 127.095 38.9493 126.903 39.024C126.711 39.0987 126.546 39.2053 126.407 39.344C126.492 39.44 126.546 39.5467 126.567 39.664C126.588 39.7707 126.599 39.8667 126.599 39.952C126.599 40.1653 126.514 40.3893 126.343 40.624C126.172 40.848 125.9 40.9547 125.527 40.944C125.207 40.9333 124.962 40.8213 124.791 40.608C124.62 40.3947 124.535 40.144 124.535 39.856C124.535 39.4293 124.684 39.0613 124.983 38.752C125.292 38.432 125.703 38.1867 126.215 38.016C126.727 37.8347 127.292 37.744 127.911 37.744C128.85 37.744 129.575 37.9893 130.087 38.48C130.61 38.96 130.871 39.7333 130.871 40.8C130.871 41.1627 130.871 41.472 130.871 41.728C130.871 41.984 130.866 42.24 130.855 42.496C130.855 42.752 130.855 43.0613 130.855 43.424C130.855 43.5733 130.85 43.7867 130.839 44.064C130.828 44.3307 130.812 44.5867 130.791 44.832C130.972 44.8107 131.164 44.8 131.367 44.8C131.57 44.7893 131.724 44.784 131.831 44.784V46H128.807ZM128.631 42.32C128.332 42.352 128.05 42.4053 127.783 42.48C127.516 42.5547 127.282 42.656 127.079 42.784C126.887 42.912 126.732 43.0667 126.615 43.248C126.508 43.4293 126.455 43.632 126.455 43.856C126.466 44.1547 126.562 44.368 126.743 44.496C126.924 44.624 127.132 44.688 127.367 44.688C127.612 44.688 127.842 44.6347 128.055 44.528C128.268 44.4213 128.46 44.2827 128.631 44.112C128.631 44.0053 128.631 43.904 128.631 43.808C128.631 43.7013 128.631 43.5947 128.631 43.488C128.631 43.296 128.631 43.104 128.631 42.912C128.631 42.7093 128.631 42.512 128.631 42.32Z" fill="#5F2900"/>
<rect x="339.5" y="20.5" width="39" height="39" rx="1.5" stroke="#FFEFE4"/>
<path d="M351 33H367" stroke="#FFEFE4" stroke-width="1.5" stroke-linecap="round" stroke-linejoin="round"/>
<path d="M351 40H367" stroke="#FFEFE4" stroke-width="1.5" stroke-linecap="round" stroke-linejoin="round"/>
<path d="M351 47H367" stroke="#FFEFE4" stroke-width="1.5" stroke-linecap="round" stroke-linejoin="round"/>
<path d="M20.8 106V104.944C21.0453 104.933 21.248 104.901 21.408 104.848C21.5787 104.795 21.7067 104.672 21.792 104.48C21.888 104.288 21.936 103.979 21.936 103.552V97.424C21.936 97.136 21.9413 96.8587 21.952 96.592C21.9733 96.3253 21.9893 96.1227 22 95.984C21.8293 95.9947 21.616 96.0053 21.36 96.016C21.104 96.016 20.9173 96.0213 20.8 96.032V94.8H25.392V95.856C25.1573 95.8667 24.9547 95.8987 24.784 95.952C24.6133 96.0053 24.48 96.128 24.384 96.32C24.2987 96.5013 24.256 96.8107 24.256 97.248V103.376C24.256 103.664 24.2507 103.936 24.24 104.192C24.2293 104.448 24.2133 104.645 24.192 104.784H26.336C26.9653 104.784 27.456 104.565 27.808 104.128C28.1707 103.691 28.352 103.035 28.352 102.16H29.424L29.328 106H20.8ZM34.7603 106C34.7389 105.851 34.7229 105.728 34.7123 105.632C34.7123 105.525 34.7069 105.403 34.6963 105.264C34.3336 105.627 33.9496 105.883 33.5443 106.032C33.1389 106.181 32.7283 106.256 32.3123 106.256C31.6296 106.256 31.0963 106.053 30.7122 105.648C30.3283 105.243 30.1363 104.736 30.1363 104.128C30.1363 103.616 30.2643 103.179 30.5203 102.816C30.7869 102.453 31.1336 102.16 31.5603 101.936C31.9976 101.701 32.4776 101.525 33.0003 101.408C33.5336 101.28 34.0669 101.205 34.6003 101.184V100.352C34.6003 100.075 34.5629 99.824 34.4883 99.6C34.4243 99.376 34.3069 99.2 34.1363 99.072C33.9763 98.944 33.7469 98.8853 33.4483 98.896C33.2456 98.9067 33.0483 98.9493 32.8563 99.024C32.6643 99.0987 32.4989 99.2053 32.3603 99.344C32.4456 99.44 32.4989 99.5467 32.5203 99.664C32.5416 99.7707 32.5523 99.8667 32.5523 99.952C32.5523 100.165 32.4669 100.389 32.2963 100.624C32.1256 100.848 31.8536 100.955 31.4803 100.944C31.1603 100.933 30.9149 100.821 30.7443 100.608C30.5736 100.395 30.4883 100.144 30.4883 99.856C30.4883 99.4293 30.6376 99.0613 30.9363 98.752C31.2456 98.432 31.6563 98.1867 32.1683 98.016C32.6803 97.8347 33.2456 97.744 33.8643 97.744C34.8029 97.744 35.5283 97.9893 36.0403 98.48C36.5629 98.96 36.8243 99.7333 36.8243 100.8C36.8243 101.163 36.8243 101.472 36.8243 101.728C36.8243 101.984 36.8189 102.24 36.8083 102.496C36.8083 102.752 36.8083 103.061 36.8083 103.424C36.8083 103.573 36.8029 103.787 36.7923 104.064C36.7816 104.331 36.7656 104.587 36.7443 104.832C36.9256 104.811 37.1176 104.8 37.3203 104.8C37.5229 104.789 37.6776 104.784 37.7843 104.784V106H34.7603ZM34.5843 102.32C34.2856 102.352 34.0029 102.405 33.7363 102.48C33.4696 102.555 33.2349 102.656 33.0323 102.784C32.8403 102.912 32.6856 103.067 32.5683 103.248C32.4616 103.429 32.4083 103.632 32.4083 103.856C32.4189 104.155 32.5149 104.368 32.6963 104.496C32.8776 104.624 33.0856 104.688 33.3203 104.688C33.5656 104.688 33.7949 104.635 34.0083 104.528C34.2216 104.421 34.4136 104.283 34.5843 104.112C34.5843 104.005 34.5843 103.904 34.5843 103.808C34.5843 103.701 34.5843 103.595 34.5843 103.488C34.5843 103.296 34.5843 103.104 34.5843 102.912C34.5843 102.709 34.5843 102.512 34.5843 102.32ZM40.9474 106.048L39.0114 100.496C38.9154 100.219 38.8407 100.011 38.7874 99.872C38.7447 99.7333 38.7127 99.616 38.6914 99.52C38.67 99.424 38.6434 99.312 38.6114 99.184L37.9874 99.216V98H41.8274V99.024C41.4967 99.0347 41.3047 99.1627 41.2514 99.408C41.198 99.6533 41.214 99.9413 41.2994 100.272L41.8434 102.224C41.9074 102.459 41.966 102.709 42.0194 102.976C42.0834 103.232 42.1367 103.488 42.1794 103.744C42.2327 103.52 42.286 103.275 42.3394 103.008C42.4034 102.741 42.494 102.411 42.6114 102.016L43.7794 98H45.5234L46.8034 102.416C46.8674 102.64 46.9314 102.885 46.9954 103.152C47.07 103.408 47.134 103.643 47.1874 103.856C47.23 103.643 47.2887 103.408 47.3634 103.152C47.438 102.896 47.5074 102.667 47.5714 102.464L48.1954 100.432C48.2807 100.144 48.3554 99.9093 48.4194 99.728C48.4834 99.536 48.5634 99.344 48.6594 99.152L47.7474 99.216V98H50.7874V99.024C50.574 99.024 50.3874 99.0933 50.2274 99.232C50.0674 99.3707 49.9234 99.5413 49.7954 99.744C49.678 99.936 49.582 100.128 49.5074 100.32C49.4327 100.501 49.3794 100.645 49.3474 100.752L47.5234 106.048H45.8274L44.7234 102.64C44.6914 102.523 44.638 102.352 44.5634 102.128C44.4994 101.904 44.43 101.664 44.3554 101.408C44.2914 101.141 44.2274 100.896 44.1634 100.672C44.11 100.971 44.03 101.312 43.9234 101.696C43.8167 102.08 43.7154 102.432 43.6194 102.752C43.5234 103.072 43.454 103.291 43.4114 103.408L42.5314 106.048H40.9474ZM53.1961 110.336C52.7908 110.336 52.4441 110.213 52.1561 109.968C51.8788 109.733 51.7401 109.419 51.7401 109.024C51.7401 108.736 51.8308 108.48 52.0121 108.256C52.2041 108.043 52.4495 107.931 52.7481 107.92C52.9828 107.909 53.1801 107.984 53.3401 108.144C53.5108 108.315 53.5961 108.544 53.5961 108.832C53.5961 108.864 53.5961 108.896 53.5961 108.928C53.5961 108.96 53.5908 108.997 53.5801 109.04C53.6015 109.04 53.6281 109.035 53.6601 109.024C53.7561 108.992 53.8575 108.901 53.9641 108.752C54.0815 108.613 54.1935 108.427 54.3001 108.192C54.4175 107.947 54.5295 107.669 54.6361 107.36C54.7535 107.061 54.8548 106.747 54.9401 106.416L52.4121 101.344C52.1135 100.747 51.9161 100.299 51.8201 100C51.7348 99.6907 51.6761 99.4187 51.6441 99.184L50.9081 99.216V98H54.8921V99.024C54.4975 99.0667 54.2788 99.216 54.2361 99.472C54.2041 99.728 54.2521 99.9947 54.3801 100.272L55.9481 103.856C56.0548 103.579 56.1935 103.152 56.3641 102.576C56.5348 101.989 56.7375 101.355 56.9721 100.672C57.0148 100.533 57.0681 100.373 57.1321 100.192C57.2068 100 57.2868 99.8133 57.3721 99.632C57.4575 99.44 57.5481 99.2853 57.6441 99.168L56.7321 99.216V98H59.5801V99.024C59.2495 99.0987 58.9721 99.3013 58.7481 99.632C58.5348 99.9627 58.3428 100.368 58.1721 100.848L56.1721 106.56C55.8735 107.424 55.5908 108.133 55.3241 108.688C55.0575 109.253 54.7588 109.669 54.4281 109.936C54.0975 110.203 53.6868 110.336 53.1961 110.336ZM63.948 106.256C63.1693 106.256 62.4813 106.085 61.884 105.744C61.2867 105.392 60.8227 104.901 60.492 104.272C60.1613 103.632 59.996 102.88 59.996 102.016C59.996 101.269 60.1613 100.571 60.492 99.92C60.8227 99.2693 61.2867 98.7467 61.884 98.352C62.492 97.9467 63.196 97.744 63.996 97.744C64.444 97.744 64.8813 97.808 65.308 97.936C65.7347 98.0533 66.1187 98.2613 66.46 98.56C66.812 98.8587 67.0893 99.264 67.292 99.776C67.5053 100.288 67.6067 100.928 67.596 101.696L62.348 101.792C62.348 102.368 62.4173 102.885 62.556 103.344C62.7053 103.803 62.9453 104.165 63.276 104.432C63.6067 104.699 64.0493 104.832 64.604 104.832C64.8173 104.832 65.0573 104.795 65.324 104.72C65.6013 104.645 65.8787 104.523 66.156 104.352C66.444 104.171 66.7107 103.931 66.956 103.632L67.676 104.304C67.292 104.848 66.8813 105.264 66.444 105.552C66.0067 105.829 65.5693 106.016 65.132 106.112C64.7053 106.208 64.3107 106.256 63.948 106.256ZM62.444 100.672H65.388C65.3773 100.224 65.3133 99.872 65.196 99.616C65.0893 99.3493 64.94 99.1573 64.748 99.04C64.556 98.9227 64.332 98.864 64.076 98.864C63.6067 98.864 63.2387 99.0347 62.972 99.376C62.7053 99.7067 62.5293 100.139 62.444 100.672ZM68.7654 104.96C69.064 104.96 69.2774 104.901 69.4054 104.784C69.5334 104.667 69.6134 104.501 69.6454 104.288C69.688 104.064 69.7094 103.813 69.7094 103.536V100.848C69.7094 100.656 69.7147 100.443 69.7254 100.208C69.736 99.9627 69.752 99.7227 69.7734 99.488C69.6027 99.4987 69.4 99.5093 69.1654 99.52C68.9414 99.52 68.7707 99.5253 68.6534 99.536V98.32H69.2934C69.7094 98.32 70.088 98.2667 70.4294 98.16C70.7814 98.0533 71.0107 97.9467 71.1174 97.84H71.9014C71.9227 97.9467 71.9387 98.1493 71.9494 98.448C71.96 98.736 71.9654 98.992 71.9654 99.216C72.2534 98.864 72.5254 98.5813 72.7814 98.368C73.0374 98.1547 73.288 98 73.5334 97.904C73.7894 97.7973 74.0454 97.744 74.3014 97.744C74.6747 97.744 75 97.8507 75.2774 98.064C75.5547 98.2667 75.6934 98.6027 75.6934 99.072C75.6934 99.232 75.656 99.4027 75.5814 99.584C75.5067 99.7547 75.3894 99.8987 75.2294 100.016C75.0694 100.133 74.8507 100.192 74.5734 100.192C74.36 100.192 74.1414 100.128 73.9174 100C73.6934 99.872 73.5654 99.6267 73.5334 99.264C73.32 99.264 73.1067 99.3547 72.8934 99.536C72.68 99.7067 72.488 99.9147 72.3174 100.16C72.1574 100.395 72.0454 100.613 71.9814 100.816V103.424C71.9814 103.573 71.976 103.787 71.9654 104.064C71.9547 104.331 71.9387 104.587 71.9174 104.832C72.088 104.811 72.2747 104.8 72.4774 104.8C72.6907 104.789 72.8507 104.784 72.9574 104.784V106H68.7654V104.96ZM76.0031 106V104.944C76.2485 104.933 76.4511 104.901 76.6111 104.848C76.7818 104.795 76.9098 104.672 76.9951 104.48C77.0911 104.288 77.1391 103.979 77.1391 103.552V97.424C77.1391 97.136 77.1445 96.8587 77.1551 96.592C77.1765 96.3253 77.1925 96.1227 77.2031 95.984C77.0325 95.9947 76.8191 96.0053 76.5631 96.016C76.3071 96.016 76.1205 96.0213 76.0031 96.032V94.8H84.0031L84.0991 97.904H83.0431C83.0431 97.3173 82.9418 96.8747 82.7391 96.576C82.5365 96.2773 82.2858 96.08 81.9871 95.984C81.6885 95.8773 81.3951 95.8293 81.1071 95.84L80.5311 95.856C80.3071 95.856 80.1151 95.888 79.9551 95.952C79.7951 96.0053 79.6725 96.1333 79.5871 96.336C79.5018 96.528 79.4591 96.832 79.4591 97.248V100.032H81.1071L81.0431 98.656H82.2751V102.544H81.2191C81.2191 102.096 81.1498 101.771 81.0111 101.568C80.8725 101.365 80.6805 101.243 80.4351 101.2C80.2005 101.147 79.9391 101.125 79.6511 101.136H79.4591V103.376C79.4591 103.664 79.4538 103.941 79.4431 104.208C79.4325 104.475 79.4165 104.677 79.3951 104.816C79.5125 104.805 79.6671 104.8 79.8591 104.8C80.0511 104.789 80.2378 104.784 80.4191 104.784C80.6111 104.773 80.7445 104.768 80.8191 104.768V106H76.0031ZM88.2479 106.256C87.4799 106.256 86.7865 106.091 86.1679 105.76C85.5492 105.429 85.0585 104.96 84.6959 104.352C84.3439 103.733 84.1679 103.008 84.1679 102.176C84.1679 101.291 84.3492 100.517 84.7119 99.856C85.0852 99.184 85.5759 98.6667 86.1839 98.304C86.8025 97.9307 87.4745 97.744 88.1999 97.744C88.9679 97.744 89.6559 97.9093 90.2639 98.24C90.8719 98.5707 91.3519 99.0453 91.7039 99.664C92.0559 100.272 92.2319 101.003 92.2319 101.856C92.2319 102.752 92.0612 103.531 91.7199 104.192C91.3785 104.853 90.9092 105.365 90.3119 105.728C89.7145 106.08 89.0265 106.256 88.2479 106.256ZM88.3119 105.12C88.7385 105.109 89.0585 104.96 89.2719 104.672C89.4959 104.384 89.6505 104.021 89.7359 103.584C89.8212 103.147 89.8639 102.704 89.8639 102.256C89.8639 101.861 89.8319 101.461 89.7679 101.056C89.7145 100.651 89.6239 100.283 89.4959 99.952C89.3679 99.6213 89.1919 99.3547 88.9679 99.152C88.7545 98.9493 88.4879 98.8533 88.1679 98.864C87.7519 98.8747 87.4212 99.024 87.1759 99.312C86.9412 99.6 86.7705 99.9627 86.6639 100.4C86.5679 100.827 86.5199 101.275 86.5199 101.744C86.5199 102.288 86.5785 102.821 86.6959 103.344C86.8132 103.867 86.9999 104.299 87.2559 104.64C87.5225 104.971 87.8745 105.131 88.3119 105.12ZM93.3904 104.96C93.689 104.96 93.9024 104.901 94.0304 104.784C94.1584 104.667 94.2384 104.501 94.2704 104.288C94.313 104.064 94.3344 103.813 94.3344 103.536V100.848C94.3344 100.656 94.3397 100.443 94.3504 100.208C94.361 99.9627 94.377 99.7227 94.3984 99.488C94.2277 99.4987 94.025 99.5093 93.7904 99.52C93.5664 99.52 93.3957 99.5253 93.2784 99.536V98.32H93.9184C94.3344 98.32 94.713 98.2667 95.0544 98.16C95.4064 98.0533 95.6357 97.9467 95.7424 97.84H96.5264C96.5477 97.9467 96.5637 98.1493 96.5744 98.448C96.585 98.736 96.5904 98.992 96.5904 99.216C96.8784 98.864 97.1504 98.5813 97.4064 98.368C97.6624 98.1547 97.913 98 98.1584 97.904C98.4144 97.7973 98.6704 97.744 98.9264 97.744C99.2997 97.744 99.625 97.8507 99.9024 98.064C100.18 98.2667 100.318 98.6027 100.318 99.072C100.318 99.232 100.281 99.4027 100.206 99.584C100.132 99.7547 100.014 99.8987 99.8544 100.016C99.6944 100.133 99.4757 100.192 99.1984 100.192C98.985 100.192 98.7664 100.128 98.5424 100C98.3184 99.872 98.1904 99.6267 98.1584 99.264C97.945 99.264 97.7317 99.3547 97.5184 99.536C97.305 99.7067 97.113 99.9147 96.9424 100.16C96.7824 100.395 96.6704 100.613 96.6064 100.816V103.424C96.6064 103.573 96.601 103.787 96.5904 104.064C96.5797 104.331 96.5637 104.587 96.5424 104.832C96.713 104.811 96.8997 104.8 97.1024 104.8C97.3157 104.789 97.4757 104.784 97.5824 104.784V106H93.3904V104.96ZM104.901 106.096L101.221 97.504C101.115 97.2373 101.013 96.96 100.917 96.672C100.821 96.384 100.773 96.1547 100.773 95.984C100.603 95.9947 100.443 96.0053 100.293 96.016C100.155 96.016 100.027 96.0213 99.9093 96.032V94.8H104.629V95.856C104.235 95.8453 103.931 95.9307 103.717 96.112C103.515 96.2933 103.509 96.6187 103.701 97.088C103.947 97.6853 104.192 98.288 104.437 98.896C104.683 99.504 104.928 100.107 105.173 100.704C105.355 101.152 105.509 101.547 105.637 101.888C105.765 102.219 105.915 102.587 106.085 102.992H106.101C106.219 102.672 106.341 102.315 106.469 101.92C106.608 101.525 106.741 101.147 106.869 100.784C107.008 100.411 107.141 100.037 107.269 99.664C107.408 99.2907 107.547 98.9227 107.685 98.56C107.824 98.1867 107.957 97.8133 108.085 97.44C108.139 97.2587 108.224 97.0133 108.341 96.704C108.469 96.3947 108.603 96.1547 108.741 95.984C108.571 95.9947 108.352 96.0053 108.085 96.016C107.819 96.016 107.627 96.0213 107.509 96.032V94.8H111.109V95.856C110.747 95.8667 110.432 96 110.165 96.256C109.899 96.512 109.648 96.9493 109.413 97.568C109.232 98.0373 109.051 98.512 108.869 98.992C108.699 99.4613 108.523 99.936 108.341 100.416C108.171 100.885 107.995 101.36 107.813 101.84C107.632 102.309 107.451 102.784 107.269 103.264C107.099 103.733 106.923 104.203 106.741 104.672C106.571 105.141 106.395 105.616 106.213 106.096H104.901ZM111.359 104.96C111.658 104.96 111.871 104.901 111.999 104.784C112.127 104.667 112.207 104.501 112.239 104.288C112.282 104.064 112.303 103.813 112.303 103.536V100.88C112.303 100.688 112.308 100.469 112.319 100.224C112.33 99.968 112.346 99.7227 112.367 99.488C112.196 99.4987 111.994 99.5093 111.759 99.52C111.535 99.52 111.364 99.5253 111.247 99.536V98.32C111.738 98.32 112.154 98.2933 112.495 98.24C112.836 98.1867 113.103 98.1227 113.295 98.048C113.498 97.9733 113.636 97.904 113.711 97.84H114.575V103.424C114.575 103.573 114.57 103.787 114.559 104.064C114.548 104.331 114.532 104.587 114.511 104.832C114.682 104.811 114.868 104.8 115.071 104.8C115.284 104.789 115.444 104.784 115.551 104.784V106H111.359V104.96ZM113.359 96.576C112.996 96.576 112.698 96.448 112.463 96.192C112.228 95.936 112.111 95.6267 112.111 95.264C112.111 94.9013 112.234 94.592 112.479 94.336C112.724 94.08 113.012 93.952 113.343 93.952C113.684 93.952 113.967 94.08 114.191 94.336C114.426 94.592 114.543 94.9013 114.543 95.264C114.543 95.6267 114.436 95.936 114.223 96.192C114.01 96.448 113.722 96.576 113.359 96.576ZM120.274 106.256C119.815 106.256 119.367 106.197 118.93 106.08C118.492 105.963 118.151 105.813 117.906 105.632L117.938 106.112H116.722L116.658 103.36H117.698C117.73 103.68 117.858 103.973 118.082 104.24C118.306 104.507 118.599 104.72 118.962 104.88C119.324 105.029 119.73 105.104 120.178 105.104C120.359 105.104 120.53 105.077 120.69 105.024C120.86 104.971 120.999 104.885 121.106 104.768C121.223 104.64 121.282 104.485 121.282 104.304C121.282 104.101 121.207 103.936 121.058 103.808C120.919 103.68 120.711 103.557 120.434 103.44C120.167 103.323 119.831 103.189 119.426 103.04C119.095 102.912 118.759 102.779 118.418 102.64C118.087 102.501 117.778 102.336 117.49 102.144C117.212 101.941 116.988 101.696 116.818 101.408C116.647 101.109 116.562 100.747 116.562 100.32C116.562 100.011 116.62 99.7067 116.738 99.408C116.855 99.0987 117.036 98.8213 117.282 98.576C117.527 98.32 117.836 98.1173 118.21 97.968C118.594 97.8187 119.047 97.744 119.57 97.744C119.858 97.744 120.183 97.792 120.546 97.888C120.919 97.9733 121.234 98.1067 121.49 98.288V97.824H122.706V100.656H121.666C121.602 100.283 121.468 99.9627 121.266 99.696C121.074 99.4293 120.823 99.2267 120.514 99.088C120.204 98.9387 119.858 98.864 119.474 98.864C119.207 98.864 118.962 98.928 118.738 99.056C118.524 99.184 118.418 99.4027 118.418 99.712C118.418 99.9573 118.503 100.155 118.674 100.304C118.844 100.443 119.079 100.56 119.378 100.656C119.676 100.752 120.007 100.864 120.37 100.992C120.914 101.173 121.394 101.387 121.81 101.632C122.236 101.877 122.572 102.176 122.818 102.528C123.063 102.869 123.186 103.291 123.186 103.792C123.186 104.347 123.047 104.805 122.77 105.168C122.492 105.531 122.13 105.803 121.682 105.984C121.244 106.165 120.775 106.256 120.274 106.256ZM128.807 106C128.786 105.851 128.77 105.728 128.759 105.632C128.759 105.525 128.754 105.403 128.743 105.264C128.38 105.627 127.996 105.883 127.591 106.032C127.186 106.181 126.775 106.256 126.359 106.256C125.676 106.256 125.143 106.053 124.759 105.648C124.375 105.243 124.183 104.736 124.183 104.128C124.183 103.616 124.311 103.179 124.567 102.816C124.834 102.453 125.18 102.16 125.607 101.936C126.044 101.701 126.524 101.525 127.047 101.408C127.58 101.28 128.114 101.205 128.647 101.184V100.352C128.647 100.075 128.61 99.824 128.535 99.6C128.471 99.376 128.354 99.2 128.183 99.072C128.023 98.944 127.794 98.8853 127.495 98.896C127.292 98.9067 127.095 98.9493 126.903 99.024C126.711 99.0987 126.546 99.2053 126.407 99.344C126.492 99.44 126.546 99.5467 126.567 99.664C126.588 99.7707 126.599 99.8667 126.599 99.952C126.599 100.165 126.514 100.389 126.343 100.624C126.172 100.848 125.9 100.955 125.527 100.944C125.207 100.933 124.962 100.821 124.791 100.608C124.62 100.395 124.535 100.144 124.535 99.856C124.535 99.4293 124.684 99.0613 124.983 98.752C125.292 98.432 125.703 98.1867 126.215 98.016C126.727 97.8347 127.292 97.744 127.911 97.744C128.85 97.744 129.575 97.9893 130.087 98.48C130.61 98.96 130.871 99.7333 130.871 100.8C130.871 101.163 130.871 101.472 130.871 101.728C130.871 101.984 130.866 102.24 130.855 102.496C130.855 102.752 130.855 103.061 130.855 103.424C130.855 103.573 130.85 103.787 130.839 104.064C130.828 104.331 130.812 104.587 130.791 104.832C130.972 104.811 131.164 104.8 131.367 104.8C131.57 104.789 131.724 104.784 131.831 104.784V106H128.807ZM128.631 102.32C128.332 102.352 128.05 102.405 127.783 102.48C127.516 102.555 127.282 102.656 127.079 102.784C126.887 102.912 126.732 103.067 126.615 103.248C126.508 103.429 126.455 103.632 126.455 103.856C126.466 104.155 126.562 104.368 126.743 104.496C126.924 104.624 127.132 104.688 127.367 104.688C127.612 104.688 127.842 104.635 128.055 104.528C128.268 104.421 128.46 104.283 128.631 104.112C128.631 104.005 128.631 103.904 128.631 103.808C128.631 103.701 128.631 103.595 128.631 103.488C128.631 103.296 128.631 103.104 128.631 102.912C128.631 102.709 128.631 102.512 128.631 102.32Z" fill="#5F2900"/>
<rect x="339.5" y="80.5" width="39" height="39" rx="1.5" stroke="#FFEFE4"/>
<path d="M351 93H367" stroke="#FFEFE4" stroke-width="1.5" stroke-linecap="round" stroke-linejoin="round"/>
<path d="M351 100H367" stroke="#FFEFE4" stroke-width="1.5" stroke-linecap="round" stroke-linejoin="round"/>
<path d="M351 107H367" stroke="#FFEFE4" stroke-width="1.5" stroke-linecap="round" stroke-linejoin="round"/>
<rect width="359" height="200" transform="translate(20 136)" fill="white" fill-opacity="0.3"/>
<mask id="path-12-inside-1_294_3981" fill="white">
<path d="M20 136H379V178H20V136Z"/>
</mask>
<path d="M379 178V177H20V178V179H379V178Z" fill="#FFEFE4" mask="url(#path-12-inside-1_294_3981)"/>
<path d="M185.324 151.348V162.5H183.868V157.444H178.188V162.5H176.732V151.348H178.188V156.244H183.868V151.348H185.324ZM191.634 162.644C190.813 162.644 190.066 162.457 189.394 162.084C188.733 161.711 188.21 161.183 187.826 160.5C187.453 159.807 187.266 159.007 187.266 158.1C187.266 157.204 187.458 156.415 187.842 155.732C188.237 155.039 188.77 154.511 189.442 154.148C190.114 153.775 190.866 153.588 191.698 153.588C192.53 153.588 193.282 153.775 193.954 154.148C194.626 154.511 195.154 155.033 195.538 155.716C195.933 156.399 196.13 157.193 196.13 158.1C196.13 159.007 195.927 159.807 195.522 160.5C195.127 161.183 194.589 161.711 193.906 162.084C193.223 162.457 192.466 162.644 191.634 162.644ZM191.634 161.364C192.157 161.364 192.647 161.241 193.106 160.996C193.565 160.751 193.933 160.383 194.21 159.892C194.498 159.401 194.642 158.804 194.642 158.1C194.642 157.396 194.503 156.799 194.226 156.308C193.949 155.817 193.586 155.455 193.138 155.22C192.69 154.975 192.205 154.852 191.682 154.852C191.149 154.852 190.658 154.975 190.21 155.22C189.773 155.455 189.421 155.817 189.154 156.308C188.887 156.799 188.754 157.396 188.754 158.1C188.754 158.815 188.882 159.417 189.138 159.908C189.405 160.399 189.757 160.767 190.194 161.012C190.631 161.247 191.111 161.364 191.634 161.364ZM208.589 153.572C209.271 153.572 209.879 153.716 210.413 154.004C210.946 154.281 211.367 154.703 211.677 155.268C211.986 155.833 212.141 156.521 212.141 157.332V162.5H210.701V157.54C210.701 156.665 210.482 155.999 210.045 155.54C209.618 155.071 209.037 154.836 208.301 154.836C207.543 154.836 206.941 155.081 206.493 155.572C206.045 156.052 205.821 156.751 205.821 157.668V162.5H204.381V157.54C204.381 156.665 204.162 155.999 203.725 155.54C203.298 155.071 202.717 154.836 201.981 154.836C201.223 154.836 200.621 155.081 200.173 155.572C199.725 156.052 199.501 156.751 199.501 157.668V162.5H198.045V153.732H199.501V154.996C199.789 154.537 200.173 154.185 200.653 153.94C201.143 153.695 201.682 153.572 202.269 153.572C203.005 153.572 203.655 153.737 204.221 154.068C204.786 154.399 205.207 154.884 205.485 155.524C205.73 154.905 206.135 154.425 206.701 154.084C207.266 153.743 207.895 153.572 208.589 153.572ZM222.529 157.78C222.529 158.057 222.513 158.351 222.481 158.66H215.473C215.526 159.524 215.82 160.201 216.353 160.692C216.897 161.172 217.553 161.412 218.321 161.412C218.95 161.412 219.473 161.268 219.889 160.98C220.316 160.681 220.614 160.287 220.785 159.796H222.353C222.118 160.639 221.649 161.327 220.945 161.86C220.241 162.383 219.366 162.644 218.321 162.644C217.489 162.644 216.742 162.457 216.081 162.084C215.43 161.711 214.918 161.183 214.545 160.5C214.172 159.807 213.985 159.007 213.985 158.1C213.985 157.193 214.166 156.399 214.529 155.716C214.892 155.033 215.398 154.511 216.049 154.148C216.71 153.775 217.468 153.588 218.321 153.588C219.153 153.588 219.889 153.769 220.529 154.132C221.169 154.495 221.66 154.996 222.001 155.636C222.353 156.265 222.529 156.98 222.529 157.78ZM221.025 157.476C221.025 156.921 220.902 156.447 220.657 156.052C220.412 155.647 220.076 155.343 219.649 155.14C219.233 154.927 218.769 154.82 218.257 154.82C217.521 154.82 216.892 155.055 216.369 155.524C215.857 155.993 215.564 156.644 215.489 157.476H221.025Z" fill="#625347"/>
<mask id="path-15-inside-2_294_3981" fill="white">
<path d="M20 186H379V226H20V186Z"/>
</mask>
<path d="M379 226V225H20V226V227H379V226Z" fill="#FFEFE4" mask="url(#path-15-inside-2_294_3981)"/>
<path d="M171.824 209.02H166.96L166.064 211.5H164.528L168.56 200.412H170.24L174.256 211.5H172.72L171.824 209.02ZM171.408 207.836L169.392 202.204L167.376 207.836H171.408ZM177.469 204.364C177.768 203.841 178.205 203.415 178.781 203.084C179.357 202.753 180.013 202.588 180.749 202.588C181.539 202.588 182.248 202.775 182.877 203.148C183.507 203.521 184.003 204.049 184.365 204.732C184.728 205.404 184.909 206.188 184.909 207.084C184.909 207.969 184.728 208.759 184.365 209.452C184.003 210.145 183.501 210.684 182.861 211.068C182.232 211.452 181.528 211.644 180.749 211.644C179.992 211.644 179.325 211.479 178.749 211.148C178.184 210.817 177.757 210.396 177.469 209.884V211.5H176.013V199.66H177.469V204.364ZM183.421 207.084C183.421 206.423 183.288 205.847 183.021 205.356C182.755 204.865 182.392 204.492 181.933 204.236C181.485 203.98 180.989 203.852 180.445 203.852C179.912 203.852 179.416 203.985 178.957 204.252C178.509 204.508 178.147 204.887 177.869 205.388C177.603 205.879 177.469 206.449 177.469 207.1C177.469 207.761 177.603 208.343 177.869 208.844C178.147 209.335 178.509 209.713 178.957 209.98C179.416 210.236 179.912 210.364 180.445 210.364C180.989 210.364 181.485 210.236 181.933 209.98C182.392 209.713 182.755 209.335 183.021 208.844C183.288 208.343 183.421 207.756 183.421 207.084ZM190.65 211.644C189.828 211.644 189.082 211.457 188.41 211.084C187.748 210.711 187.226 210.183 186.842 209.5C186.468 208.807 186.282 208.007 186.282 207.1C186.282 206.204 186.474 205.415 186.858 204.732C187.252 204.039 187.786 203.511 188.458 203.148C189.13 202.775 189.882 202.588 190.714 202.588C191.546 202.588 192.298 202.775 192.97 203.148C193.642 203.511 194.17 204.033 194.554 204.716C194.948 205.399 195.146 206.193 195.146 207.1C195.146 208.007 194.943 208.807 194.538 209.5C194.143 210.183 193.604 210.711 192.922 211.084C192.239 211.457 191.482 211.644 190.65 211.644ZM190.65 210.364C191.172 210.364 191.663 210.241 192.122 209.996C192.58 209.751 192.948 209.383 193.226 208.892C193.514 208.401 193.658 207.804 193.658 207.1C193.658 206.396 193.519 205.799 193.242 205.308C192.964 204.817 192.602 204.455 192.154 204.22C191.706 203.975 191.22 203.852 190.698 203.852C190.164 203.852 189.674 203.975 189.226 204.22C188.788 204.455 188.436 204.817 188.17 205.308C187.903 205.799 187.77 206.396 187.77 207.1C187.77 207.815 187.898 208.417 188.154 208.908C188.42 209.399 188.772 209.767 189.21 210.012C189.647 210.247 190.127 210.364 190.65 210.364ZM204.836 202.732V211.5H203.38V210.204C203.103 210.652 202.713 211.004 202.212 211.26C201.721 211.505 201.177 211.628 200.58 211.628C199.897 211.628 199.284 211.489 198.74 211.212C198.196 210.924 197.764 210.497 197.444 209.932C197.135 209.367 196.98 208.679 196.98 207.868V202.732H198.42V207.676C198.42 208.54 198.639 209.207 199.076 209.676C199.513 210.135 200.111 210.364 200.868 210.364C201.647 210.364 202.26 210.124 202.708 209.644C203.156 209.164 203.38 208.465 203.38 207.548V202.732H204.836ZM209.071 203.932V209.1C209.071 209.527 209.161 209.831 209.343 210.012C209.524 210.183 209.839 210.268 210.286 210.268H211.359V211.5H210.047C209.236 211.5 208.628 211.313 208.223 210.94C207.817 210.567 207.615 209.953 207.615 209.1V203.932H206.479V202.732H207.615V200.524H209.071V202.732H211.359V203.932H209.071ZM225.164 202.732V211.5H223.708V210.204C223.431 210.652 223.042 211.004 222.54 211.26C222.05 211.505 221.506 211.628 220.908 211.628C220.226 211.628 219.612 211.489 219.068 211.212C218.524 210.924 218.092 210.497 217.772 209.932C217.463 209.367 217.308 208.679 217.308 207.868V202.732H218.748V207.676C218.748 208.54 218.967 209.207 219.404 209.676C219.842 210.135 220.439 210.364 221.196 210.364C221.975 210.364 222.588 210.124 223.036 209.644C223.484 209.164 223.708 208.465 223.708 207.548V202.732H225.164ZM230.727 211.644C230.055 211.644 229.452 211.532 228.919 211.308C228.385 211.073 227.964 210.753 227.655 210.348C227.345 209.932 227.175 209.457 227.143 208.924H228.647C228.689 209.361 228.892 209.719 229.255 209.996C229.628 210.273 230.113 210.412 230.711 210.412C231.265 210.412 231.703 210.289 232.023 210.044C232.343 209.799 232.503 209.489 232.503 209.116C232.503 208.732 232.332 208.449 231.991 208.268C231.649 208.076 231.121 207.889 230.407 207.708C229.756 207.537 229.223 207.367 228.807 207.196C228.401 207.015 228.049 206.753 227.751 206.412C227.463 206.06 227.319 205.601 227.319 205.036C227.319 204.588 227.452 204.177 227.719 203.804C227.985 203.431 228.364 203.137 228.855 202.924C229.345 202.7 229.905 202.588 230.535 202.588C231.505 202.588 232.289 202.833 232.887 203.324C233.484 203.815 233.804 204.487 233.847 205.34H232.391C232.359 204.881 232.172 204.513 231.831 204.236C231.5 203.959 231.052 203.82 230.487 203.82C229.964 203.82 229.548 203.932 229.239 204.156C228.929 204.38 228.775 204.673 228.775 205.036C228.775 205.324 228.865 205.564 229.047 205.756C229.239 205.937 229.473 206.087 229.751 206.204C230.039 206.311 230.433 206.433 230.935 206.572C231.564 206.743 232.076 206.913 232.471 207.084C232.865 207.244 233.201 207.489 233.479 207.82C233.767 208.151 233.916 208.583 233.927 209.116C233.927 209.596 233.793 210.028 233.527 210.412C233.26 210.796 232.881 211.1 232.391 211.324C231.911 211.537 231.356 211.644 230.727 211.644Z" fill="#625347"/>
<mask id="path-18-inside-3_294_3981" fill="white">
<path d="M20 234H379V276H20V234Z"/>
</mask>
<path d="M379 276V275H20V276V277H379V276Z" fill="#FFEFE4" mask="url(#path-18-inside-3_294_3981)"/>
<path d="M157.324 249.348V260.5H155.868V255.444H150.188V260.5H148.732V249.348H150.188V254.244H155.868V249.348H157.324ZM163.634 260.644C162.813 260.644 162.066 260.457 161.394 260.084C160.733 259.711 160.21 259.183 159.826 258.5C159.453 257.807 159.266 257.007 159.266 256.1C159.266 255.204 159.458 254.415 159.842 253.732C160.237 253.039 160.77 252.511 161.442 252.148C162.114 251.775 162.866 251.588 163.698 251.588C164.53 251.588 165.282 251.775 165.954 252.148C166.626 252.511 167.154 253.033 167.538 253.716C167.933 254.399 168.13 255.193 168.13 256.1C168.13 257.007 167.927 257.807 167.522 258.5C167.127 259.183 166.589 259.711 165.906 260.084C165.223 260.457 164.466 260.644 163.634 260.644ZM163.634 259.364C164.157 259.364 164.647 259.241 165.106 258.996C165.565 258.751 165.933 258.383 166.21 257.892C166.498 257.401 166.642 256.804 166.642 256.1C166.642 255.396 166.503 254.799 166.226 254.308C165.949 253.817 165.586 253.455 165.138 253.22C164.69 252.975 164.205 252.852 163.682 252.852C163.149 252.852 162.658 252.975 162.21 253.22C161.773 253.455 161.421 253.817 161.154 254.308C160.887 254.799 160.754 255.396 160.754 256.1C160.754 256.815 160.882 257.417 161.138 257.908C161.405 258.399 161.757 258.767 162.194 259.012C162.631 259.247 163.111 259.364 163.634 259.364ZM181.725 251.732L178.989 260.5H177.485L175.373 253.54L173.261 260.5H171.757L169.005 251.732H170.493L172.509 259.092L174.685 251.732H176.173L178.301 259.108L180.285 251.732H181.725ZM199.115 251.732L196.379 260.5H194.875L192.763 253.54L190.651 260.5H189.147L186.395 251.732H187.883L189.899 259.092L192.075 251.732H193.563L195.691 259.108L197.675 251.732H199.115ZM208.56 255.78C208.56 256.057 208.544 256.351 208.512 256.66H201.504C201.557 257.524 201.851 258.201 202.384 258.692C202.928 259.172 203.584 259.412 204.352 259.412C204.981 259.412 205.504 259.268 205.92 258.98C206.347 258.681 206.645 258.287 206.816 257.796H208.384C208.149 258.639 207.68 259.327 206.976 259.86C206.272 260.383 205.397 260.644 204.352 260.644C203.52 260.644 202.773 260.457 202.112 260.084C201.461 259.711 200.949 259.183 200.576 258.5C200.203 257.807 200.016 257.007 200.016 256.1C200.016 255.193 200.197 254.399 200.56 253.716C200.923 253.033 201.429 252.511 202.08 252.148C202.741 251.775 203.499 251.588 204.352 251.588C205.184 251.588 205.92 251.769 206.56 252.132C207.2 252.495 207.691 252.996 208.032 253.636C208.384 254.265 208.56 254.98 208.56 255.78ZM207.056 255.476C207.056 254.921 206.933 254.447 206.688 254.052C206.443 253.647 206.107 253.343 205.68 253.14C205.264 252.927 204.8 252.82 204.288 252.82C203.552 252.82 202.923 253.055 202.4 253.524C201.888 253.993 201.595 254.644 201.52 255.476H207.056ZM226.428 251.732L223.692 260.5H222.188L220.076 253.54L217.964 260.5H216.46L213.708 251.732H215.196L217.212 259.092L219.388 251.732H220.876L223.004 259.108L224.988 251.732H226.428ZM231.697 260.644C230.875 260.644 230.129 260.457 229.457 260.084C228.795 259.711 228.273 259.183 227.889 258.5C227.515 257.807 227.329 257.007 227.329 256.1C227.329 255.204 227.521 254.415 227.905 253.732C228.299 253.039 228.833 252.511 229.505 252.148C230.177 251.775 230.929 251.588 231.761 251.588C232.593 251.588 233.345 251.775 234.017 252.148C234.689 252.511 235.217 253.033 235.601 253.716C235.995 254.399 236.193 255.193 236.193 256.1C236.193 257.007 235.99 257.807 235.585 258.5C235.19 259.183 234.651 259.711 233.969 260.084C233.286 260.457 232.529 260.644 231.697 260.644ZM231.697 259.364C232.219 259.364 232.71 259.241 233.169 258.996C233.627 258.751 233.995 258.383 234.273 257.892C234.561 257.401 234.705 256.804 234.705 256.1C234.705 255.396 234.566 254.799 234.289 254.308C234.011 253.817 233.649 253.455 233.201 253.22C232.753 252.975 232.267 252.852 231.745 252.852C231.211 252.852 230.721 252.975 230.273 253.22C229.835 253.455 229.483 253.817 229.217 254.308C228.95 254.799 228.817 255.396 228.817 256.1C228.817 256.815 228.945 257.417 229.201 257.908C229.467 258.399 229.819 258.767 230.257 259.012C230.694 259.247 231.174 259.364 231.697 259.364ZM239.563 253.156C239.819 252.655 240.182 252.265 240.651 251.988C241.131 251.711 241.712 251.572 242.395 251.572V253.076H242.011C240.379 253.076 239.563 253.961 239.563 255.732V260.5H238.107V251.732H239.563V253.156ZM248.972 260.5L245.532 256.628V260.5H244.076V248.66H245.532V255.62L248.908 251.732H250.94L246.812 256.1L250.956 260.5H248.972Z" fill="#625347"/>
<mask id="path-21-inside-4_294_3981" fill="white">
<path d="M20 284H379V336H20V284Z"/>
</mask>
<path d="M379 336V335H20V336V337H379V336Z" fill="#FFEFE4" mask="url(#path-21-inside-4_294_3981)"/>
<path d="M175.268 315.612C174.532 315.612 173.871 315.484 173.284 315.228C172.708 314.961 172.255 314.599 171.924 314.14C171.593 313.671 171.423 313.132 171.412 312.524H172.964C173.017 313.047 173.231 313.489 173.604 313.852C173.988 314.204 174.543 314.38 175.268 314.38C175.961 314.38 176.505 314.209 176.9 313.868C177.305 313.516 177.508 313.068 177.508 312.524C177.508 312.097 177.391 311.751 177.156 311.484C176.921 311.217 176.628 311.015 176.276 310.876C175.924 310.737 175.449 310.588 174.852 310.428C174.116 310.236 173.524 310.044 173.076 309.852C172.639 309.66 172.26 309.361 171.94 308.956C171.631 308.54 171.476 307.985 171.476 307.292C171.476 306.684 171.631 306.145 171.94 305.676C172.249 305.207 172.681 304.844 173.236 304.588C173.801 304.332 174.447 304.204 175.172 304.204C176.217 304.204 177.071 304.465 177.732 304.988C178.404 305.511 178.783 306.204 178.868 307.068H177.268C177.215 306.641 176.991 306.268 176.596 305.948C176.201 305.617 175.679 305.452 175.028 305.452C174.42 305.452 173.924 305.612 173.54 305.932C173.156 306.241 172.964 306.679 172.964 307.244C172.964 307.649 173.076 307.98 173.3 308.236C173.535 308.492 173.817 308.689 174.148 308.828C174.489 308.956 174.964 309.105 175.572 309.276C176.308 309.479 176.9 309.681 177.348 309.884C177.796 310.076 178.18 310.38 178.5 310.796C178.82 311.201 178.98 311.756 178.98 312.46C178.98 313.004 178.836 313.516 178.548 313.996C178.26 314.476 177.833 314.865 177.268 315.164C176.703 315.463 176.036 315.612 175.268 315.612ZM189.123 310.78C189.123 311.057 189.107 311.351 189.075 311.66H182.067C182.12 312.524 182.413 313.201 182.947 313.692C183.491 314.172 184.147 314.412 184.915 314.412C185.544 314.412 186.067 314.268 186.483 313.98C186.909 313.681 187.208 313.287 187.379 312.796H188.947C188.712 313.639 188.243 314.327 187.539 314.86C186.835 315.383 185.96 315.644 184.915 315.644C184.083 315.644 183.336 315.457 182.675 315.084C182.024 314.711 181.512 314.183 181.139 313.5C180.765 312.807 180.579 312.007 180.579 311.1C180.579 310.193 180.76 309.399 181.123 308.716C181.485 308.033 181.992 307.511 182.643 307.148C183.304 306.775 184.061 306.588 184.915 306.588C185.747 306.588 186.483 306.769 187.123 307.132C187.763 307.495 188.253 307.996 188.595 308.636C188.947 309.265 189.123 309.98 189.123 310.78ZM187.619 310.476C187.619 309.921 187.496 309.447 187.251 309.052C187.005 308.647 186.669 308.343 186.243 308.14C185.827 307.927 185.363 307.82 184.851 307.82C184.115 307.82 183.485 308.055 182.963 308.524C182.451 308.993 182.157 309.644 182.083 310.476H187.619ZM192.501 308.156C192.757 307.655 193.119 307.265 193.589 306.988C194.069 306.711 194.65 306.572 195.333 306.572V308.076H194.949C193.317 308.076 192.501 308.961 192.501 310.732V315.5H191.045V306.732H192.501V308.156ZM200.277 314.156L202.997 306.732H204.549L201.109 315.5H199.413L195.973 306.732H197.541L200.277 314.156ZM206.734 305.308C206.457 305.308 206.222 305.212 206.03 305.02C205.838 304.828 205.742 304.593 205.742 304.316C205.742 304.039 205.838 303.804 206.03 303.612C206.222 303.42 206.457 303.324 206.734 303.324C207.001 303.324 207.225 303.42 207.406 303.612C207.598 303.804 207.694 304.039 207.694 304.316C207.694 304.593 207.598 304.828 207.406 305.02C207.225 305.212 207.001 305.308 206.734 305.308ZM207.438 306.732V315.5H205.982V306.732H207.438ZM209.376 311.1C209.376 310.193 209.557 309.404 209.92 308.732C210.282 308.049 210.784 307.521 211.424 307.148C212.074 306.775 212.816 306.588 213.648 306.588C214.725 306.588 215.61 306.849 216.304 307.372C217.008 307.895 217.472 308.62 217.696 309.548H216.128C215.978 309.015 215.685 308.593 215.248 308.284C214.821 307.975 214.288 307.82 213.648 307.82C212.816 307.82 212.144 308.108 211.632 308.684C211.12 309.249 210.864 310.055 210.864 311.1C210.864 312.156 211.12 312.972 211.632 313.548C212.144 314.124 212.816 314.412 213.648 314.412C214.288 314.412 214.821 314.263 215.248 313.964C215.674 313.665 215.968 313.239 216.128 312.684H217.696C217.461 313.58 216.992 314.3 216.288 314.844C215.584 315.377 214.704 315.644 213.648 315.644C212.816 315.644 212.074 315.457 211.424 315.084C210.784 314.711 210.282 314.183 209.92 313.5C209.557 312.817 209.376 312.017 209.376 311.1ZM227.638 310.78C227.638 311.057 227.622 311.351 227.59 311.66H220.582C220.636 312.524 220.929 313.201 221.462 313.692C222.006 314.172 222.662 314.412 223.43 314.412C224.06 314.412 224.582 314.268 224.998 313.98C225.425 313.681 225.724 313.287 225.894 312.796H227.462C227.228 313.639 226.758 314.327 226.054 314.86C225.35 315.383 224.476 315.644 223.43 315.644C222.598 315.644 221.852 315.457 221.19 315.084C220.54 314.711 220.028 314.183 219.654 313.5C219.281 312.807 219.094 312.007 219.094 311.1C219.094 310.193 219.276 309.399 219.638 308.716C220.001 308.033 220.508 307.511 221.158 307.148C221.82 306.775 222.577 306.588 223.43 306.588C224.262 306.588 224.998 306.769 225.638 307.132C226.278 307.495 226.769 307.996 227.11 308.636C227.462 309.265 227.638 309.98 227.638 310.78ZM226.134 310.476C226.134 309.921 226.012 309.447 225.766 309.052C225.521 308.647 225.185 308.343 224.758 308.14C224.342 307.927 223.878 307.82 223.366 307.82C222.63 307.82 222.001 308.055 221.478 308.524C220.966 308.993 220.673 309.644 220.598 310.476H226.134Z" fill="#625347"/>
</svg>
