<svg width="1496" height="130" viewBox="0 0 1496 130" fill="none" xmlns="http://www.w3.org/2000/svg">
<g filter="url(#filter0_d_238_1083)">
<rect width="1440" height="74" transform="translate(28 24)" fill="url(#paint0_linear_238_1083)" fill-opacity="0.3"/>
<path d="M148.1 69V67.548C148.437 67.5333 148.716 67.4893 148.936 67.416C149.171 67.3427 149.347 67.174 149.464 66.91C149.596 66.646 149.662 66.2207 149.662 65.634V57.208C149.662 56.812 149.669 56.4307 149.684 56.064C149.713 55.6973 149.735 55.4187 149.75 55.228C149.515 55.2427 149.222 55.2573 148.87 55.272C148.518 55.272 148.261 55.2793 148.1 55.294V53.6H154.414V55.052C154.091 55.0667 153.813 55.1107 153.578 55.184C153.343 55.2573 153.16 55.426 153.028 55.69C152.911 55.9393 152.852 56.3647 152.852 56.966V65.392C152.852 65.788 152.845 66.162 152.83 66.514C152.815 66.866 152.793 67.1373 152.764 67.328H155.712C156.577 67.328 157.252 67.0273 157.736 66.426C158.235 65.8247 158.484 64.9227 158.484 63.72H159.958L159.826 69H148.1ZM167.317 69C167.287 68.7947 167.265 68.626 167.251 68.494C167.251 68.3473 167.243 68.1787 167.229 67.988C166.73 68.4867 166.202 68.8387 165.645 69.044C165.087 69.2493 164.523 69.352 163.951 69.352C163.012 69.352 162.279 69.0733 161.751 68.516C161.223 67.9587 160.959 67.262 160.959 66.426C160.959 65.722 161.135 65.1207 161.487 64.622C161.853 64.1233 162.33 63.72 162.917 63.412C163.518 63.0893 164.178 62.8473 164.897 62.686C165.63 62.51 166.363 62.4073 167.097 62.378V61.234C167.097 60.8527 167.045 60.508 166.943 60.2C166.855 59.892 166.693 59.65 166.459 59.474C166.239 59.298 165.923 59.2173 165.513 59.232C165.234 59.2467 164.963 59.3053 164.699 59.408C164.435 59.5107 164.207 59.6573 164.017 59.848C164.134 59.98 164.207 60.1267 164.237 60.288C164.266 60.4347 164.281 60.5667 164.281 60.684C164.281 60.9773 164.163 61.2853 163.929 61.608C163.694 61.916 163.32 62.0627 162.807 62.048C162.367 62.0333 162.029 61.8793 161.795 61.586C161.56 61.2927 161.443 60.948 161.443 60.552C161.443 59.9653 161.648 59.4593 162.059 59.034C162.484 58.594 163.049 58.2567 163.753 58.022C164.457 57.7727 165.234 57.648 166.085 57.648C167.375 57.648 168.373 57.9853 169.077 58.66C169.795 59.32 170.155 60.3833 170.155 61.85C170.155 62.3487 170.155 62.774 170.155 63.126C170.155 63.478 170.147 63.83 170.133 64.182C170.133 64.534 170.133 64.9593 170.133 65.458C170.133 65.6633 170.125 65.9567 170.111 66.338C170.096 66.7047 170.074 67.0567 170.045 67.394C170.294 67.3647 170.558 67.35 170.837 67.35C171.115 67.3353 171.328 67.328 171.475 67.328V69H167.317ZM167.075 63.94C166.664 63.984 166.275 64.0573 165.909 64.16C165.542 64.2627 165.219 64.402 164.941 64.578C164.677 64.754 164.464 64.9667 164.303 65.216C164.156 65.4653 164.083 65.744 164.083 66.052C164.097 66.4627 164.229 66.756 164.479 66.932C164.728 67.108 165.014 67.196 165.337 67.196C165.674 67.196 165.989 67.1227 166.283 66.976C166.576 66.8293 166.84 66.6387 167.075 66.404C167.075 66.2573 167.075 66.118 167.075 65.986C167.075 65.8393 167.075 65.6927 167.075 65.546C167.075 65.282 167.075 65.018 167.075 64.754C167.075 64.4753 167.075 64.204 167.075 63.94ZM175.824 69.066L173.162 61.432C173.03 61.0507 172.927 60.7647 172.854 60.574C172.795 60.3833 172.751 60.222 172.722 60.09C172.693 59.958 172.656 59.804 172.612 59.628L171.754 59.672V58H177.034V59.408C176.579 59.4227 176.315 59.5987 176.242 59.936C176.169 60.2733 176.191 60.6693 176.308 61.124L177.056 63.808C177.144 64.1307 177.225 64.4753 177.298 64.842C177.386 65.194 177.459 65.546 177.518 65.898C177.591 65.59 177.665 65.2527 177.738 64.886C177.826 64.5193 177.951 64.0647 178.112 63.522L179.718 58H182.116L183.876 64.072C183.964 64.38 184.052 64.7173 184.14 65.084C184.243 65.436 184.331 65.7587 184.404 66.052C184.463 65.7587 184.543 65.436 184.646 65.084C184.749 64.732 184.844 64.4167 184.932 64.138L185.79 61.344C185.907 60.948 186.01 60.6253 186.098 60.376C186.186 60.112 186.296 59.848 186.428 59.584L185.174 59.672V58H189.354V59.408C189.061 59.408 188.804 59.5033 188.584 59.694C188.364 59.8847 188.166 60.1193 187.99 60.398C187.829 60.662 187.697 60.926 187.594 61.19C187.491 61.4393 187.418 61.6373 187.374 61.784L184.866 69.066H182.534L181.016 64.38C180.972 64.2187 180.899 63.984 180.796 63.676C180.708 63.368 180.613 63.038 180.51 62.686C180.422 62.3193 180.334 61.982 180.246 61.674C180.173 62.0847 180.063 62.554 179.916 63.082C179.769 63.61 179.63 64.094 179.498 64.534C179.366 64.974 179.271 65.2747 179.212 65.436L178.002 69.066H175.824ZM192.666 74.962C192.109 74.962 191.632 74.7933 191.236 74.456C190.855 74.1333 190.664 73.7007 190.664 73.158C190.664 72.762 190.789 72.41 191.038 72.102C191.302 71.8087 191.639 71.6547 192.05 71.64C192.373 71.6253 192.644 71.728 192.864 71.948C193.099 72.1827 193.216 72.498 193.216 72.894C193.216 72.938 193.216 72.982 193.216 73.026C193.216 73.07 193.209 73.1213 193.194 73.18C193.223 73.18 193.26 73.1727 193.304 73.158C193.436 73.114 193.575 72.9893 193.722 72.784C193.883 72.5933 194.037 72.3367 194.184 72.014C194.345 71.6767 194.499 71.2953 194.646 70.87C194.807 70.4593 194.947 70.0267 195.064 69.572L191.588 62.598C191.177 61.7767 190.906 61.1607 190.774 60.75C190.657 60.3247 190.576 59.9507 190.532 59.628L189.52 59.672V58H194.998V59.408C194.455 59.4667 194.155 59.672 194.096 60.024C194.052 60.376 194.118 60.7427 194.294 61.124L196.45 66.052C196.597 65.6707 196.787 65.084 197.022 64.292C197.257 63.4853 197.535 62.6127 197.858 61.674C197.917 61.4833 197.99 61.2633 198.078 61.014C198.181 60.75 198.291 60.4933 198.408 60.244C198.525 59.98 198.65 59.7673 198.782 59.606L197.528 59.672V58H201.444V59.408C200.989 59.5107 200.608 59.7893 200.3 60.244C200.007 60.6987 199.743 61.256 199.508 61.916L196.758 69.77C196.347 70.958 195.959 71.9333 195.592 72.696C195.225 73.4733 194.815 74.0453 194.36 74.412C193.905 74.7787 193.341 74.962 192.666 74.962ZM207.45 69.352C206.379 69.352 205.433 69.1173 204.612 68.648C203.791 68.164 203.153 67.4893 202.698 66.624C202.243 65.744 202.016 64.71 202.016 63.522C202.016 62.4953 202.243 61.5347 202.698 60.64C203.153 59.7453 203.791 59.0267 204.612 58.484C205.448 57.9267 206.416 57.648 207.516 57.648C208.132 57.648 208.733 57.736 209.32 57.912C209.907 58.0733 210.435 58.3593 210.904 58.77C211.388 59.1807 211.769 59.738 212.048 60.442C212.341 61.146 212.481 62.026 212.466 63.082L205.25 63.214C205.25 64.006 205.345 64.7173 205.536 65.348C205.741 65.9787 206.071 66.4773 206.526 66.844C206.981 67.2107 207.589 67.394 208.352 67.394C208.645 67.394 208.975 67.3427 209.342 67.24C209.723 67.1373 210.105 66.9687 210.486 66.734C210.882 66.4847 211.249 66.1547 211.586 65.744L212.576 66.668C212.048 67.416 211.483 67.988 210.882 68.384C210.281 68.7653 209.679 69.022 209.078 69.154C208.491 69.286 207.949 69.352 207.45 69.352ZM205.382 61.674H209.43C209.415 61.058 209.327 60.574 209.166 60.222C209.019 59.8553 208.814 59.5913 208.55 59.43C208.286 59.2687 207.978 59.188 207.626 59.188C206.981 59.188 206.475 59.4227 206.108 59.892C205.741 60.3467 205.499 60.9407 205.382 61.674ZM214.074 67.57C214.485 67.57 214.778 67.4893 214.954 67.328C215.13 67.1667 215.24 66.9393 215.284 66.646C215.343 66.338 215.372 65.9933 215.372 65.612V61.916C215.372 61.652 215.379 61.3587 215.394 61.036C215.409 60.6987 215.431 60.3687 215.46 60.046C215.225 60.0607 214.947 60.0753 214.624 60.09C214.316 60.09 214.081 60.0973 213.92 60.112V58.44H214.8C215.372 58.44 215.893 58.3667 216.362 58.22C216.846 58.0733 217.161 57.9267 217.308 57.78H218.386C218.415 57.9267 218.437 58.2053 218.452 58.616C218.467 59.012 218.474 59.364 218.474 59.672C218.87 59.188 219.244 58.7993 219.596 58.506C219.948 58.2127 220.293 58 220.63 57.868C220.982 57.7213 221.334 57.648 221.686 57.648C222.199 57.648 222.647 57.7947 223.028 58.088C223.409 58.3667 223.6 58.8287 223.6 59.474C223.6 59.694 223.549 59.9287 223.446 60.178C223.343 60.4127 223.182 60.6107 222.962 60.772C222.742 60.9333 222.441 61.014 222.06 61.014C221.767 61.014 221.466 60.926 221.158 60.75C220.85 60.574 220.674 60.2367 220.63 59.738C220.337 59.738 220.043 59.8627 219.75 60.112C219.457 60.3467 219.193 60.6327 218.958 60.97C218.738 61.2927 218.584 61.5933 218.496 61.872V65.458C218.496 65.6633 218.489 65.9567 218.474 66.338C218.459 66.7047 218.437 67.0567 218.408 67.394C218.643 67.3647 218.899 67.35 219.178 67.35C219.471 67.3353 219.691 67.328 219.838 67.328V69H214.074V67.57ZM224.026 69V67.548C224.363 67.5333 224.642 67.4893 224.862 67.416C225.096 67.3427 225.272 67.174 225.39 66.91C225.522 66.646 225.588 66.2207 225.588 65.634V57.208C225.588 56.812 225.595 56.4307 225.61 56.064C225.639 55.6973 225.661 55.4187 225.676 55.228C225.441 55.2427 225.148 55.2573 224.796 55.272C224.444 55.272 224.187 55.2793 224.026 55.294V53.6H235.026L235.158 57.868H233.706C233.706 57.0613 233.566 56.4527 233.288 56.042C233.009 55.6313 232.664 55.36 232.254 55.228C231.843 55.0813 231.44 55.0153 231.044 55.03L230.252 55.052C229.944 55.052 229.68 55.096 229.46 55.184C229.24 55.2573 229.071 55.4333 228.954 55.712C228.836 55.976 228.778 56.394 228.778 56.966V60.794H231.044L230.956 58.902H232.65V64.248H231.198C231.198 63.632 231.102 63.1847 230.912 62.906C230.721 62.6273 230.457 62.4587 230.12 62.4C229.797 62.3267 229.438 62.2973 229.042 62.312H228.778V65.392C228.778 65.788 228.77 66.1693 228.756 66.536C228.741 66.9027 228.719 67.1813 228.69 67.372C228.851 67.3573 229.064 67.35 229.328 67.35C229.592 67.3353 229.848 67.328 230.098 67.328C230.362 67.3133 230.545 67.306 230.648 67.306V69H224.026ZM240.862 69.352C239.806 69.352 238.853 69.1247 238.002 68.67C237.152 68.2153 236.477 67.57 235.978 66.734C235.494 65.8833 235.252 64.886 235.252 63.742C235.252 62.5247 235.502 61.4613 236 60.552C236.514 59.628 237.188 58.9167 238.024 58.418C238.875 57.9047 239.799 57.648 240.796 57.648C241.852 57.648 242.798 57.8753 243.634 58.33C244.47 58.7847 245.13 59.4373 245.614 60.288C246.098 61.124 246.34 62.1287 246.34 63.302C246.34 64.534 246.106 65.6047 245.636 66.514C245.167 67.4233 244.522 68.1273 243.7 68.626C242.879 69.11 241.933 69.352 240.862 69.352ZM240.95 67.79C241.537 67.7753 241.977 67.57 242.27 67.174C242.578 66.778 242.791 66.2793 242.908 65.678C243.026 65.0767 243.084 64.468 243.084 63.852C243.084 63.3093 243.04 62.7593 242.952 62.202C242.879 61.6447 242.754 61.1387 242.578 60.684C242.402 60.2293 242.16 59.8627 241.852 59.584C241.559 59.3053 241.192 59.1733 240.752 59.188C240.18 59.2027 239.726 59.408 239.388 59.804C239.066 60.2 238.831 60.6987 238.684 61.3C238.552 61.8867 238.486 62.5027 238.486 63.148C238.486 63.896 238.567 64.6293 238.728 65.348C238.89 66.0667 239.146 66.6607 239.498 67.13C239.865 67.5847 240.349 67.8047 240.95 67.79ZM247.933 67.57C248.344 67.57 248.637 67.4893 248.813 67.328C248.989 67.1667 249.099 66.9393 249.143 66.646C249.202 66.338 249.231 65.9933 249.231 65.612V61.916C249.231 61.652 249.239 61.3587 249.253 61.036C249.268 60.6987 249.29 60.3687 249.319 60.046C249.085 60.0607 248.806 60.0753 248.483 60.09C248.175 60.09 247.941 60.0973 247.779 60.112V58.44H248.659C249.231 58.44 249.752 58.3667 250.221 58.22C250.705 58.0733 251.021 57.9267 251.167 57.78H252.245C252.275 57.9267 252.297 58.2053 252.311 58.616C252.326 59.012 252.333 59.364 252.333 59.672C252.729 59.188 253.103 58.7993 253.455 58.506C253.807 58.2127 254.152 58 254.489 57.868C254.841 57.7213 255.193 57.648 255.545 57.648C256.059 57.648 256.506 57.7947 256.887 58.088C257.269 58.3667 257.459 58.8287 257.459 59.474C257.459 59.694 257.408 59.9287 257.305 60.178C257.203 60.4127 257.041 60.6107 256.821 60.772C256.601 60.9333 256.301 61.014 255.919 61.014C255.626 61.014 255.325 60.926 255.017 60.75C254.709 60.574 254.533 60.2367 254.489 59.738C254.196 59.738 253.903 59.8627 253.609 60.112C253.316 60.3467 253.052 60.6327 252.817 60.97C252.597 61.2927 252.443 61.5933 252.355 61.872V65.458C252.355 65.6633 252.348 65.9567 252.333 66.338C252.319 66.7047 252.297 67.0567 252.267 67.394C252.502 67.3647 252.759 67.35 253.037 67.35C253.331 67.3353 253.551 67.328 253.697 67.328V69H247.933V67.57ZM263.761 69.132L258.701 57.318C258.554 56.9513 258.415 56.57 258.283 56.174C258.151 55.778 258.085 55.4627 258.085 55.228C257.85 55.2427 257.63 55.2573 257.425 55.272C257.234 55.272 257.058 55.2793 256.897 55.294V53.6H263.387V55.052C262.844 55.0373 262.426 55.1547 262.133 55.404C261.854 55.6533 261.847 56.1007 262.111 56.746C262.448 57.5673 262.785 58.396 263.123 59.232C263.46 60.068 263.797 60.8967 264.135 61.718C264.384 62.334 264.597 62.8767 264.773 63.346C264.949 63.8007 265.154 64.3067 265.389 64.864H265.411C265.572 64.424 265.741 63.9327 265.917 63.39C266.107 62.8473 266.291 62.3267 266.467 61.828C266.657 61.3147 266.841 60.8013 267.017 60.288C267.207 59.7747 267.398 59.2687 267.589 58.77C267.779 58.2567 267.963 57.7433 268.139 57.23C268.212 56.9807 268.329 56.6433 268.491 56.218C268.667 55.7927 268.85 55.4627 269.041 55.228C268.806 55.2427 268.505 55.2573 268.139 55.272C267.772 55.272 267.508 55.2793 267.347 55.294V53.6H272.297V55.052C271.798 55.0667 271.365 55.25 270.999 55.602C270.632 55.954 270.287 56.5553 269.965 57.406C269.715 58.0513 269.466 58.704 269.217 59.364C268.982 60.0093 268.74 60.662 268.491 61.322C268.256 61.9673 268.014 62.62 267.765 63.28C267.515 63.9253 267.266 64.578 267.017 65.238C266.782 65.8833 266.54 66.5287 266.291 67.174C266.056 67.8193 265.814 68.472 265.565 69.132H263.761ZM272.64 67.57C273.051 67.57 273.344 67.4893 273.52 67.328C273.696 67.1667 273.806 66.9393 273.85 66.646C273.909 66.338 273.938 65.9933 273.938 65.612V61.96C273.938 61.696 273.946 61.3953 273.96 61.058C273.975 60.706 273.997 60.3687 274.026 60.046C273.792 60.0607 273.513 60.0753 273.19 60.09C272.882 60.09 272.648 60.0973 272.486 60.112V58.44C273.161 58.44 273.733 58.4033 274.202 58.33C274.672 58.2567 275.038 58.1687 275.302 58.066C275.581 57.9633 275.772 57.868 275.874 57.78H277.062V65.458C277.062 65.6633 277.055 65.9567 277.04 66.338C277.026 66.7047 277.004 67.0567 276.974 67.394C277.209 67.3647 277.466 67.35 277.744 67.35C278.038 67.3353 278.258 67.328 278.404 67.328V69H272.64V67.57ZM275.39 56.042C274.892 56.042 274.481 55.866 274.158 55.514C273.836 55.162 273.674 54.7367 273.674 54.238C273.674 53.7393 273.843 53.314 274.18 52.962C274.518 52.61 274.914 52.434 275.368 52.434C275.838 52.434 276.226 52.61 276.534 52.962C276.857 53.314 277.018 53.7393 277.018 54.238C277.018 54.7367 276.872 55.162 276.578 55.514C276.285 55.866 275.889 56.042 275.39 56.042ZM284.898 69.352C284.267 69.352 283.651 69.2713 283.05 69.11C282.448 68.9487 281.979 68.7433 281.642 68.494L281.686 69.154H280.014L279.926 65.37H281.356C281.4 65.81 281.576 66.2133 281.884 66.58C282.192 66.9467 282.595 67.24 283.094 67.46C283.592 67.6653 284.15 67.768 284.766 67.768C285.015 67.768 285.25 67.7313 285.47 67.658C285.704 67.5847 285.895 67.4673 286.042 67.306C286.203 67.13 286.284 66.9173 286.284 66.668C286.284 66.3893 286.181 66.162 285.976 65.986C285.785 65.81 285.499 65.6413 285.118 65.48C284.751 65.3187 284.289 65.1353 283.732 64.93C283.277 64.754 282.815 64.5707 282.346 64.38C281.891 64.1893 281.466 63.962 281.07 63.698C280.688 63.4193 280.38 63.082 280.146 62.686C279.911 62.2753 279.794 61.7767 279.794 61.19C279.794 60.7647 279.874 60.3467 280.036 59.936C280.197 59.5107 280.446 59.1293 280.784 58.792C281.121 58.44 281.546 58.1613 282.06 57.956C282.588 57.7507 283.211 57.648 283.93 57.648C284.326 57.648 284.773 57.714 285.272 57.846C285.785 57.9633 286.218 58.1467 286.57 58.396V57.758H288.242V61.652H286.812C286.724 61.1387 286.54 60.6987 286.262 60.332C285.998 59.9653 285.653 59.6867 285.228 59.496C284.802 59.2907 284.326 59.188 283.798 59.188C283.431 59.188 283.094 59.276 282.786 59.452C282.492 59.628 282.346 59.9287 282.346 60.354C282.346 60.6913 282.463 60.9627 282.698 61.168C282.932 61.3587 283.255 61.52 283.666 61.652C284.076 61.784 284.531 61.938 285.03 62.114C285.778 62.3633 286.438 62.6567 287.01 62.994C287.596 63.3313 288.058 63.742 288.396 64.226C288.733 64.6953 288.902 65.2747 288.902 65.964C288.902 66.7267 288.711 67.3573 288.33 67.856C287.948 68.3547 287.45 68.7287 286.834 68.978C286.232 69.2273 285.587 69.352 284.898 69.352ZM296.631 69C296.602 68.7947 296.58 68.626 296.565 68.494C296.565 68.3473 296.558 68.1787 296.543 67.988C296.045 68.4867 295.517 68.8387 294.959 69.044C294.402 69.2493 293.837 69.352 293.265 69.352C292.327 69.352 291.593 69.0733 291.065 68.516C290.537 67.9587 290.273 67.262 290.273 66.426C290.273 65.722 290.449 65.1207 290.801 64.622C291.168 64.1233 291.645 63.72 292.231 63.412C292.833 63.0893 293.493 62.8473 294.211 62.686C294.945 62.51 295.678 62.4073 296.411 62.378V61.234C296.411 60.8527 296.36 60.508 296.257 60.2C296.169 59.892 296.008 59.65 295.773 59.474C295.553 59.298 295.238 59.2173 294.827 59.232C294.549 59.2467 294.277 59.3053 294.013 59.408C293.749 59.5107 293.522 59.6573 293.331 59.848C293.449 59.98 293.522 60.1267 293.551 60.288C293.581 60.4347 293.595 60.5667 293.595 60.684C293.595 60.9773 293.478 61.2853 293.243 61.608C293.009 61.916 292.635 62.0627 292.121 62.048C291.681 62.0333 291.344 61.8793 291.109 61.586C290.875 61.2927 290.757 60.948 290.757 60.552C290.757 59.9653 290.963 59.4593 291.373 59.034C291.799 58.594 292.363 58.2567 293.067 58.022C293.771 57.7727 294.549 57.648 295.399 57.648C296.69 57.648 297.687 57.9853 298.391 58.66C299.11 59.32 299.469 60.3833 299.469 61.85C299.469 62.3487 299.469 62.774 299.469 63.126C299.469 63.478 299.462 63.83 299.447 64.182C299.447 64.534 299.447 64.9593 299.447 65.458C299.447 65.6633 299.44 65.9567 299.425 66.338C299.411 66.7047 299.389 67.0567 299.359 67.394C299.609 67.3647 299.873 67.35 300.151 67.35C300.43 67.3353 300.643 67.328 300.789 67.328V69H296.631ZM296.389 63.94C295.979 63.984 295.59 64.0573 295.223 64.16C294.857 64.2627 294.534 64.402 294.255 64.578C293.991 64.754 293.779 64.9667 293.617 65.216C293.471 65.4653 293.397 65.744 293.397 66.052C293.412 66.4627 293.544 66.756 293.793 66.932C294.043 67.108 294.329 67.196 294.651 67.196C294.989 67.196 295.304 67.1227 295.597 66.976C295.891 66.8293 296.155 66.6387 296.389 66.404C296.389 66.2573 296.389 66.118 296.389 65.986C296.389 65.8393 296.389 65.6927 296.389 65.546C296.389 65.282 296.389 65.018 296.389 64.754C296.389 64.4753 296.389 64.204 296.389 63.94Z" fill="#5F2900"/>
<path d="M618.278 67V55.3636H620.034V60.4205H625.835V55.3636H627.597V67H625.835V61.9261H620.034V67H618.278ZM633.693 67.1761C632.875 67.1761 632.161 66.9886 631.551 66.6136C630.941 66.2386 630.468 65.714 630.131 65.0398C629.794 64.3655 629.625 63.5777 629.625 62.6761C629.625 61.7708 629.794 60.9792 630.131 60.3011C630.468 59.6231 630.941 59.0966 631.551 58.7216C632.161 58.3466 632.875 58.1591 633.693 58.1591C634.511 58.1591 635.225 58.3466 635.835 58.7216C636.445 59.0966 636.919 59.6231 637.256 60.3011C637.593 60.9792 637.761 61.7708 637.761 62.6761C637.761 63.5777 637.593 64.3655 637.256 65.0398C636.919 65.714 636.445 66.2386 635.835 66.6136C635.225 66.9886 634.511 67.1761 633.693 67.1761ZM633.699 65.75C634.229 65.75 634.669 65.6098 635.017 65.3295C635.366 65.0492 635.623 64.6761 635.79 64.2102C635.96 63.7443 636.045 63.2311 636.045 62.6705C636.045 62.1136 635.96 61.6023 635.79 61.1364C635.623 60.6667 635.366 60.2898 635.017 60.0057C634.669 59.7216 634.229 59.5795 633.699 59.5795C633.165 59.5795 632.722 59.7216 632.369 60.0057C632.021 60.2898 631.761 60.6667 631.591 61.1364C631.424 61.6023 631.341 62.1136 631.341 62.6705C631.341 63.2311 631.424 63.7443 631.591 64.2102C631.761 64.6761 632.021 65.0492 632.369 65.3295C632.722 65.6098 633.165 65.75 633.699 65.75ZM639.658 67V58.2727H641.288V59.6932H641.396C641.578 59.2121 641.875 58.8371 642.288 58.5682C642.701 58.2955 643.196 58.1591 643.771 58.1591C644.355 58.1591 644.843 58.2955 645.237 58.5682C645.635 58.8409 645.929 59.2159 646.118 59.6932H646.209C646.417 59.2273 646.749 58.8561 647.203 58.5795C647.658 58.2992 648.199 58.1591 648.828 58.1591C649.62 58.1591 650.266 58.4072 650.766 58.9034C651.269 59.3996 651.521 60.1477 651.521 61.1477V67H649.822V61.3068C649.822 60.7159 649.661 60.2879 649.339 60.0227C649.018 59.7576 648.633 59.625 648.186 59.625C647.633 59.625 647.203 59.7955 646.896 60.1364C646.589 60.4735 646.436 60.9072 646.436 61.4375V67H644.743V61.1989C644.743 60.7254 644.595 60.3447 644.3 60.0568C644.004 59.7689 643.62 59.625 643.146 59.625C642.824 59.625 642.527 59.7102 642.254 59.8807C641.985 60.0473 641.768 60.2803 641.601 60.5795C641.438 60.8788 641.357 61.2254 641.357 61.6193V67H639.658ZM657.56 67.1761C656.7 67.1761 655.959 66.9924 655.338 66.625C654.721 66.2538 654.243 65.733 653.906 65.0625C653.573 64.3883 653.406 63.5985 653.406 62.6932C653.406 61.7992 653.573 61.0114 653.906 60.3295C654.243 59.6477 654.713 59.1155 655.315 58.733C655.921 58.3504 656.63 58.1591 657.44 58.1591C657.933 58.1591 658.41 58.2405 658.872 58.4034C659.334 58.5663 659.749 58.822 660.116 59.1705C660.484 59.5189 660.774 59.9716 660.986 60.5284C661.198 61.0814 661.304 61.7538 661.304 62.5455V63.1477H654.366V61.875H659.639C659.639 61.428 659.548 61.0322 659.366 60.6875C659.185 60.339 658.929 60.0644 658.599 59.8636C658.274 59.6629 657.891 59.5625 657.452 59.5625C656.974 59.5625 656.558 59.6799 656.202 59.9148C655.849 60.1458 655.577 60.4489 655.384 60.8239C655.194 61.1951 655.099 61.5985 655.099 62.0341V63.0284C655.099 63.6117 655.202 64.108 655.406 64.517C655.615 64.9261 655.904 65.2386 656.276 65.4545C656.647 65.6667 657.08 65.7727 657.577 65.7727C657.899 65.7727 658.192 65.7273 658.457 65.6364C658.723 65.5417 658.952 65.4015 659.145 65.2159C659.338 65.0303 659.486 64.8011 659.588 64.5284L661.196 64.8182C661.067 65.2917 660.836 65.7064 660.503 66.0625C660.173 66.4148 659.759 66.6894 659.259 66.8864C658.762 67.0795 658.196 67.1761 657.56 67.1761Z" fill="#625347"/>
<path d="M699.261 67H697.398L701.585 55.3636H703.614L707.801 67H705.938L702.648 57.4773H702.557L699.261 67ZM699.574 62.4432H705.619V63.9205H699.574V62.4432ZM709.482 67V55.3636H711.18V59.6875H711.283C711.381 59.5057 711.523 59.2955 711.709 59.0568C711.894 58.8182 712.152 58.6098 712.482 58.4318C712.811 58.25 713.247 58.1591 713.788 58.1591C714.493 58.1591 715.122 58.3371 715.675 58.6932C716.228 59.0492 716.661 59.5625 716.976 60.233C717.294 60.9034 717.453 61.7102 717.453 62.6534C717.453 63.5966 717.296 64.4053 716.982 65.0795C716.667 65.75 716.235 66.267 715.686 66.6307C715.137 66.9905 714.51 67.1705 713.805 67.1705C713.275 67.1705 712.841 67.0814 712.504 66.9034C712.171 66.7254 711.91 66.517 711.72 66.2784C711.531 66.0398 711.385 65.8277 711.283 65.642H711.141V67H709.482ZM711.146 62.6364C711.146 63.25 711.235 63.7879 711.413 64.25C711.591 64.7121 711.849 65.0739 712.186 65.3352C712.523 65.5928 712.936 65.7216 713.425 65.7216C713.932 65.7216 714.357 65.5871 714.697 65.3182C715.038 65.0455 715.296 64.6761 715.47 64.2102C715.648 63.7443 715.737 63.2197 715.737 62.6364C715.737 62.0606 715.65 61.5436 715.476 61.0852C715.305 60.6269 715.048 60.2652 714.703 60C714.362 59.7348 713.936 59.6023 713.425 59.6023C712.932 59.6023 712.516 59.7292 712.175 59.983C711.838 60.2367 711.582 60.5909 711.408 61.0455C711.233 61.5 711.146 62.0303 711.146 62.6364ZM723.037 67.1761C722.219 67.1761 721.505 66.9886 720.895 66.6136C720.285 66.2386 719.812 65.714 719.474 65.0398C719.137 64.3655 718.969 63.5777 718.969 62.6761C718.969 61.7708 719.137 60.9792 719.474 60.3011C719.812 59.6231 720.285 59.0966 720.895 58.7216C721.505 58.3466 722.219 58.1591 723.037 58.1591C723.855 58.1591 724.569 58.3466 725.179 58.7216C725.789 59.0966 726.262 59.6231 726.599 60.3011C726.937 60.9792 727.105 61.7708 727.105 62.6761C727.105 63.5777 726.937 64.3655 726.599 65.0398C726.262 65.714 725.789 66.2386 725.179 66.6136C724.569 66.9886 723.855 67.1761 723.037 67.1761ZM723.043 65.75C723.573 65.75 724.012 65.6098 724.361 65.3295C724.709 65.0492 724.967 64.6761 725.134 64.2102C725.304 63.7443 725.389 63.2311 725.389 62.6705C725.389 62.1136 725.304 61.6023 725.134 61.1364C724.967 60.6667 724.709 60.2898 724.361 60.0057C724.012 59.7216 723.573 59.5795 723.043 59.5795C722.509 59.5795 722.065 59.7216 721.713 60.0057C721.365 60.2898 721.105 60.6667 720.935 61.1364C720.768 61.6023 720.685 62.1136 720.685 62.6705C720.685 63.2311 720.768 63.7443 720.935 64.2102C721.105 64.6761 721.365 65.0492 721.713 65.3295C722.065 65.6098 722.509 65.75 723.043 65.75ZM734.53 63.3807V58.2727H736.234V67H734.564V65.4886H734.473C734.272 65.9545 733.95 66.3428 733.507 66.6534C733.068 66.9602 732.52 67.1136 731.865 67.1136C731.304 67.1136 730.808 66.9905 730.376 66.7443C729.948 66.4943 729.611 66.125 729.365 65.6364C729.123 65.1477 729.001 64.5436 729.001 63.8239V58.2727H730.7V63.6193C730.7 64.214 730.865 64.6875 731.195 65.0398C731.524 65.392 731.952 65.5682 732.479 65.5682C732.797 65.5682 733.113 65.4886 733.428 65.3295C733.746 65.1705 734.009 64.9299 734.217 64.608C734.429 64.286 734.534 63.8769 734.53 63.3807ZM742.591 58.2727V59.6364H737.824V58.2727H742.591ZM739.102 56.1818H740.801V64.4375C740.801 64.767 740.85 65.0152 740.949 65.1818C741.047 65.3447 741.174 65.4564 741.33 65.517C741.489 65.5739 741.661 65.6023 741.847 65.6023C741.983 65.6023 742.102 65.5928 742.205 65.5739C742.307 65.5549 742.386 65.5398 742.443 65.5284L742.75 66.9318C742.652 66.9697 742.511 67.0076 742.33 67.0455C742.148 67.0871 741.92 67.1098 741.648 67.1136C741.201 67.1212 740.784 67.0417 740.398 66.875C740.011 66.7083 739.699 66.4508 739.46 66.1023C739.222 65.7538 739.102 65.3163 739.102 64.7898V56.1818ZM754.233 63.3807V58.2727H755.938V67H754.267V65.4886H754.176C753.975 65.9545 753.653 66.3428 753.21 66.6534C752.771 66.9602 752.223 67.1136 751.568 67.1136C751.008 67.1136 750.511 66.9905 750.08 66.7443C749.652 66.4943 749.314 66.125 749.068 65.6364C748.826 65.1477 748.705 64.5436 748.705 63.8239V58.2727H750.403V63.6193C750.403 64.214 750.568 64.6875 750.898 65.0398C751.227 65.392 751.655 65.5682 752.182 65.5682C752.5 65.5682 752.816 65.4886 753.131 65.3295C753.449 65.1705 753.712 64.9299 753.92 64.608C754.133 64.286 754.237 63.8769 754.233 63.3807ZM764.76 60.4034L763.22 60.6761C763.156 60.4792 763.054 60.2917 762.913 60.1136C762.777 59.9356 762.591 59.7898 762.357 59.6761C762.122 59.5625 761.828 59.5057 761.476 59.5057C760.995 59.5057 760.593 59.6136 760.271 59.8295C759.949 60.0417 759.788 60.3163 759.788 60.6534C759.788 60.9451 759.896 61.1799 760.112 61.358C760.328 61.536 760.677 61.6818 761.158 61.7955L762.544 62.1136C763.347 62.2992 763.946 62.5852 764.339 62.9716C764.733 63.358 764.93 63.8598 764.93 64.4773C764.93 65 764.779 65.4659 764.476 65.875C764.177 66.2803 763.758 66.5985 763.22 66.8295C762.686 67.0606 762.067 67.1761 761.362 67.1761C760.385 67.1761 759.588 66.9678 758.97 66.5511C758.353 66.1307 757.974 65.5341 757.834 64.7614L759.476 64.5114C759.578 64.9394 759.788 65.2633 760.107 65.483C760.425 65.6989 760.839 65.8068 761.351 65.8068C761.908 65.8068 762.353 65.6913 762.686 65.4602C763.019 65.2254 763.186 64.9394 763.186 64.6023C763.186 64.3295 763.084 64.1004 762.879 63.9148C762.679 63.7292 762.37 63.589 761.953 63.4943L760.476 63.1705C759.661 62.9848 759.059 62.6894 758.669 62.2841C758.283 61.8788 758.089 61.3655 758.089 60.7443C758.089 60.2292 758.233 59.7784 758.521 59.392C758.809 59.0057 759.207 58.7045 759.714 58.4886C760.222 58.2689 760.804 58.1591 761.459 58.1591C762.402 58.1591 763.144 58.3636 763.686 58.7727C764.228 59.178 764.586 59.7216 764.76 60.4034Z" fill="#625347"/>
<path d="M807.625 58.4205C807.564 57.8826 807.314 57.4659 806.875 57.1705C806.436 56.8712 805.883 56.7216 805.216 56.7216C804.739 56.7216 804.326 56.7973 803.977 56.9489C803.629 57.0966 803.358 57.3011 803.165 57.5625C802.975 57.8201 802.881 58.1136 802.881 58.4432C802.881 58.7197 802.945 58.9583 803.074 59.1591C803.206 59.3598 803.379 59.5284 803.591 59.6648C803.807 59.7973 804.038 59.9091 804.284 60C804.53 60.0871 804.767 60.1591 804.994 60.2159L806.131 60.5114C806.502 60.6023 806.883 60.7254 807.273 60.8807C807.663 61.036 808.025 61.2405 808.358 61.4943C808.691 61.7481 808.96 62.0625 809.165 62.4375C809.373 62.8125 809.477 63.2614 809.477 63.7841C809.477 64.4432 809.307 65.0284 808.966 65.5398C808.629 66.0511 808.138 66.4545 807.494 66.75C806.854 67.0455 806.08 67.1932 805.17 67.1932C804.299 67.1932 803.545 67.0549 802.909 66.7784C802.273 66.5019 801.775 66.1098 801.415 65.6023C801.055 65.0909 800.856 64.4848 800.818 63.7841H802.58C802.614 64.2045 802.75 64.5549 802.989 64.8352C803.231 65.1117 803.54 65.3182 803.915 65.4545C804.294 65.5871 804.708 65.6534 805.159 65.6534C805.655 65.6534 806.097 65.5758 806.483 65.4205C806.873 65.2614 807.18 65.0417 807.403 64.7614C807.627 64.4773 807.739 64.1458 807.739 63.767C807.739 63.4223 807.64 63.1402 807.443 62.9205C807.25 62.7008 806.987 62.5189 806.653 62.375C806.324 62.2311 805.951 62.1042 805.534 61.9943L804.159 61.6193C803.227 61.3655 802.489 60.9924 801.943 60.5C801.402 60.0076 801.131 59.3561 801.131 58.5455C801.131 57.875 801.313 57.2898 801.676 56.7898C802.04 56.2898 802.532 55.9015 803.153 55.625C803.775 55.3447 804.475 55.2045 805.256 55.2045C806.044 55.2045 806.739 55.3428 807.341 55.6193C807.947 55.8958 808.424 56.2765 808.773 56.7614C809.121 57.2424 809.303 57.7955 809.318 58.4205H807.625ZM815.2 67.1761C814.34 67.1761 813.6 66.9924 812.979 66.625C812.361 66.2538 811.884 65.733 811.547 65.0625C811.214 64.3883 811.047 63.5985 811.047 62.6932C811.047 61.7992 811.214 61.0114 811.547 60.3295C811.884 59.6477 812.354 59.1155 812.956 58.733C813.562 58.3504 814.27 58.1591 815.081 58.1591C815.573 58.1591 816.051 58.2405 816.513 58.4034C816.975 58.5663 817.39 58.822 817.757 59.1705C818.125 59.5189 818.414 59.9716 818.626 60.5284C818.839 61.0814 818.945 61.7538 818.945 62.5455V63.1477H812.007V61.875H817.28C817.28 61.428 817.189 61.0322 817.007 60.6875C816.825 60.339 816.57 60.0644 816.24 59.8636C815.914 59.6629 815.532 59.5625 815.092 59.5625C814.615 59.5625 814.198 59.6799 813.842 59.9148C813.49 60.1458 813.217 60.4489 813.024 60.8239C812.835 61.1951 812.74 61.5985 812.74 62.0341V63.0284C812.74 63.6117 812.842 64.108 813.047 64.517C813.255 64.9261 813.545 65.2386 813.916 65.4545C814.287 65.6667 814.721 65.7727 815.217 65.7727C815.539 65.7727 815.833 65.7273 816.098 65.6364C816.363 65.5417 816.592 65.4015 816.786 65.2159C816.979 65.0303 817.126 64.8011 817.229 64.5284L818.837 64.8182C818.708 65.2917 818.477 65.7064 818.143 66.0625C817.814 66.4148 817.399 66.6894 816.899 66.8864C816.403 67.0795 815.837 67.1761 815.2 67.1761ZM820.83 67V58.2727H822.472V59.6591H822.562C822.722 59.1894 823.002 58.8201 823.403 58.5511C823.809 58.2784 824.267 58.142 824.778 58.142C824.884 58.142 825.009 58.1458 825.153 58.1534C825.301 58.161 825.417 58.1705 825.5 58.1818V59.8068C825.432 59.7879 825.311 59.767 825.136 59.7443C824.962 59.7178 824.788 59.7045 824.614 59.7045C824.212 59.7045 823.854 59.7898 823.54 59.9602C823.229 60.1269 822.983 60.3598 822.801 60.6591C822.619 60.9545 822.528 61.2917 822.528 61.6705V67H820.83ZM834.702 58.2727L831.537 67H829.719L826.548 58.2727H828.372L830.582 64.9886H830.673L832.878 58.2727H834.702ZM836.298 67V58.2727H837.997V67H836.298ZM837.156 56.9261C836.861 56.9261 836.607 56.8277 836.395 56.6307C836.187 56.4299 836.082 56.1913 836.082 55.9148C836.082 55.6345 836.187 55.3958 836.395 55.1989C836.607 54.9981 836.861 54.8977 837.156 54.8977C837.452 54.8977 837.704 54.9981 837.912 55.1989C838.124 55.3958 838.23 55.6345 838.23 55.9148C838.23 56.1913 838.124 56.4299 837.912 56.6307C837.704 56.8277 837.452 56.9261 837.156 56.9261ZM843.959 67.1761C843.114 67.1761 842.387 66.9848 841.777 66.6023C841.171 66.2159 840.705 65.6837 840.379 65.0057C840.054 64.3277 839.891 63.5511 839.891 62.6761C839.891 61.7898 840.057 61.0076 840.391 60.3295C840.724 59.6477 841.194 59.1155 841.8 58.733C842.406 58.3504 843.12 58.1591 843.942 58.1591C844.605 58.1591 845.196 58.2822 845.714 58.5284C846.233 58.7708 846.652 59.1117 846.97 59.5511C847.292 59.9905 847.483 60.5038 847.544 61.0909H845.891C845.8 60.6818 845.591 60.3295 845.266 60.0341C844.944 59.7386 844.512 59.5909 843.97 59.5909C843.497 59.5909 843.082 59.7159 842.726 59.9659C842.374 60.2121 842.099 60.5644 841.902 61.0227C841.705 61.4773 841.607 62.0152 841.607 62.6364C841.607 63.2727 841.703 63.822 841.896 64.2841C842.089 64.7462 842.362 65.1042 842.714 65.358C843.071 65.6117 843.489 65.7386 843.97 65.7386C844.292 65.7386 844.584 65.6799 844.845 65.5625C845.11 65.4413 845.332 65.2689 845.51 65.0455C845.692 64.822 845.819 64.553 845.891 64.2386H847.544C847.483 64.803 847.3 65.3068 846.993 65.75C846.686 66.1932 846.275 66.5417 845.76 66.7955C845.249 67.0492 844.648 67.1761 843.959 67.1761ZM853.122 67.1761C852.262 67.1761 851.522 66.9924 850.901 66.625C850.283 66.2538 849.806 65.733 849.469 65.0625C849.135 64.3883 848.969 63.5985 848.969 62.6932C848.969 61.7992 849.135 61.0114 849.469 60.3295C849.806 59.6477 850.276 59.1155 850.878 58.733C851.484 58.3504 852.192 58.1591 853.003 58.1591C853.495 58.1591 853.973 58.2405 854.435 58.4034C854.897 58.5663 855.312 58.822 855.679 59.1705C856.046 59.5189 856.336 59.9716 856.548 60.5284C856.76 61.0814 856.866 61.7538 856.866 62.5455V63.1477H849.929V61.875H855.202C855.202 61.428 855.111 61.0322 854.929 60.6875C854.747 60.339 854.491 60.0644 854.162 59.8636C853.836 59.6629 853.454 59.5625 853.014 59.5625C852.537 59.5625 852.12 59.6799 851.764 59.9148C851.412 60.1458 851.139 60.4489 850.946 60.8239C850.757 61.1951 850.662 61.5985 850.662 62.0341V63.0284C850.662 63.6117 850.764 64.108 850.969 64.517C851.177 64.9261 851.467 65.2386 851.838 65.4545C852.209 65.6667 852.643 65.7727 853.139 65.7727C853.461 65.7727 853.755 65.7273 854.02 65.6364C854.285 65.5417 854.514 65.4015 854.707 65.2159C854.901 65.0303 855.048 64.8011 855.151 64.5284L856.759 64.8182C856.63 65.2917 856.399 65.7064 856.065 66.0625C855.736 66.4148 855.321 66.6894 854.821 66.8864C854.325 67.0795 853.759 67.1761 853.122 67.1761Z" fill="#625347"/>
<rect width="176" height="42" transform="translate(1173 40)" fill="#5F2900"/>
<path d="M1202.8 59.224C1202.75 58.748 1202.63 58.3187 1202.44 57.936C1202.24 57.5533 1201.97 57.25 1201.62 57.026C1201.28 56.7927 1200.85 56.6807 1200.34 56.69C1199.81 56.69 1199.4 56.8347 1199.09 57.124C1198.78 57.4133 1198.63 57.7633 1198.63 58.174C1198.63 58.538 1198.73 58.846 1198.94 59.098C1199.14 59.3407 1199.42 59.56 1199.76 59.756C1200.12 59.952 1200.51 60.148 1200.95 60.344C1201.31 60.4933 1201.67 60.6613 1202.03 60.848C1202.39 61.0347 1202.73 61.2493 1203.02 61.492C1203.32 61.7253 1203.56 62.01 1203.74 62.346C1203.92 62.6727 1204 63.06 1204 63.508C1204 64.0307 1203.87 64.4973 1203.6 64.908C1203.33 65.3187 1202.94 65.6407 1202.44 65.874C1201.94 66.1073 1201.34 66.224 1200.63 66.224C1200.23 66.224 1199.8 66.1633 1199.36 66.042C1198.92 65.9207 1198.52 65.748 1198.15 65.524L1198.22 66.112H1197.37L1197.31 63.032H1197.98C1198.06 63.844 1198.35 64.46 1198.85 64.88C1199.37 65.2907 1199.98 65.496 1200.69 65.496C1201.04 65.496 1201.36 65.4307 1201.65 65.3C1201.94 65.1693 1202.17 64.9827 1202.34 64.74C1202.51 64.4973 1202.59 64.2127 1202.59 63.886C1202.59 63.5033 1202.47 63.1813 1202.24 62.92C1202.02 62.6587 1201.73 62.4347 1201.37 62.248C1201.03 62.0613 1200.66 61.884 1200.28 61.716C1199.9 61.548 1199.52 61.3707 1199.16 61.184C1198.81 60.9973 1198.48 60.7827 1198.19 60.54C1197.9 60.2973 1197.68 60.0127 1197.51 59.686C1197.34 59.35 1197.26 58.958 1197.26 58.51C1197.26 58.2487 1197.3 57.9733 1197.4 57.684C1197.49 57.3947 1197.65 57.1193 1197.87 56.858C1198.1 56.5967 1198.4 56.3867 1198.78 56.228C1199.17 56.06 1199.66 55.976 1200.25 55.976C1200.61 55.976 1201 56.0273 1201.44 56.13C1201.89 56.2327 1202.3 56.4147 1202.66 56.676L1202.6 56.088H1203.44V59.224H1202.8ZM1204.68 69.57V68.982C1204.96 68.982 1205.16 68.9167 1205.27 68.786C1205.38 68.6553 1205.45 68.4733 1205.46 68.24C1205.49 68.0067 1205.51 67.736 1205.51 67.428L1205.52 60.946C1205.52 60.7967 1205.53 60.638 1205.53 60.47C1205.54 60.2927 1205.56 60.12 1205.58 59.952C1205.42 59.9613 1205.25 59.9707 1205.07 59.98C1204.9 59.98 1204.73 59.9847 1204.58 59.994V59.252C1205 59.252 1205.33 59.2333 1205.56 59.196C1205.81 59.1493 1205.99 59.098 1206.11 59.042C1206.24 58.986 1206.34 58.9253 1206.4 58.86H1206.91C1206.92 58.9533 1206.93 59.0653 1206.93 59.196C1206.94 59.3267 1206.95 59.4573 1206.96 59.588C1207.26 59.3267 1207.59 59.126 1207.96 58.986C1208.32 58.846 1208.68 58.776 1209.05 58.776C1209.59 58.776 1210.08 58.9207 1210.53 59.21C1210.99 59.49 1211.35 59.8913 1211.62 60.414C1211.9 60.9367 1212.04 61.5573 1212.04 62.276C1212.04 63.0507 1211.89 63.7367 1211.57 64.334C1211.25 64.9313 1210.82 65.398 1210.28 65.734C1209.75 66.0607 1209.16 66.224 1208.5 66.224C1208.2 66.224 1207.93 66.1867 1207.68 66.112C1207.42 66.0467 1207.19 65.9533 1206.96 65.832V67.834C1206.96 68.002 1206.96 68.17 1206.95 68.338C1206.95 68.5153 1206.94 68.6927 1206.92 68.87C1207.07 68.8607 1207.22 68.8513 1207.37 68.842C1207.53 68.842 1207.67 68.8373 1207.8 68.828V69.57H1204.68ZM1208.4 65.496C1208.85 65.496 1209.22 65.3653 1209.51 65.104C1209.81 64.8333 1210.03 64.474 1210.17 64.026C1210.32 63.5687 1210.39 63.0553 1210.39 62.486C1210.39 62.01 1210.33 61.5573 1210.2 61.128C1210.07 60.6893 1209.86 60.3347 1209.57 60.064C1209.29 59.784 1208.92 59.6487 1208.46 59.658C1208.17 59.658 1207.9 59.728 1207.63 59.868C1207.37 60.008 1207.15 60.1807 1206.98 60.386C1206.98 60.5073 1206.98 60.638 1206.98 60.778C1206.99 60.918 1206.99 61.0953 1206.99 61.31C1206.99 61.5153 1206.99 61.7813 1206.99 62.108C1206.99 62.4253 1206.99 62.8267 1206.98 63.312C1206.98 63.788 1206.98 64.3667 1206.98 65.048C1207.16 65.188 1207.38 65.3 1207.62 65.384C1207.87 65.468 1208.13 65.5053 1208.4 65.496ZM1216.25 66.224C1215.6 66.224 1215.01 66.0747 1214.49 65.776C1213.98 65.468 1213.57 65.0387 1213.27 64.488C1212.97 63.928 1212.82 63.27 1212.82 62.514C1212.82 61.8607 1212.97 61.2493 1213.26 60.68C1213.56 60.1107 1213.97 59.6533 1214.5 59.308C1215.04 58.9533 1215.65 58.776 1216.35 58.776C1216.74 58.776 1217.11 58.8367 1217.46 58.958C1217.81 59.0793 1218.12 59.2707 1218.4 59.532C1218.68 59.784 1218.89 60.1153 1219.05 60.526C1219.21 60.9273 1219.29 61.4173 1219.29 61.996L1214.48 62.08C1214.48 62.7147 1214.55 63.2793 1214.69 63.774C1214.83 64.2687 1215.07 64.6513 1215.4 64.922C1215.73 65.1927 1216.15 65.328 1216.67 65.328C1216.93 65.328 1217.19 65.286 1217.47 65.202C1217.76 65.1087 1218.03 64.978 1218.28 64.81C1218.54 64.642 1218.76 64.4413 1218.94 64.208L1219.38 64.586C1219.1 65.006 1218.77 65.3373 1218.41 65.58C1218.05 65.8133 1217.67 65.9767 1217.29 66.07C1216.92 66.1727 1216.57 66.224 1216.25 66.224ZM1214.53 61.352H1217.77C1217.77 60.9973 1217.71 60.68 1217.61 60.4C1217.52 60.1107 1217.37 59.882 1217.16 59.714C1216.96 59.546 1216.7 59.462 1216.38 59.462C1215.88 59.462 1215.48 59.6207 1215.16 59.938C1214.84 60.246 1214.63 60.7173 1214.53 61.352ZM1224.3 66C1224.29 65.8507 1224.27 65.72 1224.26 65.608C1224.25 65.496 1224.24 65.3793 1224.22 65.258C1223.9 65.5753 1223.56 65.818 1223.2 65.986C1222.83 66.1447 1222.46 66.224 1222.06 66.224C1221.39 66.224 1220.88 66.0607 1220.54 65.734C1220.2 65.398 1220.03 64.9827 1220.03 64.488C1220.03 64.0587 1220.16 63.6853 1220.41 63.368C1220.66 63.0507 1221 62.794 1221.41 62.598C1221.82 62.3927 1222.26 62.2433 1222.75 62.15C1223.24 62.0473 1223.71 61.996 1224.18 61.996V61.17C1224.18 60.8713 1224.15 60.596 1224.09 60.344C1224.04 60.0827 1223.92 59.8727 1223.74 59.714C1223.58 59.546 1223.31 59.462 1222.95 59.462C1222.7 59.4527 1222.46 59.4993 1222.22 59.602C1221.98 59.6953 1221.79 59.854 1221.66 60.078C1221.73 60.1527 1221.78 60.2413 1221.8 60.344C1221.83 60.4373 1221.84 60.526 1221.84 60.61C1221.84 60.7407 1221.78 60.89 1221.67 61.058C1221.56 61.2167 1221.37 61.2913 1221.1 61.282C1220.87 61.282 1220.7 61.2073 1220.58 61.058C1220.47 60.8993 1220.41 60.7173 1220.41 60.512C1220.41 60.176 1220.53 59.8773 1220.78 59.616C1221.03 59.3547 1221.37 59.1493 1221.8 59C1222.23 58.8507 1222.71 58.776 1223.24 58.776C1224.04 58.776 1224.64 58.986 1225.03 59.406C1225.43 59.826 1225.63 60.4887 1225.63 61.394C1225.63 61.73 1225.63 62.052 1225.63 62.36C1225.63 62.668 1225.63 62.976 1225.62 63.284C1225.62 63.592 1225.62 63.9187 1225.62 64.264C1225.62 64.404 1225.62 64.5627 1225.61 64.74C1225.6 64.9173 1225.58 65.104 1225.56 65.3C1225.72 65.2907 1225.89 65.2813 1226.05 65.272C1226.22 65.2627 1226.38 65.258 1226.53 65.258V66H1224.3ZM1224.18 62.64C1223.88 62.6587 1223.57 62.7007 1223.25 62.766C1222.95 62.8313 1222.67 62.9293 1222.41 63.06C1222.16 63.1907 1221.96 63.3587 1221.8 63.564C1221.65 63.7693 1221.57 64.0167 1221.57 64.306C1221.59 64.6233 1221.7 64.8567 1221.88 65.006C1222.08 65.1553 1222.31 65.23 1222.57 65.23C1222.89 65.23 1223.18 65.1693 1223.44 65.048C1223.69 64.9173 1223.94 64.74 1224.18 64.516C1224.17 64.4133 1224.16 64.3107 1224.16 64.208C1224.16 64.096 1224.16 63.9793 1224.16 63.858C1224.16 63.774 1224.16 63.62 1224.16 63.396C1224.17 63.1627 1224.18 62.9107 1224.18 62.64ZM1227 66V65.412C1227.28 65.412 1227.47 65.3467 1227.57 65.216C1227.69 65.0853 1227.75 64.9033 1227.77 64.67C1227.8 64.4367 1227.81 64.166 1227.81 63.858L1227.83 57.53C1227.83 57.3713 1227.83 57.2127 1227.83 57.054C1227.84 56.886 1227.85 56.7087 1227.87 56.522C1227.71 56.5313 1227.54 56.5407 1227.36 56.55C1227.19 56.55 1227.03 56.5547 1226.89 56.564V55.822C1227.3 55.822 1227.63 55.8033 1227.87 55.766C1228.12 55.7193 1228.32 55.668 1228.46 55.612C1228.6 55.556 1228.69 55.4953 1228.75 55.43H1229.28V61.968H1229.88L1231.35 60.386C1231.5 60.2367 1231.63 60.106 1231.75 59.994C1231.86 59.882 1231.97 59.784 1232.08 59.7L1231.2 59.728V59H1233.96V59.574C1233.63 59.6113 1233.33 59.7093 1233.06 59.868C1232.8 60.0173 1232.56 60.19 1232.35 60.386C1232.13 60.582 1231.95 60.764 1231.8 60.932L1230.77 62.024C1230.94 62.108 1231.1 62.2153 1231.23 62.346C1231.36 62.4673 1231.5 62.626 1231.65 62.822L1232.63 64.082C1232.67 64.138 1232.75 64.2407 1232.85 64.39C1232.96 64.53 1233.09 64.6793 1233.24 64.838C1233.39 64.9967 1233.55 65.132 1233.71 65.244C1233.87 65.356 1234.03 65.412 1234.18 65.412V66H1232.8C1232.53 66 1232.27 65.874 1232.04 65.622C1231.82 65.37 1231.57 65.0667 1231.3 64.712C1231.07 64.4133 1230.87 64.1333 1230.68 63.872C1230.5 63.6013 1230.32 63.3587 1230.16 63.144C1230.01 62.9293 1229.88 62.7613 1229.77 62.64L1229.28 62.668V64.264C1229.28 64.432 1229.28 64.6047 1229.27 64.782C1229.27 64.95 1229.25 65.1227 1229.23 65.3C1229.38 65.2907 1229.53 65.286 1229.69 65.286C1229.85 65.2767 1229.99 65.2673 1230.12 65.258V66H1227ZM1240.72 66.224C1240.49 66.224 1240.25 66.1913 1240.01 66.126C1239.78 66.07 1239.56 65.9533 1239.37 65.776C1239.17 65.5893 1239.02 65.3233 1238.9 64.978C1238.79 64.6327 1238.74 64.1753 1238.74 63.606L1238.76 59.784H1237.73V59C1237.98 58.9907 1238.24 58.8973 1238.5 58.72C1238.76 58.5427 1238.99 58.3047 1239.18 58.006C1239.38 57.7073 1239.52 57.3853 1239.59 57.04H1240.25V59H1242.4V59.728L1240.25 59.756L1240.22 63.494C1240.22 63.8487 1240.25 64.1613 1240.3 64.432C1240.37 64.6933 1240.47 64.8987 1240.61 65.048C1240.76 65.188 1240.96 65.258 1241.21 65.258C1241.43 65.258 1241.65 65.1927 1241.87 65.062C1242.11 64.9313 1242.33 64.7167 1242.53 64.418L1243.01 64.838C1242.78 65.1647 1242.56 65.4213 1242.33 65.608C1242.11 65.7947 1241.9 65.93 1241.69 66.014C1241.49 66.1073 1241.3 66.1633 1241.13 66.182C1240.96 66.21 1240.83 66.224 1240.72 66.224ZM1246.78 66.224C1246.12 66.224 1245.52 66.0747 1244.99 65.776C1244.46 65.4773 1244.03 65.062 1243.71 64.53C1243.41 63.9887 1243.25 63.368 1243.25 62.668C1243.25 61.912 1243.41 61.2447 1243.71 60.666C1244.03 60.078 1244.46 59.616 1244.99 59.28C1245.52 58.944 1246.11 58.776 1246.77 58.776C1247.43 58.776 1248.03 58.93 1248.56 59.238C1249.09 59.5367 1249.51 59.9567 1249.82 60.498C1250.14 61.03 1250.29 61.646 1250.29 62.346C1250.29 63.0833 1250.14 63.746 1249.83 64.334C1249.52 64.922 1249.1 65.384 1248.57 65.72C1248.05 66.056 1247.45 66.224 1246.78 66.224ZM1246.88 65.524C1247.33 65.5147 1247.68 65.3747 1247.93 65.104C1248.19 64.8333 1248.38 64.488 1248.49 64.068C1248.6 63.6387 1248.66 63.1953 1248.66 62.738C1248.66 62.3367 1248.62 61.9447 1248.54 61.562C1248.48 61.17 1248.37 60.8153 1248.22 60.498C1248.07 60.1807 1247.88 59.9287 1247.63 59.742C1247.39 59.546 1247.1 59.4527 1246.75 59.462C1246.31 59.462 1245.95 59.5973 1245.67 59.868C1245.4 60.1387 1245.2 60.4887 1245.07 60.918C1244.95 61.338 1244.89 61.786 1244.89 62.262C1244.89 62.8127 1244.96 63.3353 1245.1 63.83C1245.24 64.3247 1245.45 64.7307 1245.74 65.048C1246.04 65.3653 1246.42 65.524 1246.88 65.524ZM1258.68 66C1258.66 65.8507 1258.64 65.72 1258.63 65.608C1258.63 65.496 1258.61 65.3793 1258.59 65.258C1258.28 65.5753 1257.93 65.818 1257.57 65.986C1257.21 66.1447 1256.83 66.224 1256.44 66.224C1255.76 66.224 1255.26 66.0607 1254.91 65.734C1254.57 65.398 1254.41 64.9827 1254.41 64.488C1254.41 64.0587 1254.53 63.6853 1254.78 63.368C1255.04 63.0507 1255.37 62.794 1255.78 62.598C1256.19 62.3927 1256.64 62.2433 1257.12 62.15C1257.61 62.0473 1258.08 61.996 1258.55 61.996V61.17C1258.55 60.8713 1258.52 60.596 1258.47 60.344C1258.41 60.0827 1258.29 59.8727 1258.12 59.714C1257.95 59.546 1257.68 59.462 1257.32 59.462C1257.08 59.4527 1256.83 59.4993 1256.59 59.602C1256.35 59.6953 1256.16 59.854 1256.03 60.078C1256.11 60.1527 1256.15 60.2413 1256.17 60.344C1256.2 60.4373 1256.21 60.526 1256.21 60.61C1256.21 60.7407 1256.16 60.89 1256.04 61.058C1255.93 61.2167 1255.74 61.2913 1255.47 61.282C1255.25 61.282 1255.07 61.2073 1254.95 61.058C1254.84 60.8993 1254.78 60.7173 1254.78 60.512C1254.78 60.176 1254.91 59.8773 1255.15 59.616C1255.4 59.3547 1255.74 59.1493 1256.17 59C1256.6 58.8507 1257.08 58.776 1257.61 58.776C1258.42 58.776 1259.01 58.986 1259.4 59.406C1259.81 59.826 1260.01 60.4887 1260.01 61.394C1260.01 61.73 1260.01 62.052 1260.01 62.36C1260.01 62.668 1260 62.976 1259.99 63.284C1259.99 63.592 1259.99 63.9187 1259.99 64.264C1259.99 64.404 1259.99 64.5627 1259.98 64.74C1259.97 64.9173 1259.96 65.104 1259.94 65.3C1260.1 65.2907 1260.26 65.2813 1260.43 65.272C1260.59 65.2627 1260.75 65.258 1260.9 65.258V66H1258.68ZM1258.55 62.64C1258.25 62.6587 1257.94 62.7007 1257.63 62.766C1257.32 62.8313 1257.04 62.9293 1256.79 63.06C1256.53 63.1907 1256.33 63.3587 1256.17 63.564C1256.02 63.7693 1255.95 64.0167 1255.95 64.306C1255.97 64.6233 1256.07 64.8567 1256.25 65.006C1256.45 65.1553 1256.68 65.23 1256.94 65.23C1257.27 65.23 1257.56 65.1693 1257.81 65.048C1258.06 64.9173 1258.31 64.74 1258.55 64.516C1258.54 64.4133 1258.54 64.3107 1258.54 64.208C1258.54 64.096 1258.54 63.9793 1258.54 63.858C1258.54 63.774 1258.54 63.62 1258.54 63.396C1258.55 63.1627 1258.55 62.9107 1258.55 62.64ZM1270.62 59.224C1270.58 58.748 1270.45 58.3187 1270.26 57.936C1270.06 57.5533 1269.79 57.25 1269.45 57.026C1269.1 56.7927 1268.67 56.6807 1268.16 56.69C1267.64 56.69 1267.22 56.8347 1266.91 57.124C1266.6 57.4133 1266.45 57.7633 1266.45 58.174C1266.45 58.538 1266.55 58.846 1266.76 59.098C1266.96 59.3407 1267.24 59.56 1267.58 59.756C1267.94 59.952 1268.34 60.148 1268.77 60.344C1269.13 60.4933 1269.49 60.6613 1269.85 60.848C1270.22 61.0347 1270.55 61.2493 1270.85 61.492C1271.15 61.7253 1271.38 62.01 1271.56 62.346C1271.74 62.6727 1271.83 63.06 1271.83 63.508C1271.83 64.0307 1271.69 64.4973 1271.42 64.908C1271.15 65.3187 1270.76 65.6407 1270.26 65.874C1269.76 66.1073 1269.16 66.224 1268.45 66.224C1268.05 66.224 1267.63 66.1633 1267.18 66.042C1266.74 65.9207 1266.34 65.748 1265.97 65.524L1266.04 66.112H1265.19L1265.13 63.032H1265.81C1265.88 63.844 1266.17 64.46 1266.67 64.88C1267.19 65.2907 1267.8 65.496 1268.51 65.496C1268.86 65.496 1269.19 65.4307 1269.47 65.3C1269.76 65.1693 1269.99 64.9827 1270.16 64.74C1270.33 64.4973 1270.41 64.2127 1270.41 63.886C1270.41 63.5033 1270.3 63.1813 1270.06 62.92C1269.84 62.6587 1269.55 62.4347 1269.19 62.248C1268.85 62.0613 1268.49 61.884 1268.1 61.716C1267.72 61.548 1267.35 61.3707 1266.98 61.184C1266.63 60.9973 1266.31 60.7827 1266.02 60.54C1265.73 60.2973 1265.5 60.0127 1265.33 59.686C1265.16 59.35 1265.08 58.958 1265.08 58.51C1265.08 58.2487 1265.13 57.9733 1265.22 57.684C1265.31 57.3947 1265.47 57.1193 1265.69 56.858C1265.92 56.5967 1266.22 56.3867 1266.6 56.228C1267 56.06 1267.49 55.976 1268.07 55.976C1268.43 55.976 1268.83 56.0273 1269.26 56.13C1269.71 56.2327 1270.12 56.4147 1270.48 56.676L1270.43 56.088H1271.27V59.224H1270.62ZM1272.5 69.57V68.982C1272.78 68.982 1272.98 68.9167 1273.09 68.786C1273.2 68.6553 1273.27 68.4733 1273.29 68.24C1273.31 68.0067 1273.33 67.736 1273.33 67.428L1273.34 60.946C1273.34 60.7967 1273.35 60.638 1273.36 60.47C1273.37 60.2927 1273.38 60.12 1273.4 59.952C1273.24 59.9613 1273.07 59.9707 1272.89 59.98C1272.72 59.98 1272.55 59.9847 1272.4 59.994V59.252C1272.82 59.252 1273.15 59.2333 1273.38 59.196C1273.63 59.1493 1273.81 59.098 1273.93 59.042C1274.06 58.986 1274.16 58.9253 1274.22 58.86H1274.73C1274.74 58.9533 1274.75 59.0653 1274.76 59.196C1274.77 59.3267 1274.78 59.4573 1274.78 59.588C1275.08 59.3267 1275.41 59.126 1275.78 58.986C1276.14 58.846 1276.51 58.776 1276.87 58.776C1277.41 58.776 1277.91 58.9207 1278.35 59.21C1278.81 59.49 1279.18 59.8913 1279.45 60.414C1279.73 60.9367 1279.87 61.5573 1279.87 62.276C1279.87 63.0507 1279.71 63.7367 1279.39 64.334C1279.07 64.9313 1278.64 65.398 1278.1 65.734C1277.57 66.0607 1276.98 66.224 1276.32 66.224C1276.03 66.224 1275.75 66.1867 1275.5 66.112C1275.25 66.0467 1275.01 65.9533 1274.78 65.832V67.834C1274.78 68.002 1274.78 68.17 1274.77 68.338C1274.77 68.5153 1274.76 68.6927 1274.74 68.87C1274.89 68.8607 1275.04 68.8513 1275.19 68.842C1275.35 68.842 1275.49 68.8373 1275.62 68.828V69.57H1272.5ZM1276.23 65.496C1276.67 65.496 1277.04 65.3653 1277.33 65.104C1277.63 64.8333 1277.85 64.474 1277.99 64.026C1278.14 63.5687 1278.21 63.0553 1278.21 62.486C1278.21 62.01 1278.15 61.5573 1278.02 61.128C1277.89 60.6893 1277.68 60.3347 1277.39 60.064C1277.11 59.784 1276.74 59.6487 1276.28 59.658C1275.99 59.658 1275.72 59.728 1275.46 59.868C1275.2 60.008 1274.98 60.1807 1274.8 60.386C1274.8 60.5073 1274.8 60.638 1274.8 60.778C1274.81 60.918 1274.81 61.0953 1274.81 61.31C1274.81 61.5153 1274.81 61.7813 1274.81 62.108C1274.81 62.4253 1274.81 62.8267 1274.8 63.312C1274.8 63.788 1274.8 64.3667 1274.8 65.048C1274.99 65.188 1275.2 65.3 1275.44 65.384C1275.69 65.468 1275.96 65.5053 1276.23 65.496ZM1284.08 66.224C1283.42 66.224 1282.83 66.0747 1282.31 65.776C1281.8 65.468 1281.39 65.0387 1281.09 64.488C1280.8 63.928 1280.65 63.27 1280.65 62.514C1280.65 61.8607 1280.79 61.2493 1281.08 60.68C1281.38 60.1107 1281.79 59.6533 1282.33 59.308C1282.86 58.9533 1283.47 58.776 1284.17 58.776C1284.57 58.776 1284.93 58.8367 1285.28 58.958C1285.63 59.0793 1285.95 59.2707 1286.22 59.532C1286.5 59.784 1286.72 60.1153 1286.88 60.526C1287.03 60.9273 1287.11 61.4173 1287.11 61.996L1282.3 62.08C1282.3 62.7147 1282.37 63.2793 1282.51 63.774C1282.66 64.2687 1282.9 64.6513 1283.22 64.922C1283.55 65.1927 1283.97 65.328 1284.5 65.328C1284.75 65.328 1285.01 65.286 1285.29 65.202C1285.58 65.1087 1285.85 64.978 1286.11 64.81C1286.37 64.642 1286.59 64.4413 1286.76 64.208L1287.2 64.586C1286.92 65.006 1286.6 65.3373 1286.23 65.58C1285.87 65.8133 1285.49 65.9767 1285.11 66.07C1284.74 66.1727 1284.39 66.224 1284.08 66.224ZM1282.35 61.352H1285.59C1285.59 60.9973 1285.54 60.68 1285.43 60.4C1285.34 60.1107 1285.19 59.882 1284.99 59.714C1284.78 59.546 1284.52 59.462 1284.2 59.462C1283.71 59.462 1283.3 59.6207 1282.98 59.938C1282.67 60.246 1282.46 60.7173 1282.35 61.352ZM1291.34 66.224C1290.72 66.224 1290.14 66.084 1289.62 65.804C1289.1 65.5147 1288.68 65.104 1288.36 64.572C1288.05 64.04 1287.9 63.396 1287.9 62.64C1287.9 62.136 1287.99 61.6553 1288.17 61.198C1288.34 60.7313 1288.59 60.316 1288.91 59.952C1289.23 59.588 1289.62 59.3033 1290.06 59.098C1290.5 58.8833 1291 58.776 1291.54 58.776C1292.09 58.776 1292.56 58.86 1292.95 59.028C1293.35 59.196 1293.64 59.4153 1293.85 59.686C1294.06 59.9567 1294.17 60.2507 1294.17 60.568C1294.17 60.792 1294.11 60.988 1293.98 61.156C1293.84 61.324 1293.66 61.408 1293.42 61.408C1293.14 61.4173 1292.95 61.338 1292.84 61.17C1292.73 60.9927 1292.67 60.8293 1292.67 60.68C1292.67 60.596 1292.69 60.5027 1292.72 60.4C1292.74 60.288 1292.79 60.19 1292.87 60.106C1292.79 59.91 1292.67 59.7653 1292.51 59.672C1292.34 59.5787 1292.16 59.518 1291.99 59.49C1291.81 59.462 1291.66 59.448 1291.54 59.448C1290.97 59.4573 1290.49 59.7047 1290.1 60.19C1289.71 60.666 1289.52 61.3567 1289.52 62.262C1289.52 62.8407 1289.61 63.3587 1289.78 63.816C1289.95 64.2733 1290.21 64.6373 1290.55 64.908C1290.88 65.1787 1291.28 65.3187 1291.75 65.328C1292.17 65.328 1292.58 65.2207 1292.97 65.006C1293.36 64.782 1293.68 64.502 1293.92 64.166L1294.37 64.558C1294.1 64.978 1293.78 65.3093 1293.43 65.552C1293.08 65.7947 1292.73 65.9673 1292.37 66.07C1292.01 66.1727 1291.67 66.224 1291.34 66.224ZM1295.07 65.412C1295.35 65.412 1295.55 65.3467 1295.66 65.216C1295.77 65.0853 1295.84 64.9033 1295.86 64.67C1295.88 64.4367 1295.9 64.166 1295.9 63.858V60.96C1295.9 60.8013 1295.9 60.6427 1295.91 60.484C1295.92 60.316 1295.94 60.1387 1295.95 59.952C1295.8 59.9613 1295.63 59.9707 1295.45 59.98C1295.27 59.98 1295.11 59.9847 1294.96 59.994V59.252C1295.38 59.252 1295.71 59.2333 1295.95 59.196C1296.21 59.1493 1296.4 59.098 1296.53 59.042C1296.67 58.986 1296.77 58.9253 1296.84 58.86H1297.37V64.264C1297.37 64.432 1297.36 64.6047 1297.35 64.782C1297.34 64.95 1297.33 65.1227 1297.31 65.3C1297.46 65.2907 1297.61 65.286 1297.76 65.286C1297.92 65.2767 1298.06 65.2673 1298.19 65.258V66H1295.07V65.412ZM1296.56 57.572C1296.31 57.572 1296.11 57.4833 1295.94 57.306C1295.77 57.1193 1295.69 56.8953 1295.69 56.634C1295.69 56.3727 1295.78 56.1533 1295.95 55.976C1296.13 55.7893 1296.33 55.696 1296.56 55.696C1296.8 55.696 1297 55.7893 1297.16 55.976C1297.33 56.1533 1297.41 56.3727 1297.41 56.634C1297.41 56.8953 1297.33 57.1193 1297.16 57.306C1297 57.4833 1296.8 57.572 1296.56 57.572ZM1303.06 66C1303.05 65.8507 1303.03 65.72 1303.02 65.608C1303.01 65.496 1303 65.3793 1302.98 65.258C1302.66 65.5753 1302.32 65.818 1301.96 65.986C1301.59 66.1447 1301.22 66.224 1300.82 66.224C1300.15 66.224 1299.64 66.0607 1299.3 65.734C1298.96 65.398 1298.79 64.9827 1298.79 64.488C1298.79 64.0587 1298.92 63.6853 1299.17 63.368C1299.42 63.0507 1299.76 62.794 1300.17 62.598C1300.58 62.3927 1301.03 62.2433 1301.51 62.15C1302 62.0473 1302.47 61.996 1302.94 61.996V61.17C1302.94 60.8713 1302.91 60.596 1302.85 60.344C1302.8 60.0827 1302.68 59.8727 1302.5 59.714C1302.34 59.546 1302.07 59.462 1301.71 59.462C1301.46 59.4527 1301.22 59.4993 1300.98 59.602C1300.74 59.6953 1300.55 59.854 1300.42 60.078C1300.49 60.1527 1300.54 60.2413 1300.56 60.344C1300.59 60.4373 1300.6 60.526 1300.6 60.61C1300.6 60.7407 1300.54 60.89 1300.43 61.058C1300.32 61.2167 1300.13 61.2913 1299.86 61.282C1299.63 61.282 1299.46 61.2073 1299.34 61.058C1299.23 60.8993 1299.17 60.7173 1299.17 60.512C1299.17 60.176 1299.29 59.8773 1299.54 59.616C1299.79 59.3547 1300.13 59.1493 1300.56 59C1300.99 58.8507 1301.47 58.776 1302 58.776C1302.8 58.776 1303.4 58.986 1303.79 59.406C1304.19 59.826 1304.39 60.4887 1304.39 61.394C1304.39 61.73 1304.39 62.052 1304.39 62.36C1304.39 62.668 1304.39 62.976 1304.38 63.284C1304.38 63.592 1304.38 63.9187 1304.38 64.264C1304.38 64.404 1304.38 64.5627 1304.37 64.74C1304.36 64.9173 1304.34 65.104 1304.32 65.3C1304.48 65.2907 1304.65 65.2813 1304.81 65.272C1304.98 65.2627 1305.14 65.258 1305.29 65.258V66H1303.06ZM1302.94 62.64C1302.64 62.6587 1302.33 62.7007 1302.01 62.766C1301.71 62.8313 1301.43 62.9293 1301.17 63.06C1300.92 63.1907 1300.72 63.3587 1300.56 63.564C1300.41 63.7693 1300.33 64.0167 1300.33 64.306C1300.35 64.6233 1300.46 64.8567 1300.64 65.006C1300.84 65.1553 1301.07 65.23 1301.33 65.23C1301.66 65.23 1301.94 65.1693 1302.2 65.048C1302.45 64.9173 1302.7 64.74 1302.94 64.516C1302.93 64.4133 1302.92 64.3107 1302.92 64.208C1302.92 64.096 1302.92 63.9793 1302.92 63.858C1302.92 63.774 1302.92 63.62 1302.92 63.396C1302.93 63.1627 1302.94 62.9107 1302.94 62.64ZM1305.75 65.412C1306.03 65.412 1306.22 65.3467 1306.33 65.216C1306.45 65.0853 1306.51 64.9033 1306.53 64.67C1306.56 64.4367 1306.57 64.166 1306.57 63.858V57.53C1306.57 57.3713 1306.57 57.2127 1306.57 57.054C1306.58 56.886 1306.6 56.7087 1306.61 56.522C1306.46 56.5313 1306.29 56.5407 1306.11 56.55C1305.93 56.55 1305.77 56.5547 1305.63 56.564V55.822C1306.05 55.822 1306.39 55.8033 1306.63 55.766C1306.88 55.7193 1307.07 55.668 1307.2 55.612C1307.34 55.556 1307.44 55.4953 1307.51 55.43H1308.04V64.264C1308.04 64.432 1308.04 64.6047 1308.03 64.782C1308.02 64.95 1308 65.1227 1307.99 65.3C1308.14 65.2907 1308.28 65.286 1308.43 65.286C1308.59 65.2767 1308.74 65.2673 1308.87 65.258V66H1305.75V65.412ZM1309.63 65.412C1309.91 65.412 1310.1 65.3467 1310.21 65.216C1310.33 65.0853 1310.39 64.9033 1310.41 64.67C1310.44 64.4367 1310.45 64.166 1310.45 63.858V60.96C1310.45 60.8013 1310.46 60.6427 1310.47 60.484C1310.48 60.316 1310.49 60.1387 1310.51 59.952C1310.35 59.9613 1310.18 59.9707 1310 59.98C1309.83 59.98 1309.66 59.9847 1309.51 59.994V59.252C1309.93 59.252 1310.27 59.2333 1310.51 59.196C1310.76 59.1493 1310.95 59.098 1311.08 59.042C1311.22 58.986 1311.33 58.9253 1311.39 58.86H1311.92V64.264C1311.92 64.432 1311.92 64.6047 1311.91 64.782C1311.9 64.95 1311.89 65.1227 1311.87 65.3C1312.02 65.2907 1312.17 65.286 1312.31 65.286C1312.47 65.2767 1312.62 65.2673 1312.75 65.258V66H1309.63V65.412ZM1311.11 57.572C1310.87 57.572 1310.66 57.4833 1310.49 57.306C1310.33 57.1193 1310.24 56.8953 1310.24 56.634C1310.24 56.3727 1310.33 56.1533 1310.51 55.976C1310.69 55.7893 1310.89 55.696 1311.11 55.696C1311.35 55.696 1311.55 55.7893 1311.71 55.976C1311.88 56.1533 1311.96 56.3727 1311.96 56.634C1311.96 56.8953 1311.88 57.1193 1311.71 57.306C1311.55 57.4833 1311.35 57.572 1311.11 57.572ZM1316.47 66.224C1316.03 66.224 1315.63 66.1633 1315.25 66.042C1314.88 65.93 1314.58 65.7947 1314.36 65.636L1314.4 66.098H1313.66L1313.59 63.69H1314.18C1314.19 64.0353 1314.3 64.348 1314.5 64.628C1314.69 64.908 1314.95 65.1273 1315.25 65.286C1315.57 65.4447 1315.91 65.524 1316.28 65.524C1316.49 65.524 1316.7 65.4913 1316.91 65.426C1317.11 65.3513 1317.28 65.244 1317.42 65.104C1317.56 64.9547 1317.63 64.7727 1317.63 64.558C1317.63 64.3247 1317.56 64.1333 1317.41 63.984C1317.27 63.8253 1317.07 63.6853 1316.82 63.564C1316.58 63.4427 1316.3 63.3213 1315.98 63.2C1315.7 63.088 1315.42 62.9713 1315.13 62.85C1314.85 62.7287 1314.59 62.584 1314.34 62.416C1314.1 62.248 1313.91 62.0427 1313.77 61.8C1313.63 61.548 1313.56 61.24 1313.56 60.876C1313.56 60.6613 1313.6 60.4327 1313.69 60.19C1313.77 59.938 1313.9 59.7093 1314.09 59.504C1314.28 59.2893 1314.53 59.1167 1314.85 58.986C1315.16 58.846 1315.56 58.776 1316.02 58.776C1316.28 58.776 1316.56 58.818 1316.86 58.902C1317.18 58.986 1317.47 59.1307 1317.75 59.336L1317.73 58.846H1318.47V61.31H1317.87C1317.84 60.9833 1317.75 60.68 1317.61 60.4C1317.47 60.12 1317.26 59.8913 1317 59.714C1316.74 59.5367 1316.42 59.448 1316.05 59.448C1315.69 59.448 1315.39 59.5413 1315.16 59.728C1314.93 59.9053 1314.82 60.1293 1314.82 60.4C1314.82 60.6707 1314.9 60.89 1315.07 61.058C1315.25 61.226 1315.48 61.3707 1315.76 61.492C1316.04 61.6133 1316.34 61.7347 1316.67 61.856C1317.06 62.0147 1317.43 62.1873 1317.77 62.374C1318.12 62.5607 1318.4 62.794 1318.61 63.074C1318.83 63.354 1318.94 63.7087 1318.94 64.138C1318.94 64.6047 1318.81 64.9967 1318.57 65.314C1318.34 65.622 1318.03 65.8507 1317.66 66C1317.29 66.1493 1316.89 66.224 1316.47 66.224ZM1322.46 66.224C1322.23 66.224 1321.99 66.1913 1321.75 66.126C1321.51 66.07 1321.3 65.9533 1321.1 65.776C1320.91 65.5893 1320.75 65.3233 1320.64 64.978C1320.53 64.6327 1320.47 64.1753 1320.47 63.606L1320.5 59.784H1319.46V59C1319.72 58.9907 1319.97 58.8973 1320.23 58.72C1320.49 58.5427 1320.72 58.3047 1320.92 58.006C1321.12 57.7073 1321.25 57.3853 1321.33 57.04H1321.98V59H1324.14V59.728L1321.98 59.756L1321.96 63.494C1321.96 63.8487 1321.98 64.1613 1322.04 64.432C1322.1 64.6933 1322.21 64.8987 1322.35 65.048C1322.5 65.188 1322.7 65.258 1322.95 65.258C1323.16 65.258 1323.38 65.1927 1323.61 65.062C1323.84 64.9313 1324.06 64.7167 1324.27 64.418L1324.74 64.838C1324.52 65.1647 1324.29 65.4213 1324.07 65.608C1323.85 65.7947 1323.63 65.93 1323.43 66.014C1323.22 66.1073 1323.03 66.1633 1322.87 66.182C1322.7 66.21 1322.56 66.224 1322.46 66.224Z" fill="white"/>
</g>
<defs>
<filter id="filter0_d_238_1083" x="-72" y="-76" width="1640" height="274" filterUnits="userSpaceOnUse" color-interpolation-filters="sRGB">
<feFlood flood-opacity="0" result="BackgroundImageFix"/>
<feColorMatrix in="SourceAlpha" type="matrix" values="0 0 0 0 0 0 0 0 0 0 0 0 0 0 0 0 0 0 127 0" result="hardAlpha"/>
<feOffset dy="4"/>
<feGaussianBlur stdDeviation="14"/>
<feComposite in2="hardAlpha" operator="out"/>
<feColorMatrix type="matrix" values="0 0 0 0 0 0 0 0 0 0 0 0 0 0 0 0 0 0 0.11 0"/>
<feBlend mode="normal" in2="BackgroundImageFix" result="effect1_dropShadow_238_1083"/>
<feBlend mode="normal" in="SourceGraphic" in2="effect1_dropShadow_238_1083" result="shape"/>
</filter>
<linearGradient id="paint0_linear_238_1083" x1="720" y1="0" x2="720" y2="74" gradientUnits="userSpaceOnUse">
<stop stop-color="white"/>
<stop offset="1" stop-color="white"/>
</linearGradient>
</defs>
</svg>
