<svg width="359" height="40" viewBox="0 0 359 40" fill="none" xmlns="http://www.w3.org/2000/svg">
<path d="M0.8 26V24.944C1.04533 24.9333 1.248 24.9013 1.408 24.848C1.57867 24.7947 1.70667 24.672 1.792 24.48C1.888 24.288 1.936 23.9787 1.936 23.552V17.424C1.936 17.136 1.94133 16.8587 1.952 16.592C1.97333 16.3253 1.98933 16.1227 2 15.984C1.82933 15.9947 1.616 16.0053 1.36 16.016C1.104 16.016 0.917333 16.0213 0.8 16.032V14.8H5.392V15.856C5.15733 15.8667 4.95467 15.8987 4.784 15.952C4.61333 16.0053 4.48 16.128 4.384 16.32C4.29867 16.5013 4.256 16.8107 4.256 17.248V23.376C4.256 23.664 4.25067 23.936 4.24 24.192C4.22933 24.448 4.21333 24.6453 4.192 24.784H6.336C6.96533 24.784 7.456 24.5653 7.808 24.128C8.17067 23.6907 8.352 23.0347 8.352 22.16H9.424L9.328 26H0.8ZM14.7603 26C14.7389 25.8507 14.7229 25.728 14.7123 25.632C14.7123 25.5253 14.7069 25.4027 14.6963 25.264C14.3336 25.6267 13.9496 25.8827 13.5443 26.032C13.1389 26.1813 12.7283 26.256 12.3123 26.256C11.6296 26.256 11.0963 26.0533 10.7122 25.648C10.3283 25.2427 10.1363 24.736 10.1363 24.128C10.1363 23.616 10.2643 23.1787 10.5203 22.816C10.7869 22.4533 11.1336 22.16 11.5603 21.936C11.9976 21.7013 12.4776 21.5253 13.0003 21.408C13.5336 21.28 14.0669 21.2053 14.6003 21.184V20.352C14.6003 20.0747 14.5629 19.824 14.4883 19.6C14.4243 19.376 14.3069 19.2 14.1363 19.072C13.9763 18.944 13.7469 18.8853 13.4483 18.896C13.2456 18.9067 13.0483 18.9493 12.8563 19.024C12.6643 19.0987 12.4989 19.2053 12.3603 19.344C12.4456 19.44 12.4989 19.5467 12.5203 19.664C12.5416 19.7707 12.5523 19.8667 12.5523 19.952C12.5523 20.1653 12.4669 20.3893 12.2963 20.624C12.1256 20.848 11.8536 20.9547 11.4803 20.944C11.1603 20.9333 10.9149 20.8213 10.7443 20.608C10.5736 20.3947 10.4883 20.144 10.4883 19.856C10.4883 19.4293 10.6376 19.0613 10.9363 18.752C11.2456 18.432 11.6563 18.1867 12.1683 18.016C12.6803 17.8347 13.2456 17.744 13.8643 17.744C14.8029 17.744 15.5283 17.9893 16.0403 18.48C16.5629 18.96 16.8243 19.7333 16.8243 20.8C16.8243 21.1627 16.8243 21.472 16.8243 21.728C16.8243 21.984 16.8189 22.24 16.8083 22.496C16.8083 22.752 16.8083 23.0613 16.8083 23.424C16.8083 23.5733 16.8029 23.7867 16.7923 24.064C16.7816 24.3307 16.7656 24.5867 16.7443 24.832C16.9256 24.8107 17.1176 24.8 17.3203 24.8C17.5229 24.7893 17.6776 24.784 17.7843 24.784V26H14.7603ZM14.5843 22.32C14.2856 22.352 14.0029 22.4053 13.7363 22.48C13.4696 22.5547 13.2349 22.656 13.0323 22.784C12.8403 22.912 12.6856 23.0667 12.5683 23.248C12.4616 23.4293 12.4083 23.632 12.4083 23.856C12.4189 24.1547 12.5149 24.368 12.6963 24.496C12.8776 24.624 13.0856 24.688 13.3203 24.688C13.5656 24.688 13.7949 24.6347 14.0083 24.528C14.2216 24.4213 14.4136 24.2827 14.5843 24.112C14.5843 24.0053 14.5843 23.904 14.5843 23.808C14.5843 23.7013 14.5843 23.5947 14.5843 23.488C14.5843 23.296 14.5843 23.104 14.5843 22.912C14.5843 22.7093 14.5843 22.512 14.5843 22.32ZM20.9474 26.048L19.0114 20.496C18.9154 20.2187 18.8407 20.0107 18.7874 19.872C18.7447 19.7333 18.7127 19.616 18.6914 19.52C18.67 19.424 18.6434 19.312 18.6114 19.184L17.9874 19.216V18H21.8274V19.024C21.4967 19.0347 21.3047 19.1627 21.2514 19.408C21.198 19.6533 21.214 19.9413 21.2994 20.272L21.8434 22.224C21.9074 22.4587 21.966 22.7093 22.0194 22.976C22.0834 23.232 22.1367 23.488 22.1794 23.744C22.2327 23.52 22.286 23.2747 22.3394 23.008C22.4034 22.7413 22.494 22.4107 22.6114 22.016L23.7794 18H25.5234L26.8034 22.416C26.8674 22.64 26.9314 22.8853 26.9954 23.152C27.07 23.408 27.134 23.6427 27.1874 23.856C27.23 23.6427 27.2887 23.408 27.3634 23.152C27.438 22.896 27.5074 22.6667 27.5714 22.464L28.1954 20.432C28.2807 20.144 28.3554 19.9093 28.4194 19.728C28.4834 19.536 28.5634 19.344 28.6594 19.152L27.7474 19.216V18H30.7874V19.024C30.574 19.024 30.3874 19.0933 30.2274 19.232C30.0674 19.3707 29.9234 19.5413 29.7954 19.744C29.678 19.936 29.582 20.128 29.5074 20.32C29.4327 20.5013 29.3794 20.6453 29.3474 20.752L27.5234 26.048H25.8274L24.7234 22.64C24.6914 22.5227 24.638 22.352 24.5634 22.128C24.4994 21.904 24.43 21.664 24.3554 21.408C24.2914 21.1413 24.2274 20.896 24.1634 20.672C24.11 20.9707 24.03 21.312 23.9234 21.696C23.8167 22.08 23.7154 22.432 23.6194 22.752C23.5234 23.072 23.454 23.2907 23.4114 23.408L22.5314 26.048H20.9474ZM33.1961 30.336C32.7908 30.336 32.4441 30.2133 32.1561 29.968C31.8788 29.7333 31.7401 29.4187 31.7401 29.024C31.7401 28.736 31.8308 28.48 32.0121 28.256C32.2041 28.0427 32.4495 27.9307 32.7481 27.92C32.9828 27.9093 33.1801 27.984 33.3401 28.144C33.5108 28.3147 33.5961 28.544 33.5961 28.832C33.5961 28.864 33.5961 28.896 33.5961 28.928C33.5961 28.96 33.5908 28.9973 33.5801 29.04C33.6015 29.04 33.6281 29.0347 33.6601 29.024C33.7561 28.992 33.8575 28.9013 33.9641 28.752C34.0815 28.6133 34.1935 28.4267 34.3001 28.192C34.4175 27.9467 34.5295 27.6693 34.6361 27.36C34.7535 27.0613 34.8548 26.7467 34.9401 26.416L32.4121 21.344C32.1135 20.7467 31.9161 20.2987 31.8201 20C31.7348 19.6907 31.6761 19.4187 31.6441 19.184L30.9081 19.216V18H34.8921V19.024C34.4975 19.0667 34.2788 19.216 34.2361 19.472C34.2041 19.728 34.2521 19.9947 34.3801 20.272L35.9481 23.856C36.0548 23.5787 36.1935 23.152 36.3641 22.576C36.5348 21.9893 36.7375 21.3547 36.9721 20.672C37.0148 20.5333 37.0681 20.3733 37.1321 20.192C37.2068 20 37.2868 19.8133 37.3721 19.632C37.4575 19.44 37.5481 19.2853 37.6441 19.168L36.7321 19.216V18H39.5801V19.024C39.2495 19.0987 38.9721 19.3013 38.7481 19.632C38.5348 19.9627 38.3428 20.368 38.1721 20.848L36.1721 26.56C35.8735 27.424 35.5908 28.1333 35.3241 28.688C35.0575 29.2533 34.7588 29.6693 34.4281 29.936C34.0975 30.2027 33.6868 30.336 33.1961 30.336ZM43.948 26.256C43.1693 26.256 42.4813 26.0853 41.884 25.744C41.2867 25.392 40.8227 24.9013 40.492 24.272C40.1613 23.632 39.996 22.88 39.996 22.016C39.996 21.2693 40.1613 20.5707 40.492 19.92C40.8227 19.2693 41.2867 18.7467 41.884 18.352C42.492 17.9467 43.196 17.744 43.996 17.744C44.444 17.744 44.8813 17.808 45.308 17.936C45.7347 18.0533 46.1187 18.2613 46.46 18.56C46.812 18.8587 47.0893 19.264 47.292 19.776C47.5053 20.288 47.6067 20.928 47.596 21.696L42.348 21.792C42.348 22.368 42.4173 22.8853 42.556 23.344C42.7053 23.8027 42.9453 24.1653 43.276 24.432C43.6067 24.6987 44.0493 24.832 44.604 24.832C44.8173 24.832 45.0573 24.7947 45.324 24.72C45.6013 24.6453 45.8787 24.5227 46.156 24.352C46.444 24.1707 46.7107 23.9307 46.956 23.632L47.676 24.304C47.292 24.848 46.8813 25.264 46.444 25.552C46.0067 25.8293 45.5693 26.016 45.132 26.112C44.7053 26.208 44.3107 26.256 43.948 26.256ZM42.444 20.672H45.388C45.3773 20.224 45.3133 19.872 45.196 19.616C45.0893 19.3493 44.94 19.1573 44.748 19.04C44.556 18.9227 44.332 18.864 44.076 18.864C43.6067 18.864 43.2387 19.0347 42.972 19.376C42.7053 19.7067 42.5293 20.1387 42.444 20.672ZM48.7654 24.96C49.064 24.96 49.2774 24.9013 49.4054 24.784C49.5334 24.6667 49.6134 24.5013 49.6454 24.288C49.688 24.064 49.7094 23.8133 49.7094 23.536V20.848C49.7094 20.656 49.7147 20.4427 49.7254 20.208C49.736 19.9627 49.752 19.7227 49.7734 19.488C49.6027 19.4987 49.4 19.5093 49.1654 19.52C48.9414 19.52 48.7707 19.5253 48.6534 19.536V18.32H49.2934C49.7094 18.32 50.088 18.2667 50.4294 18.16C50.7814 18.0533 51.0107 17.9467 51.1174 17.84H51.9014C51.9227 17.9467 51.9387 18.1493 51.9494 18.448C51.96 18.736 51.9654 18.992 51.9654 19.216C52.2534 18.864 52.5254 18.5813 52.7814 18.368C53.0374 18.1547 53.288 18 53.5334 17.904C53.7894 17.7973 54.0454 17.744 54.3014 17.744C54.6747 17.744 55 17.8507 55.2774 18.064C55.5547 18.2667 55.6934 18.6027 55.6934 19.072C55.6934 19.232 55.656 19.4027 55.5814 19.584C55.5067 19.7547 55.3894 19.8987 55.2294 20.016C55.0694 20.1333 54.8507 20.192 54.5734 20.192C54.36 20.192 54.1414 20.128 53.9174 20C53.6934 19.872 53.5654 19.6267 53.5334 19.264C53.32 19.264 53.1067 19.3547 52.8934 19.536C52.68 19.7067 52.488 19.9147 52.3174 20.16C52.1574 20.3947 52.0454 20.6133 51.9814 20.816V23.424C51.9814 23.5733 51.976 23.7867 51.9654 24.064C51.9547 24.3307 51.9387 24.5867 51.9174 24.832C52.088 24.8107 52.2747 24.8 52.4774 24.8C52.6907 24.7893 52.8507 24.784 52.9574 24.784V26H48.7654V24.96ZM56.0031 26V24.944C56.2485 24.9333 56.4511 24.9013 56.6111 24.848C56.7818 24.7947 56.9098 24.672 56.9951 24.48C57.0911 24.288 57.1391 23.9787 57.1391 23.552V17.424C57.1391 17.136 57.1445 16.8587 57.1551 16.592C57.1765 16.3253 57.1925 16.1227 57.2031 15.984C57.0325 15.9947 56.8191 16.0053 56.5631 16.016C56.3071 16.016 56.1205 16.0213 56.0031 16.032V14.8H64.0031L64.0991 17.904H63.0431C63.0431 17.3173 62.9418 16.8747 62.7391 16.576C62.5365 16.2773 62.2858 16.08 61.9871 15.984C61.6885 15.8773 61.3951 15.8293 61.1071 15.84L60.5311 15.856C60.3071 15.856 60.1151 15.888 59.9551 15.952C59.7951 16.0053 59.6725 16.1333 59.5871 16.336C59.5018 16.528 59.4591 16.832 59.4591 17.248V20.032H61.1071L61.0431 18.656H62.2751V22.544H61.2191C61.2191 22.096 61.1498 21.7707 61.0111 21.568C60.8725 21.3653 60.6805 21.2427 60.4351 21.2C60.2005 21.1467 59.9391 21.1253 59.6511 21.136H59.4591V23.376C59.4591 23.664 59.4538 23.9413 59.4431 24.208C59.4325 24.4747 59.4165 24.6773 59.3951 24.816C59.5125 24.8053 59.6671 24.8 59.8591 24.8C60.0511 24.7893 60.2378 24.784 60.4191 24.784C60.6111 24.7733 60.7445 24.768 60.8191 24.768V26H56.0031ZM68.2479 26.256C67.4799 26.256 66.7865 26.0907 66.1679 25.76C65.5492 25.4293 65.0585 24.96 64.6959 24.352C64.3439 23.7333 64.1679 23.008 64.1679 22.176C64.1679 21.2907 64.3492 20.5173 64.7119 19.856C65.0852 19.184 65.5759 18.6667 66.1839 18.304C66.8025 17.9307 67.4745 17.744 68.1999 17.744C68.9679 17.744 69.6559 17.9093 70.2639 18.24C70.8719 18.5707 71.3519 19.0453 71.7039 19.664C72.0559 20.272 72.2319 21.0027 72.2319 21.856C72.2319 22.752 72.0612 23.5307 71.7199 24.192C71.3785 24.8533 70.9092 25.3653 70.3119 25.728C69.7145 26.08 69.0265 26.256 68.2479 26.256ZM68.3119 25.12C68.7385 25.1093 69.0585 24.96 69.2719 24.672C69.4959 24.384 69.6505 24.0213 69.7359 23.584C69.8212 23.1467 69.8639 22.704 69.8639 22.256C69.8639 21.8613 69.8319 21.4613 69.7679 21.056C69.7145 20.6507 69.6239 20.2827 69.4959 19.952C69.3679 19.6213 69.1919 19.3547 68.9679 19.152C68.7545 18.9493 68.4879 18.8533 68.1679 18.864C67.7519 18.8747 67.4212 19.024 67.1759 19.312C66.9412 19.6 66.7705 19.9627 66.6639 20.4C66.5679 20.8267 66.5199 21.2747 66.5199 21.744C66.5199 22.288 66.5785 22.8213 66.6959 23.344C66.8132 23.8667 66.9999 24.2987 67.2559 24.64C67.5225 24.9707 67.8745 25.1307 68.3119 25.12ZM73.3904 24.96C73.689 24.96 73.9024 24.9013 74.0304 24.784C74.1584 24.6667 74.2384 24.5013 74.2704 24.288C74.313 24.064 74.3344 23.8133 74.3344 23.536V20.848C74.3344 20.656 74.3397 20.4427 74.3504 20.208C74.361 19.9627 74.377 19.7227 74.3984 19.488C74.2277 19.4987 74.025 19.5093 73.7904 19.52C73.5664 19.52 73.3957 19.5253 73.2784 19.536V18.32H73.9184C74.3344 18.32 74.713 18.2667 75.0544 18.16C75.4064 18.0533 75.6357 17.9467 75.7424 17.84H76.5264C76.5477 17.9467 76.5637 18.1493 76.5744 18.448C76.585 18.736 76.5904 18.992 76.5904 19.216C76.8784 18.864 77.1504 18.5813 77.4064 18.368C77.6624 18.1547 77.913 18 78.1584 17.904C78.4144 17.7973 78.6704 17.744 78.9264 17.744C79.2997 17.744 79.625 17.8507 79.9024 18.064C80.1797 18.2667 80.3184 18.6027 80.3184 19.072C80.3184 19.232 80.281 19.4027 80.2064 19.584C80.1317 19.7547 80.0144 19.8987 79.8544 20.016C79.6944 20.1333 79.4757 20.192 79.1984 20.192C78.985 20.192 78.7664 20.128 78.5424 20C78.3184 19.872 78.1904 19.6267 78.1584 19.264C77.945 19.264 77.7317 19.3547 77.5184 19.536C77.305 19.7067 77.113 19.9147 76.9424 20.16C76.7824 20.3947 76.6704 20.6133 76.6064 20.816V23.424C76.6064 23.5733 76.601 23.7867 76.5904 24.064C76.5797 24.3307 76.5637 24.5867 76.5424 24.832C76.713 24.8107 76.8997 24.8 77.1024 24.8C77.3157 24.7893 77.4757 24.784 77.5824 24.784V26H73.3904V24.96ZM84.9013 26.096L81.2213 17.504C81.1146 17.2373 81.0133 16.96 80.9173 16.672C80.8213 16.384 80.7733 16.1547 80.7733 15.984C80.6026 15.9947 80.4426 16.0053 80.2933 16.016C80.1546 16.016 80.0266 16.0213 79.9093 16.032V14.8H84.6293V15.856C84.2346 15.8453 83.9306 15.9307 83.7173 16.112C83.5146 16.2933 83.5093 16.6187 83.7013 17.088C83.9466 17.6853 84.1919 18.288 84.4373 18.896C84.6826 19.504 84.9279 20.1067 85.1733 20.704C85.3546 21.152 85.5093 21.5467 85.6373 21.888C85.7653 22.2187 85.9146 22.5867 86.0853 22.992H86.1013C86.2186 22.672 86.3413 22.3147 86.4693 21.92C86.6079 21.5253 86.7413 21.1467 86.8693 20.784C87.0079 20.4107 87.1413 20.0373 87.2693 19.664C87.4079 19.2907 87.5466 18.9227 87.6853 18.56C87.8239 18.1867 87.9573 17.8133 88.0853 17.44C88.1386 17.2587 88.2239 17.0133 88.3413 16.704C88.4693 16.3947 88.6026 16.1547 88.7413 15.984C88.5706 15.9947 88.3519 16.0053 88.0853 16.016C87.8186 16.016 87.6266 16.0213 87.5093 16.032V14.8H91.1093V15.856C90.7466 15.8667 90.4319 16 90.1653 16.256C89.8986 16.512 89.6479 16.9493 89.4133 17.568C89.2319 18.0373 89.0506 18.512 88.8693 18.992C88.6986 19.4613 88.5226 19.936 88.3413 20.416C88.1706 20.8853 87.9946 21.36 87.8133 21.84C87.6319 22.3093 87.4506 22.784 87.2693 23.264C87.0986 23.7333 86.9226 24.2027 86.7413 24.672C86.5706 25.1413 86.3946 25.616 86.2133 26.096H84.9013ZM91.3591 24.96C91.6578 24.96 91.8711 24.9013 91.9991 24.784C92.1271 24.6667 92.2071 24.5013 92.2391 24.288C92.2818 24.064 92.3031 23.8133 92.3031 23.536V20.88C92.3031 20.688 92.3085 20.4693 92.3191 20.224C92.3298 19.968 92.3458 19.7227 92.3671 19.488C92.1965 19.4987 91.9938 19.5093 91.7591 19.52C91.5351 19.52 91.3645 19.5253 91.2471 19.536V18.32C91.7378 18.32 92.1538 18.2933 92.4951 18.24C92.8365 18.1867 93.1031 18.1227 93.2951 18.048C93.4978 17.9733 93.6365 17.904 93.7111 17.84H94.5751V23.424C94.5751 23.5733 94.5698 23.7867 94.5591 24.064C94.5485 24.3307 94.5325 24.5867 94.5111 24.832C94.6818 24.8107 94.8685 24.8 95.0711 24.8C95.2845 24.7893 95.4445 24.784 95.5511 24.784V26H91.3591V24.96ZM93.3591 16.576C92.9965 16.576 92.6978 16.448 92.4631 16.192C92.2285 15.936 92.1111 15.6267 92.1111 15.264C92.1111 14.9013 92.2338 14.592 92.4791 14.336C92.7245 14.08 93.0125 13.952 93.3431 13.952C93.6845 13.952 93.9671 14.08 94.1911 14.336C94.4258 14.592 94.5431 14.9013 94.5431 15.264C94.5431 15.6267 94.4365 15.936 94.2231 16.192C94.0098 16.448 93.7218 16.576 93.3591 16.576ZM100.274 26.256C99.8148 26.256 99.3668 26.1973 98.9295 26.08C98.4922 25.9627 98.1508 25.8133 97.9055 25.632L97.9375 26.112H96.7215L96.6575 23.36H97.6975C97.7295 23.68 97.8575 23.9733 98.0815 24.24C98.3055 24.5067 98.5988 24.72 98.9615 24.88C99.3242 25.0293 99.7295 25.104 100.178 25.104C100.359 25.104 100.53 25.0773 100.69 25.024C100.86 24.9707 100.999 24.8853 101.106 24.768C101.223 24.64 101.282 24.4853 101.282 24.304C101.282 24.1013 101.207 23.936 101.058 23.808C100.919 23.68 100.711 23.5573 100.434 23.44C100.167 23.3227 99.8308 23.1893 99.4255 23.04C99.0948 22.912 98.7588 22.7787 98.4175 22.64C98.0868 22.5013 97.7775 22.336 97.4895 22.144C97.2122 21.9413 96.9882 21.696 96.8175 21.408C96.6468 21.1093 96.5615 20.7467 96.5615 20.32C96.5615 20.0107 96.6202 19.7067 96.7375 19.408C96.8548 19.0987 97.0362 18.8213 97.2815 18.576C97.5268 18.32 97.8362 18.1173 98.2095 17.968C98.5935 17.8187 99.0468 17.744 99.5695 17.744C99.8575 17.744 100.183 17.792 100.546 17.888C100.919 17.9733 101.234 18.1067 101.49 18.288V17.824H102.706V20.656H101.666C101.602 20.2827 101.468 19.9627 101.266 19.696C101.074 19.4293 100.823 19.2267 100.514 19.088C100.204 18.9387 99.8575 18.864 99.4735 18.864C99.2068 18.864 98.9615 18.928 98.7375 19.056C98.5242 19.184 98.4175 19.4027 98.4175 19.712C98.4175 19.9573 98.5028 20.1547 98.6735 20.304C98.8442 20.4427 99.0788 20.56 99.3775 20.656C99.6762 20.752 100.007 20.864 100.37 20.992C100.914 21.1733 101.394 21.3867 101.81 21.632C102.236 21.8773 102.572 22.176 102.818 22.528C103.063 22.8693 103.186 23.2907 103.186 23.792C103.186 24.3467 103.047 24.8053 102.77 25.168C102.492 25.5307 102.13 25.8027 101.682 25.984C101.244 26.1653 100.775 26.256 100.274 26.256ZM108.807 26C108.786 25.8507 108.77 25.728 108.759 25.632C108.759 25.5253 108.754 25.4027 108.743 25.264C108.38 25.6267 107.996 25.8827 107.591 26.032C107.186 26.1813 106.775 26.256 106.359 26.256C105.676 26.256 105.143 26.0533 104.759 25.648C104.375 25.2427 104.183 24.736 104.183 24.128C104.183 23.616 104.311 23.1787 104.567 22.816C104.834 22.4533 105.18 22.16 105.607 21.936C106.044 21.7013 106.524 21.5253 107.047 21.408C107.58 21.28 108.114 21.2053 108.647 21.184V20.352C108.647 20.0747 108.61 19.824 108.535 19.6C108.471 19.376 108.354 19.2 108.183 19.072C108.023 18.944 107.794 18.8853 107.495 18.896C107.292 18.9067 107.095 18.9493 106.903 19.024C106.711 19.0987 106.546 19.2053 106.407 19.344C106.492 19.44 106.546 19.5467 106.567 19.664C106.588 19.7707 106.599 19.8667 106.599 19.952C106.599 20.1653 106.514 20.3893 106.343 20.624C106.172 20.848 105.9 20.9547 105.527 20.944C105.207 20.9333 104.962 20.8213 104.791 20.608C104.62 20.3947 104.535 20.144 104.535 19.856C104.535 19.4293 104.684 19.0613 104.983 18.752C105.292 18.432 105.703 18.1867 106.215 18.016C106.727 17.8347 107.292 17.744 107.911 17.744C108.85 17.744 109.575 17.9893 110.087 18.48C110.61 18.96 110.871 19.7333 110.871 20.8C110.871 21.1627 110.871 21.472 110.871 21.728C110.871 21.984 110.866 22.24 110.855 22.496C110.855 22.752 110.855 23.0613 110.855 23.424C110.855 23.5733 110.85 23.7867 110.839 24.064C110.828 24.3307 110.812 24.5867 110.791 24.832C110.972 24.8107 111.164 24.8 111.367 24.8C111.57 24.7893 111.724 24.784 111.831 24.784V26H108.807ZM108.631 22.32C108.332 22.352 108.05 22.4053 107.783 22.48C107.516 22.5547 107.282 22.656 107.079 22.784C106.887 22.912 106.732 23.0667 106.615 23.248C106.508 23.4293 106.455 23.632 106.455 23.856C106.466 24.1547 106.562 24.368 106.743 24.496C106.924 24.624 107.132 24.688 107.367 24.688C107.612 24.688 107.842 24.6347 108.055 24.528C108.268 24.4213 108.46 24.2827 108.631 24.112C108.631 24.0053 108.631 23.904 108.631 23.808C108.631 23.7013 108.631 23.5947 108.631 23.488C108.631 23.296 108.631 23.104 108.631 22.912C108.631 22.7093 108.631 22.512 108.631 22.32Z" fill="#5F2900"/>
<rect x="319.5" y="0.5" width="39" height="39" rx="1.5" stroke="#FFEFE4"/>
<path d="M331 13H347" stroke="#FFEFE4" stroke-width="1.5" stroke-linecap="round" stroke-linejoin="round"/>
<path d="M331 20H347" stroke="#FFEFE4" stroke-width="1.5" stroke-linecap="round" stroke-linejoin="round"/>
<path d="M331 27H347" stroke="#FFEFE4" stroke-width="1.5" stroke-linecap="round" stroke-linejoin="round"/>
</svg>
