<svg width="180" height="291" viewBox="0 0 180 291" fill="none" xmlns="http://www.w3.org/2000/svg">
<path d="M132.868 65.832V77H130.628V72.248H125.844V77H123.604V65.832H125.844V70.424H130.628V65.832H132.868ZM139.009 77.144C138.155 77.144 137.387 76.9573 136.705 76.584C136.022 76.2 135.483 75.6613 135.089 74.968C134.705 74.2747 134.513 73.4747 134.513 72.568C134.513 71.6613 134.71 70.8613 135.105 70.168C135.51 69.4747 136.059 68.9413 136.753 68.568C137.446 68.184 138.219 67.992 139.073 67.992C139.926 67.992 140.699 68.184 141.393 68.568C142.086 68.9413 142.63 69.4747 143.025 70.168C143.43 70.8613 143.633 71.6613 143.633 72.568C143.633 73.4747 143.425 74.2747 143.009 74.968C142.603 75.6613 142.049 76.2 141.345 76.584C140.651 76.9573 139.873 77.144 139.009 77.144ZM139.009 75.192C139.414 75.192 139.793 75.096 140.145 74.904C140.507 74.7013 140.795 74.4027 141.009 74.008C141.222 73.6133 141.329 73.1333 141.329 72.568C141.329 71.7253 141.105 71.08 140.657 70.632C140.219 70.1733 139.681 69.944 139.041 69.944C138.401 69.944 137.862 70.1733 137.425 70.632C136.998 71.08 136.785 71.7253 136.785 72.568C136.785 73.4107 136.993 74.0613 137.409 74.52C137.835 74.968 138.369 75.192 139.009 75.192ZM156.284 68.008C157.372 68.008 158.247 68.344 158.908 69.016C159.58 69.6773 159.916 70.6053 159.916 71.8V77H157.676V72.104C157.676 71.4107 157.5 70.8827 157.148 70.52C156.796 70.1467 156.316 69.96 155.708 69.96C155.1 69.96 154.615 70.1467 154.252 70.52C153.9 70.8827 153.724 71.4107 153.724 72.104V77H151.484V72.104C151.484 71.4107 151.308 70.8827 150.956 70.52C150.604 70.1467 150.124 69.96 149.516 69.96C148.897 69.96 148.407 70.1467 148.044 70.52C147.692 70.8827 147.516 71.4107 147.516 72.104V77H145.276V68.136H147.516V69.208C147.804 68.8347 148.172 68.5413 148.62 68.328C149.079 68.1147 149.58 68.008 150.124 68.008C150.817 68.008 151.436 68.1573 151.98 68.456C152.524 68.744 152.945 69.16 153.244 69.704C153.532 69.192 153.948 68.7813 154.492 68.472C155.047 68.1627 155.644 68.008 156.284 68.008ZM170.282 72.376C170.282 72.696 170.26 72.984 170.218 73.24H163.738C163.791 73.88 164.015 74.3813 164.41 74.744C164.804 75.1067 165.29 75.288 165.866 75.288C166.698 75.288 167.29 74.9307 167.642 74.216H170.058C169.802 75.0693 169.311 75.7733 168.586 76.328C167.86 76.872 166.97 77.144 165.914 77.144C165.06 77.144 164.292 76.9573 163.61 76.584C162.938 76.2 162.41 75.6613 162.026 74.968C161.652 74.2747 161.465 73.4747 161.465 72.568C161.465 71.6507 161.652 70.8453 162.026 70.152C162.399 69.4587 162.922 68.9253 163.594 68.552C164.266 68.1787 165.039 67.992 165.914 67.992C166.756 67.992 167.508 68.1733 168.17 68.536C168.842 68.8987 169.359 69.416 169.722 70.088C170.095 70.7493 170.282 71.512 170.282 72.376ZM167.962 71.736C167.951 71.16 167.743 70.7013 167.338 70.36C166.932 70.008 166.436 69.832 165.85 69.832C165.295 69.832 164.826 70.0027 164.442 70.344C164.068 70.6747 163.839 71.1387 163.754 71.736H167.962Z" fill="#625347"/>
<path d="M108.324 132.52H103.46L102.564 135H101.028L105.06 123.912H106.74L110.756 135H109.22L108.324 132.52ZM107.908 131.336L105.892 125.704L103.876 131.336H107.908ZM113.969 127.864C114.268 127.341 114.705 126.915 115.281 126.584C115.857 126.253 116.513 126.088 117.249 126.088C118.039 126.088 118.748 126.275 119.377 126.648C120.007 127.021 120.503 127.549 120.865 128.232C121.228 128.904 121.409 129.688 121.409 130.584C121.409 131.469 121.228 132.259 120.865 132.952C120.503 133.645 120.001 134.184 119.361 134.568C118.732 134.952 118.028 135.144 117.249 135.144C116.492 135.144 115.825 134.979 115.249 134.648C114.684 134.317 114.257 133.896 113.969 133.384V135H112.513V123.16H113.969V127.864ZM119.921 130.584C119.921 129.923 119.788 129.347 119.521 128.856C119.255 128.365 118.892 127.992 118.433 127.736C117.985 127.48 117.489 127.352 116.945 127.352C116.412 127.352 115.916 127.485 115.457 127.752C115.009 128.008 114.647 128.387 114.369 128.888C114.103 129.379 113.969 129.949 113.969 130.6C113.969 131.261 114.103 131.843 114.369 132.344C114.647 132.835 115.009 133.213 115.457 133.48C115.916 133.736 116.412 133.864 116.945 133.864C117.489 133.864 117.985 133.736 118.433 133.48C118.892 133.213 119.255 132.835 119.521 132.344C119.788 131.843 119.921 131.256 119.921 130.584ZM127.15 135.144C126.328 135.144 125.582 134.957 124.91 134.584C124.248 134.211 123.726 133.683 123.342 133C122.968 132.307 122.782 131.507 122.782 130.6C122.782 129.704 122.974 128.915 123.358 128.232C123.752 127.539 124.286 127.011 124.958 126.648C125.63 126.275 126.382 126.088 127.214 126.088C128.046 126.088 128.798 126.275 129.47 126.648C130.142 127.011 130.67 127.533 131.054 128.216C131.448 128.899 131.646 129.693 131.646 130.6C131.646 131.507 131.443 132.307 131.038 133C130.643 133.683 130.104 134.211 129.422 134.584C128.739 134.957 127.982 135.144 127.15 135.144ZM127.15 133.864C127.672 133.864 128.163 133.741 128.622 133.496C129.08 133.251 129.448 132.883 129.726 132.392C130.014 131.901 130.158 131.304 130.158 130.6C130.158 129.896 130.019 129.299 129.742 128.808C129.464 128.317 129.102 127.955 128.654 127.72C128.206 127.475 127.72 127.352 127.198 127.352C126.664 127.352 126.174 127.475 125.726 127.72C125.288 127.955 124.936 128.317 124.67 128.808C124.403 129.299 124.27 129.896 124.27 130.6C124.27 131.315 124.398 131.917 124.654 132.408C124.92 132.899 125.272 133.267 125.71 133.512C126.147 133.747 126.627 133.864 127.15 133.864ZM141.336 126.232V135H139.88V133.704C139.603 134.152 139.213 134.504 138.712 134.76C138.221 135.005 137.677 135.128 137.08 135.128C136.397 135.128 135.784 134.989 135.24 134.712C134.696 134.424 134.264 133.997 133.944 133.432C133.635 132.867 133.48 132.179 133.48 131.368V126.232H134.92V131.176C134.92 132.04 135.139 132.707 135.576 133.176C136.013 133.635 136.611 133.864 137.368 133.864C138.147 133.864 138.76 133.624 139.208 133.144C139.656 132.664 139.88 131.965 139.88 131.048V126.232H141.336ZM145.571 127.432V132.6C145.571 133.027 145.661 133.331 145.843 133.512C146.024 133.683 146.339 133.768 146.786 133.768H147.859V135H146.547C145.736 135 145.128 134.813 144.723 134.44C144.317 134.067 144.115 133.453 144.115 132.6V127.432H142.979V126.232H144.115V124.024H145.571V126.232H147.859V127.432H145.571ZM161.664 126.232V135H160.208V133.704C159.931 134.152 159.542 134.504 159.04 134.76C158.55 135.005 158.006 135.128 157.408 135.128C156.726 135.128 156.112 134.989 155.568 134.712C155.024 134.424 154.592 133.997 154.272 133.432C153.963 132.867 153.808 132.179 153.808 131.368V126.232H155.248V131.176C155.248 132.04 155.467 132.707 155.904 133.176C156.342 133.635 156.939 133.864 157.696 133.864C158.475 133.864 159.088 133.624 159.536 133.144C159.984 132.664 160.208 131.965 160.208 131.048V126.232H161.664ZM167.227 135.144C166.555 135.144 165.952 135.032 165.419 134.808C164.885 134.573 164.464 134.253 164.155 133.848C163.845 133.432 163.675 132.957 163.643 132.424H165.147C165.189 132.861 165.392 133.219 165.755 133.496C166.128 133.773 166.613 133.912 167.211 133.912C167.765 133.912 168.203 133.789 168.523 133.544C168.843 133.299 169.003 132.989 169.003 132.616C169.003 132.232 168.832 131.949 168.491 131.768C168.149 131.576 167.621 131.389 166.907 131.208C166.256 131.037 165.723 130.867 165.307 130.696C164.901 130.515 164.549 130.253 164.251 129.912C163.963 129.56 163.819 129.101 163.819 128.536C163.819 128.088 163.952 127.677 164.219 127.304C164.485 126.931 164.864 126.637 165.355 126.424C165.845 126.2 166.405 126.088 167.035 126.088C168.005 126.088 168.789 126.333 169.387 126.824C169.984 127.315 170.304 127.987 170.347 128.84H168.891C168.859 128.381 168.672 128.013 168.331 127.736C168 127.459 167.552 127.32 166.987 127.32C166.464 127.32 166.048 127.432 165.739 127.656C165.429 127.88 165.275 128.173 165.275 128.536C165.275 128.824 165.365 129.064 165.547 129.256C165.739 129.437 165.973 129.587 166.251 129.704C166.539 129.811 166.933 129.933 167.435 130.072C168.064 130.243 168.576 130.413 168.971 130.584C169.365 130.744 169.701 130.989 169.979 131.32C170.267 131.651 170.416 132.083 170.427 132.616C170.427 133.096 170.293 133.528 170.027 133.912C169.76 134.296 169.381 134.6 168.891 134.824C168.411 135.037 167.856 135.144 167.227 135.144Z" fill="#625347"/>
<path d="M77.324 175.348V186.5H75.868V181.444H70.188V186.5H68.732V175.348H70.188V180.244H75.868V175.348H77.324ZM83.6341 186.644C82.8128 186.644 82.0661 186.457 81.3941 186.084C80.7328 185.711 80.2101 185.183 79.8261 184.5C79.4528 183.807 79.2661 183.007 79.2661 182.1C79.2661 181.204 79.4581 180.415 79.8421 179.732C80.2368 179.039 80.7701 178.511 81.4421 178.148C82.1141 177.775 82.8661 177.588 83.6981 177.588C84.5301 177.588 85.2821 177.775 85.9541 178.148C86.6261 178.511 87.1541 179.033 87.5381 179.716C87.9328 180.399 88.1301 181.193 88.1301 182.1C88.1301 183.007 87.9275 183.807 87.5221 184.5C87.1275 185.183 86.5888 185.711 85.9061 186.084C85.2235 186.457 84.4661 186.644 83.6341 186.644ZM83.6341 185.364C84.1568 185.364 84.6475 185.241 85.1061 184.996C85.5648 184.751 85.9328 184.383 86.2101 183.892C86.4981 183.401 86.6421 182.804 86.6421 182.1C86.6421 181.396 86.5035 180.799 86.2261 180.308C85.9488 179.817 85.5861 179.455 85.1381 179.22C84.6901 178.975 84.2048 178.852 83.6821 178.852C83.1488 178.852 82.6581 178.975 82.2101 179.22C81.7728 179.455 81.4208 179.817 81.1541 180.308C80.8875 180.799 80.7541 181.396 80.7541 182.1C80.7541 182.815 80.8821 183.417 81.1381 183.908C81.4048 184.399 81.7568 184.767 82.1941 185.012C82.6315 185.247 83.1115 185.364 83.6341 185.364ZM101.725 177.732L98.9885 186.5H97.4845L95.3725 179.54L93.2605 186.5H91.7565L89.0045 177.732H90.4925L92.5085 185.092L94.6845 177.732H96.1725L98.3005 185.108L100.285 177.732H101.725ZM119.115 177.732L116.379 186.5H114.875L112.763 179.54L110.651 186.5H109.147L106.395 177.732H107.883L109.899 185.092L112.075 177.732H113.563L115.691 185.108L117.675 177.732H119.115ZM128.56 181.78C128.56 182.057 128.544 182.351 128.512 182.66H121.504C121.557 183.524 121.851 184.201 122.384 184.692C122.928 185.172 123.584 185.412 124.352 185.412C124.981 185.412 125.504 185.268 125.92 184.98C126.347 184.681 126.645 184.287 126.816 183.796H128.384C128.149 184.639 127.68 185.327 126.976 185.86C126.272 186.383 125.397 186.644 124.352 186.644C123.52 186.644 122.773 186.457 122.112 186.084C121.461 185.711 120.949 185.183 120.576 184.5C120.203 183.807 120.016 183.007 120.016 182.1C120.016 181.193 120.197 180.399 120.56 179.716C120.923 179.033 121.429 178.511 122.08 178.148C122.741 177.775 123.499 177.588 124.352 177.588C125.184 177.588 125.92 177.769 126.56 178.132C127.2 178.495 127.691 178.996 128.032 179.636C128.384 180.265 128.56 180.98 128.56 181.78ZM127.056 181.476C127.056 180.921 126.933 180.447 126.688 180.052C126.443 179.647 126.107 179.343 125.68 179.14C125.264 178.927 124.8 178.82 124.288 178.82C123.552 178.82 122.923 179.055 122.4 179.524C121.888 179.993 121.595 180.644 121.52 181.476H127.056ZM146.428 177.732L143.692 186.5H142.188L140.076 179.54L137.964 186.5H136.46L133.708 177.732H135.196L137.212 185.092L139.388 177.732H140.876L143.004 185.108L144.988 177.732H146.428ZM151.697 186.644C150.875 186.644 150.129 186.457 149.457 186.084C148.795 185.711 148.273 185.183 147.889 184.5C147.515 183.807 147.329 183.007 147.329 182.1C147.329 181.204 147.521 180.415 147.905 179.732C148.299 179.039 148.833 178.511 149.505 178.148C150.177 177.775 150.929 177.588 151.761 177.588C152.593 177.588 153.345 177.775 154.017 178.148C154.689 178.511 155.217 179.033 155.601 179.716C155.995 180.399 156.193 181.193 156.193 182.1C156.193 183.007 155.99 183.807 155.585 184.5C155.19 185.183 154.651 185.711 153.969 186.084C153.286 186.457 152.529 186.644 151.697 186.644ZM151.697 185.364C152.219 185.364 152.71 185.241 153.169 184.996C153.627 184.751 153.995 184.383 154.273 183.892C154.561 183.401 154.705 182.804 154.705 182.1C154.705 181.396 154.566 180.799 154.289 180.308C154.011 179.817 153.649 179.455 153.201 179.22C152.753 178.975 152.267 178.852 151.745 178.852C151.211 178.852 150.721 178.975 150.273 179.22C149.835 179.455 149.483 179.817 149.217 180.308C148.95 180.799 148.817 181.396 148.817 182.1C148.817 182.815 148.945 183.417 149.201 183.908C149.467 184.399 149.819 184.767 150.257 185.012C150.694 185.247 151.174 185.364 151.697 185.364ZM159.563 179.156C159.819 178.655 160.182 178.265 160.651 177.988C161.131 177.711 161.712 177.572 162.395 177.572V179.076H162.011C160.379 179.076 159.563 179.961 159.563 181.732V186.5H158.107V177.732H159.563V179.156ZM168.972 186.5L165.532 182.628V186.5H164.076V174.66H165.532V181.62L168.908 177.732H170.94L166.812 182.1L170.956 186.5H168.972Z" fill="#625347"/>
<path d="M118.268 231.612C117.532 231.612 116.871 231.484 116.284 231.228C115.708 230.961 115.255 230.599 114.924 230.14C114.593 229.671 114.423 229.132 114.412 228.524H115.964C116.017 229.047 116.231 229.489 116.604 229.852C116.988 230.204 117.543 230.38 118.268 230.38C118.961 230.38 119.505 230.209 119.9 229.868C120.305 229.516 120.508 229.068 120.508 228.524C120.508 228.097 120.391 227.751 120.156 227.484C119.921 227.217 119.628 227.015 119.276 226.876C118.924 226.737 118.449 226.588 117.852 226.428C117.116 226.236 116.524 226.044 116.076 225.852C115.639 225.66 115.26 225.361 114.94 224.956C114.631 224.54 114.476 223.985 114.476 223.292C114.476 222.684 114.631 222.145 114.94 221.676C115.249 221.207 115.681 220.844 116.236 220.588C116.801 220.332 117.447 220.204 118.172 220.204C119.217 220.204 120.071 220.465 120.732 220.988C121.404 221.511 121.783 222.204 121.868 223.068H120.268C120.215 222.641 119.991 222.268 119.596 221.948C119.201 221.617 118.679 221.452 118.028 221.452C117.42 221.452 116.924 221.612 116.54 221.932C116.156 222.241 115.964 222.679 115.964 223.244C115.964 223.649 116.076 223.98 116.3 224.236C116.535 224.492 116.817 224.689 117.148 224.828C117.489 224.956 117.964 225.105 118.572 225.276C119.308 225.479 119.9 225.681 120.348 225.884C120.796 226.076 121.18 226.38 121.5 226.796C121.82 227.201 121.98 227.756 121.98 228.46C121.98 229.004 121.836 229.516 121.548 229.996C121.26 230.476 120.833 230.865 120.268 231.164C119.703 231.463 119.036 231.612 118.268 231.612ZM132.123 226.78C132.123 227.057 132.107 227.351 132.075 227.66H125.067C125.12 228.524 125.413 229.201 125.947 229.692C126.491 230.172 127.147 230.412 127.915 230.412C128.544 230.412 129.067 230.268 129.483 229.98C129.909 229.681 130.208 229.287 130.379 228.796H131.947C131.712 229.639 131.243 230.327 130.539 230.86C129.835 231.383 128.96 231.644 127.915 231.644C127.083 231.644 126.336 231.457 125.675 231.084C125.024 230.711 124.512 230.183 124.139 229.5C123.765 228.807 123.579 228.007 123.579 227.1C123.579 226.193 123.76 225.399 124.123 224.716C124.485 224.033 124.992 223.511 125.643 223.148C126.304 222.775 127.061 222.588 127.915 222.588C128.747 222.588 129.483 222.769 130.123 223.132C130.763 223.495 131.253 223.996 131.595 224.636C131.947 225.265 132.123 225.98 132.123 226.78ZM130.619 226.476C130.619 225.921 130.496 225.447 130.251 225.052C130.005 224.647 129.669 224.343 129.243 224.14C128.827 223.927 128.363 223.82 127.851 223.82C127.115 223.82 126.485 224.055 125.963 224.524C125.451 224.993 125.157 225.644 125.083 226.476H130.619ZM135.501 224.156C135.757 223.655 136.119 223.265 136.589 222.988C137.069 222.711 137.65 222.572 138.333 222.572V224.076H137.949C136.317 224.076 135.501 224.961 135.501 226.732V231.5H134.045V222.732H135.501V224.156ZM143.277 230.156L145.997 222.732H147.549L144.109 231.5H142.413L138.973 222.732H140.541L143.277 230.156ZM149.734 221.308C149.457 221.308 149.222 221.212 149.03 221.02C148.838 220.828 148.742 220.593 148.742 220.316C148.742 220.039 148.838 219.804 149.03 219.612C149.222 219.42 149.457 219.324 149.734 219.324C150.001 219.324 150.225 219.42 150.406 219.612C150.598 219.804 150.694 220.039 150.694 220.316C150.694 220.593 150.598 220.828 150.406 221.02C150.225 221.212 150.001 221.308 149.734 221.308ZM150.438 222.732V231.5H148.982V222.732H150.438ZM152.376 227.1C152.376 226.193 152.557 225.404 152.92 224.732C153.282 224.049 153.784 223.521 154.424 223.148C155.074 222.775 155.816 222.588 156.648 222.588C157.725 222.588 158.61 222.849 159.304 223.372C160.008 223.895 160.472 224.62 160.696 225.548H159.128C158.978 225.015 158.685 224.593 158.248 224.284C157.821 223.975 157.288 223.82 156.648 223.82C155.816 223.82 155.144 224.108 154.632 224.684C154.12 225.249 153.864 226.055 153.864 227.1C153.864 228.156 154.12 228.972 154.632 229.548C155.144 230.124 155.816 230.412 156.648 230.412C157.288 230.412 157.821 230.263 158.248 229.964C158.674 229.665 158.968 229.239 159.128 228.684H160.696C160.461 229.58 159.992 230.3 159.288 230.844C158.584 231.377 157.704 231.644 156.648 231.644C155.816 231.644 155.074 231.457 154.424 231.084C153.784 230.711 153.282 230.183 152.92 229.5C152.557 228.817 152.376 228.017 152.376 227.1ZM170.638 226.78C170.638 227.057 170.622 227.351 170.59 227.66H163.582C163.636 228.524 163.929 229.201 164.462 229.692C165.006 230.172 165.662 230.412 166.43 230.412C167.06 230.412 167.582 230.268 167.998 229.98C168.425 229.681 168.724 229.287 168.894 228.796H170.462C170.228 229.639 169.758 230.327 169.054 230.86C168.35 231.383 167.476 231.644 166.43 231.644C165.598 231.644 164.852 231.457 164.19 231.084C163.54 230.711 163.028 230.183 162.654 229.5C162.281 228.807 162.094 228.007 162.094 227.1C162.094 226.193 162.276 225.399 162.638 224.716C163.001 224.033 163.508 223.511 164.158 223.148C164.82 222.775 165.577 222.588 166.43 222.588C167.262 222.588 167.998 222.769 168.638 223.132C169.278 223.495 169.769 223.996 170.11 224.636C170.462 225.265 170.638 225.98 170.638 226.78ZM169.134 226.476C169.134 225.921 169.012 225.447 168.766 225.052C168.521 224.647 168.185 224.343 167.758 224.14C167.342 223.927 166.878 223.82 166.366 223.82C165.63 223.82 165.001 224.055 164.478 224.524C163.966 224.993 163.673 225.644 163.598 226.476H169.134Z" fill="#625347"/>
</svg>
